<?xml version="1.0" encoding="utf-8"?>
<!-- Generator: Adobe Illustrator 21.0.2, SVG Export Plug-In . SVG Version: 6.00 Build 0)  -->
<svg version="1.1" id="Layer_1" xmlns:svg="http://www.w3.org/2000/svg"
	 xmlns="http://www.w3.org/2000/svg" xmlns:xlink="http://www.w3.org/1999/xlink" x="0px" y="0px" viewBox="0 0 149.3 125.6"
	 style="enable-background:new 0 0 149.3 125.6;" xml:space="preserve">
<style type="text/css">
	.st0{fill:none;stroke:#000000;stroke-width:1.4173;stroke-linecap:square;}
	.st1{fill:none;stroke:#000000;stroke-width:3.456;stroke-linecap:square;}
	.st2{fill:none;stroke:#000000;stroke-width:1.728;stroke-linecap:square;}
	.st3{fill:none;stroke:#000000;stroke-width:2.8346;stroke-linecap:square;}
	.st4{fill:none;stroke:#000000;stroke-width:3.4554;stroke-linecap:round;}
	.st5{fill:none;stroke:#000000;stroke-width:1.44;stroke-linecap:square;}
	.st6{font-family:'Helvetica-Bold';}
	.st7{font-size:8.5039px;}
	.st8{font-family:'HelveticaNeue-Bold';}
	.st9{font-size:9.9213px;}
	.st10{fill:#FFFFFF;stroke:#000000;stroke-width:1.44;stroke-linecap:square;}
	.st11{fill:#FCFCFC;stroke:#000000;stroke-width:1.44;stroke-linecap:square;}
	.st12{fill:#FFFFFF;stroke:#000000;stroke-width:1.0599;stroke-linecap:square;}
	.st13{fill:#FFFFFF;stroke:#000000;stroke-width:3.6;stroke-linecap:square;}
	.st14{fill:none;stroke:#000000;stroke-width:1.0599;stroke-linecap:square;}
</style>
<g>
	<g id="board">
		<path id="boardoutline" class="st0" d="M134.5,2.8c6.9,0,12.4,5.6,12.4,12.4v80c0,4.7-3.8,6.4-8.4,6.4h-25.2
			c-4.7,0-8.5,3.8-8.5,8.5l0,0c0,5-4.1,9.1-9.1,9.1h-85c-4.2,0-7.6-3.4-7.6-7.6L3,6.3c0-1.9,1.6-3.5,3.5-3.5H134.5z"/>
	</g>
</g>
<g>
	<line class="st1" x1="9.8" y1="25.7" x2="9.8" y2="17.2"/>
</g>
<g>
	<path class="st1" d="M18.1,89.5L18.1,89.5c-5.1-0.4-9.1-4.7-9-9.9l0.7-54"/>
</g>
<g>
	<path class="st2" d="M142.8,43.9L140,21c-0.2-2-1.9-3.5-3.9-3.5l0,0"/>
</g>
<g>
	<path class="st2" d="M134.7,89.3L134.7,89.3c4.6-0.3,8.1-4.1,8.1-8.7V43.9"/>
</g>
<g>
	<line class="st2" x1="132.1" y1="38.3" x2="134" y2="24.2"/>
</g>
<g>
	<line class="st1" x1="83.3" y1="10.5" x2="71.4" y2="11"/>
</g>
<g>
	<line class="st1" x1="102.1" y1="10.6" x2="89.2" y2="10.4"/>
</g>
<g>
	<line class="st1" x1="83.3" y1="17.7" x2="71.4" y2="18.2"/>
</g>
<g>
	<line class="st3" x1="84.1" y1="24.9" x2="70.6" y2="25.5"/>
</g>
<g>
	<line class="st3" x1="102.9" y1="25" x2="88.4" y2="24.8"/>
</g>
<g>
	<path class="st1" d="M39.4,9.1H13.5c-2.1,0-3.8,1.8-3.7,3.9v0"/>
</g>
<g>
	<polyline class="st4" points="39.4,13.9 39.4,9.1 66.3,11.2 	"/>
</g>
<circle class="st0" cx="92.2" cy="110.1" r="4.3"/>
<path class="st1" d="M22.1,40.2h1.2c4.3,0,7.7-3.7,7.4-8v0c-0.8-4.2,1.4-7.2,5.9-7.8l29.8-6.1"/>
<circle class="st0" cx="13.9" cy="110.1" r="4.3"/>
<path class="st5" d="M129.6,49.9h-1.3c-4.1,0-9.4-3.3-9.4-7.4l0,0c0-4.1-3.3-7.4-7.4-7.4H45.2c-4.1,0-7.4,3.3-7.4,7.4l0,0
	c0,4.1-2.3,7.4-6.4,7.4h-8.3c-4.1,0-7.4,3.3-7.4,7.4v16.4c0,4.1,3.3,7.4,7.4,7.4h1.3c4.1,0,7.4,3.3,7.4,7.4l0,0
	c0,4.1,3.3,7.4,7.4,7.4h72.3c4.1,0,7.4-3.3,7.4-7.4l0,0c0-4.1,5.3-7.4,9.4-7.4h1.3c4.1,0,7.4-3.3,7.4-7.4V57.3
	C137,53.2,133.6,49.9,129.6,49.9z"/>
<text transform="matrix(1 0 0 1 20.1077 105.7995)" class="st6 st7">POWER BOARD</text>
<text transform="matrix(1 0 0 1 47.1688 116.1303)" class="st8 st9">V1</text>
<g>
	<g transform="translate(60.6316,3.55382)">
		<g id="copper0_5_">
			<rect id="square_3_" x="5.7" y="5.5" class="st10" width="4.2" height="4.2"/>
			<circle id="connector0pin_4_" class="st10" cx="7.8" cy="7.6" r="2.1"/>
			<circle id="connector1pin_4_" class="st10" cx="7.8" cy="14.8" r="2.1"/>
			<circle id="connector2pin_2_" class="st10" cx="7.8" cy="22" r="2.1"/>
		</g>
	</g>
</g>
<g>
	<g transform="translate(78.4794,2.80007)">
		<g id="copper0_6_">
			<rect id="square_4_" x="5.7" y="5.5" class="st11" width="4.2" height="4.2"/>
			<circle id="connector0pin_5_" class="st11" cx="7.8" cy="7.6" r="2.1"/>
			<circle id="connector1pin_5_" class="st11" cx="7.8" cy="14.8" r="2.1"/>
			<circle id="connector2pin_3_" class="st11" cx="7.8" cy="22" r="2.1"/>
		</g>
	</g>
</g>
<g>
	<g transform="translate(97.2381,3.07593)">
		<g id="copper0_4_">
			<rect id="square_2_" x="5.7" y="5.5" class="st10" width="4.2" height="4.2"/>
			<circle id="connector0pin_3_" class="st10" cx="7.8" cy="7.6" r="2.1"/>
			<circle id="connector1pin_3_" class="st10" cx="7.8" cy="14.8" r="2.1"/>
			<circle id="connector2pin_1_" class="st10" cx="7.8" cy="22" r="2.1"/>
		</g>
	</g>
</g>
<g>
	<g transform="translate(138.966,8.50406)">
		<g transform="matrix(0,1,-1,0,0,0)">
			<g id="copper0_3_">
				<circle id="connector0pad" class="st12" cx="8.5" cy="4.6" r="1.5"/>
				<circle id="connector1pad" class="st12" cx="14.2" cy="4.6" r="1.5"/>
			</g>
		</g>
	</g>
</g>
<g>
	<g transform="translate(10.2079,23.2406)">
		<g id="copper0">
			<g id="g3361">
				<rect id="square" x="6.3" y="13.4" class="st13" width="7.2" height="7.2"/>
				<circle id="connector0pin" class="st10" cx="9.9" cy="17" r="2"/>
				<circle id="connector1pin" class="st10" cx="9.9" cy="66.3" r="2"/>
				<circle id="connector2pin" class="st10" cx="122.5" cy="17" r="2"/>
				<circle id="connector3pin" class="st10" cx="122.5" cy="66.1" r="2"/>
			</g>
		</g>
	</g>
</g>
<line class="st1" x1="20.8" y1="23.6" x2="17" y2="17.2"/>
<g>
	<g transform="translate(2.01635,19.6261)">
		<g transform="matrix(0,-1,1,0,0,0)">
			<g id="copper0_7_">
				<circle id="connector0pin_6_" class="st10" cx="-6.1" cy="18.8" r="2.1"/>
				<circle id="connector1pin_6_" class="st10" cx="-6.1" cy="26" r="2.1"/>
			</g>
		</g>
	</g>
</g>
<g>
	<g transform="translate(2.01635,19.6261)">
		<g transform="matrix(0,-1,1,0,0,0)">
			<g id="copper0_2_">
				<circle id="connector0pin_2_" class="st10" cx="4.5" cy="7.8" r="2.1"/>
				<circle id="connector1pin_2_" class="st10" cx="4.5" cy="15" r="2.1"/>
			</g>
		</g>
	</g>
</g>
<g>
	<g transform="translate(2.01635,19.6261)">
		<g transform="matrix(0,-1,1,0,0,0)">
			<g id="copper0_8_">
				<circle id="connector0pin_7_" class="st10" cx="-6.1" cy="11.6" r="2.1"/>
				<circle id="connector1pin_7_" class="st10" cx="-6.1" cy="18.8" r="2.1"/>
			</g>
		</g>
	</g>
</g>
<g>
	<g transform="translate(138.966,8.50406)">
		<g transform="matrix(0,1,-1,0,0,0)">
			<g id="copper0_9_">
				<circle id="connector0pad_1_" class="st12" cx="1.6" cy="3.6" r="1.5"/>
				<circle id="connector1pad_1_" class="st12" cx="1.6" cy="22.3" r="1.5"/>
			</g>
		</g>
	</g>
</g>
<line class="st14" x1="135.4" y1="11.6" x2="134.4" y2="15.5"/>
<g>
	<g transform="translate(138.966,8.50406)">
		<g transform="matrix(0,1,-1,0,0,0)">
			<g id="copper0_10_">
				<circle id="connector0pad_2_" class="st12" cx="8.5" cy="18.3" r="1.5"/>
				<circle id="connector1pad_2_" class="st12" cx="16.2" cy="18.3" r="1.5"/>
			</g>
		</g>
	</g>
</g>
<line class="st14" x1="116.7" y1="11.6" x2="120.7" y2="15.5"/>
<line class="st14" x1="122.2" y1="24.7" x2="132.9" y2="22.7"/>
<line class="st4" x1="49.4" y1="18.4" x2="49.4" y2="21.8"/>
<g>
	<g transform="translate(29.9684,21.399)">
		<g transform="matrix(0,-1,1,0,0,0)">
			<g id="copper0_1_">
				
					<rect id="square_1_" x="3" y="7.3" transform="matrix(-2.535182e-06 -1 1 -2.535182e-06 -4.3388 14.6306)" class="st10" width="4.3" height="4.3"/>
				<circle id="connector0pin_1_" class="st10" cx="5.2" cy="9.5" r="2.2"/>
				<circle id="connector1pin_1_" class="st10" cx="5.2" cy="19.4" r="2.2"/>
			</g>
		</g>
	</g>
</g>
</svg>
