<?xml version="1.0" encoding="utf-8"?>
<!-- Generator: Adobe Illustrator 21.0.2, SVG Export Plug-In . SVG Version: 6.00 Build 0)  -->
<svg version="1.1" id="Layer_1" xmlns="http://www.w3.org/2000/svg" xmlns:xlink="http://www.w3.org/1999/xlink" x="0px" y="0px"
	 viewBox="0 0 1672.4 1133.9" style="enable-background:new 0 0 1672.4 1133.9;" xml:space="preserve">
<style type="text/css">
	.st0{fill:none;stroke:#FF0000;stroke-width:2.834646e-02;stroke-miterlimit:10;}
	.st1{fill:none;stroke:#FF0000;stroke-width:2.834646e-02;stroke-linecap:square;}
	.st2{fill:none;stroke:#FF0000;stroke-width:2.834646e-02;stroke-linecap:round;stroke-linejoin:round;stroke-miterlimit:10;}
</style>
<g>
	<circle class="st0" cx="254.6" cy="703.7" r="8.5"/>
	<path class="st0" d="M321.3,658.3v8.5h-26.7v-8.5h-26.7v8.5h0h-26.7h0v-8.5h-26.7v8.5h-26.7v-8.5h-26.7v8.5
		c0,3.8,3.4,11.9,10.4,16.6c4.1,2.6,15.5,2.5,22.3,2.8c14.2,0,27.2,13.5,35.5,22.4c2.4,2.5,4.3,4.9,5.7,7.1
		c3.3,4.7,10.1,11.2,17.5,11.1c0.7,0,1.4,0.1,2.1,0.1s1.4-0.1,2.1-0.1c6.4,0.1,13.1-6.6,16.5-11.1c1.3-2.2,3.3-4.7,5.7-7.1
		c8.2-9,21.3-22.4,35.5-22.4c6.7-0.2,19.1-0.1,23.3-2.8c7.1-4.7,10.4-12.8,10.4-16.6v-8.5H321.3z"/>
</g>
<g>
	<circle class="st0" cx="330.4" cy="798.7" r="17"/>
	<circle class="st0" cx="330.4" cy="798.7" r="4.3"/>
</g>
<g>
	<g>
		<path class="st0" d="M564,1031.9v-28.5l-8.6,0V977v-26.7h8.6v-26.7h-8.6v-26.7h8.6v-26.2h-8.6v-26.7h8.6v-26.7h-8.6v-26.7h8.6
			v-26.7h-8.6v-26.7h8.6v-26.6h-8.6v-26.7h8.6v-26.7h-8.6V603h8.6v-24c0-5.6-4.5-10.1-10.1-10.1l-15.4,0v8.4h0h-0.8h0h-8.8h0h-0.8h0
			v-8.4l-23.8,0v8.4h0h-0.6h0h-24h0h-0.6h0v-8.4h-24v8.4h0h-0.6h0h-24h0h-0.6h0v-8.4l-23.8,0v8.4h0h-0.8h0h-8.8h0H396h0v-8.4
			l-15.4,0c-5.6,0-10.1,4.5-10.1,10.1v24h8.6v54.1h-8.6v26.7h8.6v26.7h-8.6v26.6h8.6v26.7h-8.6v26.7h8.6v26.7h-8.6v26.7h8.6v26.7
			h-8.6v26.2h8.6v26.7h-8.6v26.7h8.6V977v26.4l-8.6,0v28.5c0,5.6,4.5,10.1,10.1,10.1h12.9h2.6v-8.3h0c0,0,10.9-28.3,11.4-30.2
			c0.8-2.9,3.5-5,6.6-5h13.4c3.8,0,6.9,3.1,6.9,6.9l10.1,34.7c0.5,2.3,2.5,2,4.9,2c7.3,0.2,89.2,0,89.2,0h2.6h12.9
			C559.5,1042,564,1037.5,564,1031.9z"/>
		<g>
			<circle class="st1" cx="525.7" cy="998.1" r="4.3"/>
			<circle class="st1" cx="447.4" cy="998.1" r="4.3"/>
		</g>
		<g>
			<circle class="st1" cx="452.8" cy="902.2" r="4.3"/>
			<circle class="st1" cx="452.8" cy="980.5" r="4.3"/>
		</g>
		<g>
			<circle class="st1" cx="525.8" cy="919.2" r="4.3"/>
		</g>
		<g>
			<g>
				<g>
					<g>
						<g>
							<circle class="st0" cx="550.8" cy="1028.4" r="4.3"/>
							<circle class="st0" cx="383.6" cy="1028.4" r="4.3"/>
							<circle class="st0" cx="552.8" cy="580.5" r="4.3"/>
							<circle class="st0" cx="381.6" cy="580.5" r="4.3"/>
						</g>
					</g>
				</g>
			</g>
		</g>
	</g>
	<g>
		<g>
			<g>
				<g>
					<circle class="st0" cx="408.1" cy="610.2" r="4.3"/>
					<circle class="st0" cx="536.1" cy="798.6" r="4.3"/>
					<circle class="st0" cx="526.9" cy="610.2" r="4.3"/>
					<circle class="st0" cx="398.9" cy="798.6" r="4.3"/>
				</g>
			</g>
		</g>
		<path class="st0" d="M491.5,839.7v-3.2c0-6.6,5.4-12,12-12h14.3c6.6,0,12,5.4,12,12v3.2c0,6.6-5.4,12-12,12h-14.3
			C496.9,851.7,491.5,846.3,491.5,839.7z"/>
		<path class="st0" d="M404.5,839.7v-3.2c0-6.6,5.4-12,12-12h14.3c6.6,0,12,5.4,12,12v3.2c0,6.6-5.4,12-12,12h-14.3
			C409.9,851.7,404.5,846.3,404.5,839.7z"/>
	</g>
	<g>
		
			<rect x="389.3" y="661.2" transform="matrix(-1 -1.224647e-16 1.224647e-16 -1 787.0315 1339.3214)" class="st0" width="8.5" height="17"/>
		
			<rect x="536.7" y="661.2" transform="matrix(-1 -1.224647e-16 1.224647e-16 -1 1081.9037 1339.3214)" class="st0" width="8.5" height="17"/>
		
			<rect x="536.7" y="927.6" transform="matrix(-1 -1.224647e-16 1.224647e-16 -1 1081.9037 1872.2349)" class="st0" width="8.5" height="17"/>
		
			<rect x="389.3" y="927.6" transform="matrix(-1 -1.224647e-16 1.224647e-16 -1 787.0315 1872.2349)" class="st0" width="8.5" height="17"/>
	</g>
</g>
<g>
	<g>
		<g>
			<g>
				<g>
					<g>
						<g>
							<g>
								<g>
									<g>
										<circle class="st0" cx="747.1" cy="1028.4" r="4.3"/>
										<circle class="st0" cx="579.9" cy="1028.4" r="4.3"/>
										<circle class="st0" cx="749.1" cy="580.5" r="4.3"/>
										<circle class="st0" cx="577.9" cy="580.5" r="4.3"/>
									</g>
								</g>
							</g>
						</g>
					</g>
				</g>
				<path class="st0" d="M576.8,1042h173.4c5.6,0,10.1-4.5,10.1-10.1v-28.5l-8.6,0V977v-26.7h8.6v-26.7h-8.6v-26.7h8.6v-26.2h-8.6
					V844h8.6v-26.7h-8.6v-26.7h8.6v-26.7h-8.6v-26.7h8.6v-26.6h-8.6v-26.7h8.6v-26.7h-8.6v-54.1h8.6v-24c0-5.6-4.5-10.1-10.1-10.1
					l-15.4,0v8.4h0H734h0h-8.8h0h-0.8h0v-8.4l-23.8,0v8.4h0H700h0h-24h0h-0.6h0v-8.4h-24v8.4h0h-0.6h0h-24h0h-0.6h0v-8.4l-23.8,0
					v8.4h0h-0.8h0H593h0h-0.8h0v-8.4l-15.4,0c-5.6,0-10.1,4.5-10.1,10.1v24h8.6v54.1h-8.6v26.7h8.6v26.7h-8.6v26.6h8.6v26.7h-8.6
					v26.7h8.6v26.7h-8.6V844h8.6v26.7h-8.6v26.2h8.6v26.7h-8.6v26.7h8.6V977v26.4l-8.6,0v28.5C566.7,1037.5,571.2,1042,576.8,1042z"
					/>
			</g>
		</g>
		<g>
			<g>
				<g>
					
						<rect x="585.5" y="944.4" transform="matrix(-1 -1.224647e-16 1.224647e-16 -1 1179.5153 1945.5503)" class="st0" width="8.5" height="56.7"/>
					
						<rect x="585.5" y="831" transform="matrix(-1 -1.224647e-16 1.224647e-16 -1 1179.5153 1718.7786)" class="st0" width="8.5" height="56.7"/>
					
						<rect x="585.5" y="717.7" transform="matrix(-1 -1.224647e-16 1.224647e-16 -1 1179.5153 1492.007)" class="st0" width="8.5" height="56.7"/>
					
						<rect x="585.5" y="604.3" transform="matrix(-1 -1.224647e-16 1.224647e-16 -1 1179.5153 1265.2352)" class="st0" width="8.5" height="56.7"/>
					
						<rect x="732.9" y="944.4" transform="matrix(-1 -1.224647e-16 1.224647e-16 -1 1474.3875 1945.5503)" class="st0" width="8.5" height="56.7"/>
					
						<rect x="732.9" y="831" transform="matrix(-1 -1.224647e-16 1.224647e-16 -1 1474.3875 1718.7786)" class="st0" width="8.5" height="56.7"/>
					
						<rect x="732.9" y="717.7" transform="matrix(-1 -1.224647e-16 1.224647e-16 -1 1474.3875 1492.007)" class="st0" width="8.5" height="56.7"/>
					
						<rect x="732.9" y="604.3" transform="matrix(-1 -1.224647e-16 1.224647e-16 -1 1474.3875 1265.2352)" class="st0" width="8.5" height="56.7"/>
				</g>
			</g>
		</g>
	</g>
</g>
<g>
	<circle class="st0" cx="263.6" cy="867.7" r="8.5"/>
	<path class="st0" d="M330.3,822.3v8.5h-26.7v-8.5h-26.7v8.5h0h-26.7h0v-8.5h-26.7v8.5h-26.7v-8.5h-26.7v8.5
		c0,3.8,3.4,11.9,10.4,16.6c4.1,2.6,15.5,2.5,22.3,2.8c14.2,0,27.2,13.5,35.5,22.4c2.4,2.5,4.3,4.9,5.7,7.1
		c3.3,4.7,10.1,11.2,17.5,11.1c0.7,0,1.4,0.1,2.1,0.1s1.4-0.1,2.1-0.1c6.4,0.1,13.1-6.6,16.5-11.1c1.3-2.2,3.3-4.7,5.7-7.1
		c8.2-9,21.3-22.4,35.5-22.4c6.7-0.2,19.1-0.1,23.3-2.8c7.1-4.7,10.4-12.8,10.4-16.6v-8.5H330.3z"/>
</g>
<g>
	<circle class="st0" cx="263.6" cy="784.7" r="8.5"/>
	<path class="st0" d="M330.3,740.3v8.5h-26.7v-8.5h-26.7v8.5h0h-26.7h0v-8.5h-26.7v8.5h-26.7v-8.5h-26.7v8.5
		c0,3.8,3.4,11.9,10.4,16.6c4.1,2.6,15.5,2.5,22.3,2.8c14.2,0,27.2,13.5,35.5,22.4c2.4,2.5,4.3,4.9,5.7,7.1
		c3.3,4.7,10.1,11.2,17.5,11.1c0.7,0,1.4,0.1,2.1,0.1s1.4-0.1,2.1-0.1c6.4,0.1,13.1-6.6,16.5-11.1c1.3-2.2,3.3-4.7,5.7-7.1
		c8.2-9,21.3-22.4,35.5-22.4c6.7-0.2,19.1-0.1,23.3-2.8c7.1-4.7,10.4-12.8,10.4-16.6v-8.5H330.3z"/>
</g>
<g>
	<circle class="st0" cx="263.6" cy="949.6" r="8.5"/>
	<path class="st0" d="M330.3,904.3v8.5h-26.7v-8.5h-26.7v8.5h0h-26.7h0v-8.5h-26.7v8.5h-26.7v-8.5h-26.7v8.5
		c0,3.8,3.4,11.9,10.4,16.6c4.1,2.6,15.5,2.5,22.3,2.8c14.2,0,27.2,13.5,35.5,22.4c2.4,2.5,4.3,4.9,5.7,7.1
		c3.3,4.7,10.1,11.2,17.5,11.1c0.7,0,1.4,0.1,2.1,0.1s1.4-0.1,2.1-0.1c6.4,0.1,13.1-6.6,16.5-11.1c1.3-2.2,3.3-4.7,5.7-7.1
		c8.2-9,21.3-22.4,35.5-22.4c6.7-0.2,19.1-0.1,23.3-2.8c7.1-4.7,10.4-12.8,10.4-16.6v-8.5H330.3z"/>
</g>
<g>
	<circle class="st0" cx="130.1" cy="843.4" r="8.5"/>
	<path class="st0" d="M63.4,888.8v-8.5h26.7v8.5h26.7v-8.5h0h26.7h0v8.5h26.7v-8.5h26.7v8.5h26.7v-8.5c0-3.8-3.4-11.9-10.4-16.6
		c-4.1-2.6-15.5-2.5-22.3-2.8c-14.2,0-27.2-13.5-35.5-22.4c-2.4-2.5-4.3-4.9-5.7-7.1c-3.3-4.7-10.1-11.2-17.5-11.1
		c-0.7,0-1.4-0.1-2.1-0.1s-1.4,0.1-2.1,0.1c-6.4-0.1-13.1,6.6-16.5,11.1c-1.3,2.2-3.3,4.7-5.7,7.1c-8.2,9-21.3,22.4-35.5,22.4
		c-6.7,0.2-19.1,0.1-23.3,2.8c-7.1,4.7-10.4,12.8-10.4,16.6v8.5H63.4z"/>
</g>
<g>
	<circle class="st0" cx="130.1" cy="926.4" r="8.5"/>
	<path class="st0" d="M63.4,970.8v-8.5h26.7v8.5h26.7v-8.5h0h26.7h0v8.5h26.7v-8.5h26.7v8.5h26.7v-8.5c0-3.8-3.4-11.9-10.4-16.6
		c-4.1-2.6-15.5-2.5-22.3-2.8c-14.2,0-27.2-13.5-35.5-22.4c-2.4-2.5-4.3-4.9-5.7-7.1c-3.3-4.7-10.1-11.2-17.5-11.1
		c-0.7,0-1.4-0.1-2.1-0.1s-1.4,0.1-2.1,0.1c-6.4-0.1-13.1,6.6-16.5,11.1c-1.3,2.2-3.3,4.7-5.7,7.1c-8.2,9-21.3,22.4-35.5,22.4
		c-6.7,0.2-19.1,0.1-23.3,2.8c-7.1,4.7-10.4,12.8-10.4,16.6v8.5H63.4z"/>
</g>
<g>
	<circle class="st0" cx="121.1" cy="679.5" r="8.5"/>
	<path class="st0" d="M54.4,724.8v-8.5h26.7v8.5h26.7v-8.5h0h26.7h0v8.5h26.7v-8.5h26.7v8.5h26.7v-8.5c0-3.8-3.4-11.9-10.4-16.6
		c-4.1-2.6-15.5-2.5-22.3-2.8c-14.2,0-27.2-13.5-35.5-22.4c-2.4-2.5-4.3-4.9-5.7-7.1c-3.3-4.7-10.1-11.2-17.5-11.1
		c-0.7,0-1.4-0.1-2.1-0.1s-1.4,0.1-2.1,0.1c-6.4-0.1-13.1,6.6-16.5,11.1c-1.3,2.2-3.3,4.7-5.7,7.1c-8.2,9-21.3,22.4-35.5,22.4
		c-6.7,0.2-19.1,0.1-23.3,2.8c-7.1,4.7-10.4,12.8-10.4,16.6v8.5H54.4z"/>
</g>
<g>
	<circle class="st0" cx="130.1" cy="762.4" r="8.5"/>
	<path class="st0" d="M63.4,806.8v-8.5h26.7v8.5h26.7v-8.5h0h26.7h0v8.5h26.7v-8.5h26.7v8.5h26.7v-8.5c0-3.8-3.4-11.9-10.4-16.6
		c-4.1-2.6-15.5-2.5-22.3-2.8c-14.2,0-27.2-13.5-35.5-22.4c-2.4-2.5-4.3-4.9-5.7-7.1c-3.3-4.7-10.1-11.2-17.5-11.1
		c-0.7,0-1.4-0.1-2.1-0.1s-1.4,0.1-2.1,0.1c-6.4-0.1-13.1,6.6-16.5,11.1c-1.3,2.2-3.3,4.7-5.7,7.1c-8.2,9-21.3,22.4-35.5,22.4
		c-6.7,0.2-19.1,0.1-23.3,2.8c-7.1,4.7-10.4,12.8-10.4,16.6v8.5H63.4z"/>
</g>
<g>
	<circle class="st0" cx="121.1" cy="597.5" r="8.5"/>
	<path class="st0" d="M54.4,642.8v-8.5h26.7v8.5h26.7v-8.5h0h26.7h0v8.5h26.7v-8.5h26.7v8.5h26.7v-8.5c0-3.8-3.4-11.9-10.4-16.6
		c-4.1-2.6-15.5-2.5-22.3-2.8c-14.2,0-27.2-13.5-35.5-22.4c-2.4-2.5-4.3-4.9-5.7-7.1c-3.3-4.7-10.1-11.2-17.5-11.1
		c-0.7,0-1.4-0.1-2.1-0.1s-1.4,0.1-2.1,0.1c-6.4-0.1-13.1,6.6-16.5,11.1c-1.3,2.2-3.3,4.7-5.7,7.1c-8.2,9-21.3,22.4-35.5,22.4
		c-6.7,0.2-19.1,0.1-23.3,2.8c-7.1,4.7-10.4,12.8-10.4,16.6v8.5H54.4z"/>
</g>
<g>
	<path class="st0" d="M1258.6,918.4c15.6-7.4,38.3-36.4,56.8-74.3c8.8-18,15.3-35.4,19.4-50.6c1.8-6.8,2.8-13.6,5.3-20.1
		c1.1-2.9,1.5-6.1,1.5-9.3c0-2.9-0.3-5.6-1.2-8.2c-2.3-6.8-3.5-13.7-5.4-20.7c-4.1-15.2-10.7-32.8-19.5-50.8
		c-18.7-38.3-41.6-67.5-57.3-74.5c-5-2.9-10.8-4.6-17-4.6c-17.7,0-32.3,13.6-33.7,31h-0.1c0,0-1,17.2-0.1,31
		c8.6,56.6,5.7,158.6,0.1,195.3c-0.7,9.8,0,18.9,0,26.1c0,18.8,15.4,34.7,34.2,34.5C1247.8,923.1,1253.6,921.4,1258.6,918.4z"/>
	<g>
		<g>
			<g>
				<g>
					<path class="st0" d="M1247.7,873.1L1247.7,873.1c8.9,2.9,13.8,12.6,10.8,21.5l0,0c-2.9,8.9-12.6,13.8-21.5,10.8l0,0
						c-8.9-2.9-13.8-12.6-10.8-21.5v0C1229.1,875.1,1238.8,870.2,1247.7,873.1z"/>
					<g>
						<g>
							
								<ellipse transform="matrix(0.3125 -0.9499 0.9499 0.3125 66.8304 1727.5226)" class="st0" cx="1226.8" cy="817.6" rx="2.8" ry="2.8"/>
							
								<ellipse transform="matrix(0.3125 -0.9499 0.9499 0.3125 41.2581 1734.7888)" class="st0" cx="1219.1" cy="838.9" rx="2.8" ry="2.8"/>
							<g>
								
									<ellipse transform="matrix(0.3125 -0.9499 0.9499 0.3125 92.3933 1720.2439)" class="st0" cx="1234.6" cy="796.3" rx="2.8" ry="2.8"/>
							</g>
						</g>
						<g>
							
								<ellipse transform="matrix(0.3125 -0.9499 0.9499 0.3125 91.8107 1813.8962)" class="st0" cx="1299" cy="843.5" rx="2.8" ry="2.8"/>
							
								<ellipse transform="matrix(0.3125 -0.9499 0.9499 0.3125 66.2478 1821.1749)" class="st0" cx="1291.2" cy="864.8" rx="2.8" ry="2.8"/>
							
								<ellipse transform="matrix(0.3125 -0.9499 0.9499 0.3125 117.3736 1806.6177)" class="st0" cx="1306.7" cy="822.2" rx="2.8" ry="2.8"/>
						</g>
						<path class="st0" d="M1302.4,812.2l-18.1-6.6c-0.4-0.2-0.7-0.5-0.8-1l4-9.3c1.4-3.3-0.1-7.2-3.5-8.6l-3.5-1.5
							c-3.3-1.4-7.2,0.1-8.6,3.5l-4,9.5c-0.7,0.6-1.6,0.9-2.5,0.5l-20.4-7.4l-23.7,65l57.4,20.9L1302.4,812.2z"/>
					</g>
				</g>
				
					<ellipse transform="matrix(0.3401 -0.9404 0.9404 0.3401 101.5873 1749.4791)" class="st0" cx="1297.4" cy="802.4" rx="2.8" ry="2.8"/>
				
					<ellipse transform="matrix(0.3401 -0.9404 0.9404 0.3401 87.9483 1699.1915)" class="st0" cx="1254.7" cy="786.9" rx="2.8" ry="2.8"/>
			</g>
			<g>
				<g>
					<path class="st0" d="M1247.1,655.2L1247.1,655.2c8.9-2.9,13.8-12.6,10.9-21.5v0c-2.9-8.9-12.6-13.8-21.5-10.9v0
						c-8.9,2.9-13.8,12.6-10.9,21.5l0,0C1228.6,653.3,1238.2,658.2,1247.1,655.2z"/>
					<g>
						<g>
							
								<ellipse transform="matrix(0.95 -0.3124 0.3124 0.95 -160.6675 418.6361)" class="st0" cx="1226.3" cy="710.8" rx="2.8" ry="2.8"/>
							
								<ellipse transform="matrix(0.95 -0.3124 0.3124 0.95 -154.4048 415.1632)" class="st0" cx="1218.5" cy="689.5" rx="2.8" ry="2.8"/>
						</g>
						<g>
							
								<ellipse transform="matrix(0.95 -0.3124 0.3124 0.95 -148.9584 439.8807)" class="st0" cx="1298.4" cy="684.9" rx="2.8" ry="2.8"/>
							
								<ellipse transform="matrix(0.95 -0.3124 0.3124 0.95 -142.6927 436.3934)" class="st0" cx="1290.7" cy="663.6" rx="2.8" ry="2.8"/>
							
								<ellipse transform="matrix(0.95 -0.3124 0.3124 0.95 -155.224 443.3679)" class="st0" cx="1306.2" cy="706.2" rx="2.8" ry="2.8"/>
						</g>
						<path class="st0" d="M1281.1,744.5l3.5-1.5c3.3-1.4,4.9-5.3,3.5-8.6l-4-9.4c-0.5-1.1,0-2.4,1.1-2.8c0,0,0,0,0,0l16.7-6.1
							l-23.7-65l-57.4,20.9l23.7,65l20-7.3c1.6-0.6,3.3,0.2,3.9,1.7c0.2,0.5,0.5,1,0.7,1.4l3.4,8.1
							C1273.9,744.4,1277.8,746,1281.1,744.5z"/>
						<g>
							
								<ellipse transform="matrix(0.95 -0.3124 0.3124 0.95 -166.9332 422.1233)" class="st0" cx="1234" cy="732.1" rx="2.8" ry="2.8"/>
						</g>
					</g>
				</g>
				
					<ellipse transform="matrix(0.9404 -0.34 0.34 0.9404 -169.5981 484.2007)" class="st0" cx="1296.8" cy="726" rx="2.8" ry="2.8"/>
				
					<ellipse transform="matrix(0.9404 -0.34 0.34 0.9404 -177.3831 470.6167)" class="st0" cx="1254.1" cy="741.4" rx="2.8" ry="2.8"/>
			</g>
		</g>
		<circle class="st0" cx="1314.3" cy="764.1" r="17"/>
	</g>
	<circle class="st0" cx="1258.5" cy="765.4" r="4.3"/>
	<circle class="st0" cx="1225.8" cy="765.4" r="4.3"/>
</g>
<g>
	<g>
		<path class="st0" d="M1301.2,532.1l-24.8,71.4c-2.1,5.9,5.8,10.1,9.6,5.2c9.8-12.8,20-29.4,29.2-48.2c8.8-18,15.3-35.4,19.4-50.7
			c1.8-6.8,2.8-13.6,5.3-20.1c1.1-2.9,1.5-6.1,1.5-9.3c0-2.9-0.3-5.6-1.2-8.2c-2.3-6.8-3.5-13.7-5.4-20.7
			c-4.1-15.2-10.7-32.8-19.5-50.8c-9.6-19.8-20.4-37.2-30.8-50.3c-3.9-4.9-11.6-0.7-9.6,5.2l25.5,73.7c0.7,2-0.4,4.2-2.3,4.9
			l-50.5,18.3c-2,0.7-4.2-0.3-5-2.3l-24.8-67.1c-2.1-5.8-11.6-4.2-10.7,1.9c7.2,49.4,7.2,144.8,0.1,192.8c-0.9,6.1,8.5,7.7,10.7,1.9
			l25.3-68.4c0.7-2,3-3,5-2.3l50.5,18.3C1300.8,527.9,1301.9,530.1,1301.2,532.1z"/>
	</g>
	<circle class="st0" cx="1258.3" cy="481.8" r="4.3"/>
	<circle class="st0" cx="1225.6" cy="481.8" r="4.3"/>
	<g>
		<g>
			
				<ellipse transform="matrix(0.3125 -0.9499 0.9499 0.3125 336.132 1532.322)" class="st0" cx="1226.6" cy="534" rx="2.8" ry="2.8"/>
			
				<ellipse transform="matrix(0.3125 -0.9499 0.9499 0.3125 310.5588 1539.5911)" class="st0" cx="1218.9" cy="555.3" rx="2.8" ry="2.8"/>
			
				<ellipse transform="matrix(0.3125 -0.9499 0.9499 0.3125 361.6949 1525.0435)" class="st0" cx="1234.4" cy="512.7" rx="2.8" ry="2.8"/>
			
				<ellipse transform="matrix(0.3125 -0.9499 0.9499 0.3125 361.1123 1618.6958)" class="st0" cx="1298.8" cy="559.9" rx="2.8" ry="2.8"/>
			
				<ellipse transform="matrix(0.3125 -0.9499 0.9499 0.3125 335.5494 1625.9744)" class="st0" cx="1291" cy="581.2" rx="2.8" ry="2.8"/>
			
				<ellipse transform="matrix(0.3125 -0.9499 0.9499 0.3125 386.6752 1611.4172)" class="st0" cx="1306.5" cy="538.6" rx="2.8" ry="2.8"/>
			
				<ellipse transform="matrix(0.3401 -0.9404 0.9404 0.3401 368.1879 1562.1207)" class="st0" cx="1297.2" cy="518.7" rx="2.8" ry="2.8"/>
			
				<ellipse transform="matrix(0.3401 -0.9404 0.9404 0.3401 354.5488 1511.8331)" class="st0" cx="1254.5" cy="503.3" rx="2.8" ry="2.8"/>
		</g>
		<g>
			
				<ellipse transform="matrix(0.95 -0.3124 0.3124 0.95 -72.0737 404.3799)" class="st0" cx="1226.1" cy="427.1" rx="2.8" ry="2.8"/>
			
				<ellipse transform="matrix(0.95 -0.3124 0.3124 0.95 -65.8081 400.9061)" class="st0" cx="1218.3" cy="405.8" rx="2.8" ry="2.8"/>
			
				<ellipse transform="matrix(0.95 -0.3124 0.3124 0.95 -60.3645 425.6245)" class="st0" cx="1298.2" cy="401.2" rx="2.8" ry="2.8"/>
			
				<ellipse transform="matrix(0.95 -0.3124 0.3124 0.95 -54.0989 422.1372)" class="st0" cx="1290.5" cy="379.9" rx="2.8" ry="2.8"/>
			<ellipse transform="matrix(0.95 -0.3124 0.3124 0.95 -66.6302 429.1117)" class="st0" cx="1306" cy="422.5" rx="2.8" ry="2.8"/>
			
				<ellipse transform="matrix(0.95 -0.3124 0.3124 0.95 -78.3393 407.8671)" class="st0" cx="1233.8" cy="448.4" rx="2.8" ry="2.8"/>
			
				<ellipse transform="matrix(0.9404 -0.34 0.34 0.9404 -73.1657 467.2331)" class="st0" cx="1296.6" cy="442.4" rx="2.8" ry="2.8"/>
			<ellipse transform="matrix(0.9404 -0.34 0.34 0.9404 -80.9508 453.6492)" class="st0" cx="1254" cy="457.8" rx="2.8" ry="2.8"/>
		</g>
		<circle class="st0" cx="1314.1" cy="480.5" r="17"/>
	</g>
</g>
<g>
	<polygon class="st0" points="823.6,54.2 530.6,54.2 530.6,45.7 476.5,45.7 476.5,193.3 530,193.4 530,184.8 556.7,184.8 
		556.7,193.4 583.4,193.4 583.4,184.8 609.7,184.8 609.7,193.4 636.4,193.4 636.4,184.8 663.1,184.8 663.1,193.4 689.8,193.4 
		689.8,184.8 716.5,184.8 716.5,193.4 743.2,193.4 743.2,184.8 769.8,184.8 769.8,193.4 796.5,193.4 796.5,184.7 823.2,184.7 
		823.2,193.4 876.8,193.4 876.8,45.7 823.6,45.7 	"/>
	<path class="st0" d="M842.7,103.3h-9.6c-6.5,0-11.8-5.3-11.8-11.8v-9.6c0-6.5,5.3-11.8,11.8-11.8h9.6c6.5,0,11.8,5.3,11.8,11.8v9.6
		C854.5,98,849.2,103.3,842.7,103.3z"/>
	<g>
		
			<rect x="539.3" y="114.7" transform="matrix(-4.506813e-11 1 -1 -4.506813e-11 671.5708 -415.5602)" class="st0" width="8.6" height="26.7"/>
		
			<rect x="592.4" y="114.9" transform="matrix(-4.506813e-11 1 -1 -4.506813e-11 724.7288 -468.7182)" class="st0" width="8.6" height="26.2"/>
		
			<rect x="645.6" y="114.7" transform="matrix(-4.496155e-11 1 -1 -4.496155e-11 777.8868 -521.8762)" class="st0" width="8.6" height="26.7"/>
		
			<rect x="699" y="114.7" transform="matrix(-4.506813e-11 1 -1 -4.506813e-11 831.2891 -575.2784)" class="st0" width="8.6" height="26.7"/>
		
			<rect x="752.4" y="114.7" transform="matrix(-4.506813e-11 1 -1 -4.506813e-11 884.6465 -628.6359)" class="st0" width="8.6" height="26.6"/>
		
			<rect x="805.7" y="114.7" transform="matrix(-4.506813e-11 1 -1 -4.506813e-11 938.004 -681.9933)" class="st0" width="8.6" height="26.7"/>
	</g>
</g>
<g>
	<g>
		<g>
			<g>
				<polygon class="st0" points="1028.2,54.2 1028.2,45.9 1018.6,45.9 1018.6,45.9 1017.9,45.9 1017.9,45.9 1017.9,54.2 994.1,54.2 
					994.1,54.2 994.1,54.2 994.1,45.9 994.1,45.9 993.5,45.9 993.5,45.9 969.5,45.9 969.5,45.9 968.9,45.9 968.9,45.9 968.9,54.2 
					945,54.2 945,54.2 944.9,54.2 944.9,45.9 944.9,45.9 944.3,45.9 944.3,45.9 920.4,45.9 920.4,45.9 919.8,45.9 919.8,45.9 
					919.8,54.2 896,54.2 896,54.2 896,54.2 896,45.9 896,45.9 895.2,45.9 895.2,45.9 885.6,45.9 885.7,45.8 885.7,193.2 
					885.6,193.2 895.2,193.2 895.2,193.2 896,193.2 896,193.2 896,184.9 896,184.9 896,184.9 919.8,184.9 919.8,193.2 919.8,193.2 
					920.4,193.2 920.4,193.2 944.3,193.2 944.3,193.2 944.9,193.2 944.9,193.2 944.9,184.9 945,184.9 945,184.9 968.9,184.9 
					968.9,193.2 968.9,193.2 969.5,193.2 969.5,193.2 993.5,193.2 993.5,193.2 994.1,193.2 994.1,193.2 994.1,184.9 994.1,184.9 
					994.1,184.9 1017.9,184.9 1017.9,193.2 1017.9,193.2 1018.6,193.2 1018.6,193.2 1028.2,193.2 1028.2,184.9 				"/>
			</g>
			<rect x="896" y="123.6" class="st0" width="23.8" height="8.3"/>
			<rect x="944.9" y="123.6" class="st0" width="24" height="8.3"/>
			<rect x="994" y="123.6" class="st0" width="23.8" height="8.3"/>
		</g>
		<path class="st0" d="M993.3,87.1h-2.4c-1,0-1.9-0.8-1.9-1.9v-9.3c0-0.5-0.4-0.9-0.9-0.9h-62.6c-0.5,0-0.9,0.4-0.9,0.9v9.2
			c0,1.1-0.9,2-2,2h-2.3c-1.5,0-2.9,1.1-3,2.7c-0.1,1.6,1.2,3,2.8,3h2.6c1,0,1.8,0.8,1.8,1.8v9.4c0,0.5,0.4,0.9,0.9,0.9h62.6
			c0.5,0,0.9-0.4,0.9-0.9v-9.4c0-1,0.8-1.8,1.8-1.8h2.6c1.6,0,2.9-1.4,2.8-3C996.2,88.2,994.8,87.1,993.3,87.1z"/>
	</g>
</g>
<g>
	<circle class="st0" cx="797.8" cy="631.1" r="12.8"/>
	<path class="st0" d="M817.2,631.1L817.2,631.1c0,11.3-9.2,20.4-20.4,20.4h-32.3c-1,0-1.8-0.8-1.8-1.8v-37.3c0-1,0.8-1.8,1.8-1.8
		h32.3C808.1,610.7,817.2,619.8,817.2,631.1z"/>
	<g>
		
			<rect x="768.2" y="636.9" transform="matrix(6.123234e-17 -1 1 6.123234e-17 131.3058 1413.5553)" class="st0" width="8.5" height="8.5"/>
		
			<rect x="768.2" y="616.9" transform="matrix(6.123234e-17 -1 1 6.123234e-17 151.3058 1393.5553)" class="st0" width="8.5" height="8.5"/>
	</g>
</g>
<g>
	<circle class="st0" cx="1174.9" cy="367.3" r="12.8"/>
	<path class="st0" d="M1194.3,367.3L1194.3,367.3c0,11.3-9.2,20.4-20.4,20.4h-32.3c-1,0-1.8-0.8-1.8-1.8v-37.3c0-1,0.8-1.8,1.8-1.8
		h32.3C1185.2,346.8,1194.3,356,1194.3,367.3z"/>
	<g>
		
			<rect x="1145.3" y="373" transform="matrix(6.123234e-17 -1 1 6.123234e-17 772.2534 1526.7814)" class="st0" width="8.5" height="8.5"/>
		
			<rect x="1145.3" y="353" transform="matrix(6.123234e-17 -1 1 6.123234e-17 792.2534 1506.7814)" class="st0" width="8.5" height="8.5"/>
	</g>
</g>
<g>
	<circle class="st0" cx="1143.3" cy="851.4" r="12.8"/>
	<path class="st0" d="M1162.8,851.4L1162.8,851.4c0,11.3-9.2,20.4-20.4,20.4H1110c-1,0-1.8-0.8-1.8-1.8v-37.3c0-1,0.8-1.8,1.8-1.8
		h32.3C1153.6,830.9,1162.8,840.1,1162.8,851.4z"/>
	<g>
		
			<rect x="1113.7" y="857.1" transform="matrix(6.123234e-17 -1 1 6.123234e-17 256.574 1979.2997)" class="st0" width="8.5" height="8.5"/>
		
			<rect x="1113.7" y="837.1" transform="matrix(6.123234e-17 -1 1 6.123234e-17 276.574 1959.2997)" class="st0" width="8.5" height="8.5"/>
	</g>
</g>
<g>
	<circle class="st0" cx="1143.3" cy="925.8" r="12.8"/>
	<path class="st0" d="M1162.8,925.8L1162.8,925.8c0,11.3-9.2,20.4-20.4,20.4H1110c-1,0-1.8-0.8-1.8-1.8v-37.3c0-1,0.8-1.8,1.8-1.8
		h32.3C1153.6,905.3,1162.8,914.5,1162.8,925.8z"/>
	<g>
		
			<rect x="1113.7" y="931.5" transform="matrix(6.123234e-17 -1 1 6.123234e-17 182.1829 2053.6907)" class="st0" width="8.5" height="8.5"/>
		
			<rect x="1113.7" y="911.5" transform="matrix(6.123234e-17 -1 1 6.123234e-17 202.1829 2033.6907)" class="st0" width="8.5" height="8.5"/>
	</g>
</g>
<g>
	<g>
		<g>
			<path class="st2" d="M939.3,357.6v-57c0-1.7-1.4-3.1-3.1-3.1h-14.8c-1.7,0-3.1,1.4-3.1,3.1v57c0,1.6,1.3,2.9,2.9,2.9h15.2
				C938,360.5,939.3,359.2,939.3,357.6z"/>
			<path class="st2" d="M1078,386.9v-3.4c0-1.6-1.3-2.8-2.8-2.8h-3.4c-1.6,0-2.8,1.3-2.8,2.8v3.4c0,1.6,1.3,2.8,2.8,2.8h3.4
				C1076.7,389.8,1078,388.5,1078,386.9z"/>
			<path class="st0" d="M953.9,467.5l-54.8-7.3c-6.6,0-12-5.4-12-12l-0.8-24.3h8.8v-18h-8.8v-18.2h8.8v-4.5v-13.8h-8.8v-18.2h8.8
				V333h-8.8v-18.2h8.8v-63.3h-8.8c0-9,0-18.6,0.4-21.4c0.7-5.7,5.3-10.8,11-11c13.1-0.4,29-10.5,63.2-10.5c2.5,0,5.1,0,7.7,0
				c3.9,0,7.6,1.6,10.3,4.3c7.2,7.1,17,11.5,27.9,11.5c11.1,0,21.1-4.5,28.3-11.9c2.5-2.5,5.9-3.9,9.4-3.9c3.2,0,6.3,0,9.3,0
				c33.7,0.1,49,10.1,62.1,10.5c5.7,0.2,10.3,5.3,11,11c0.4,2.8,0.1,12.4,0.1,21.4h-8.5l-0.2,63.3h8.5V333h-8.5l0,18.2h8.6v18.2
				h-8.6l0,18.2h8.6v18.2h-8.7l0,18h9l0,24.3c0,6.6-5.4,12-12,12l-55.4,6.3c-2.5,0-4.5-2-4.5-4.5v-5c0-11.6-4.4-22.3-11.6-30.3
				c-11.5-12.8-18.3-29.2-18.3-46.4v-1.2c0-1-0.8-1.9-1.9-1.9h-33c-1.4,0-2.6,1.2-2.6,2.6v0.2c0,18-9.3,35.3-20.2,49.7
				c-5.3,7.1-8.5,13.5-9.1,29.5c0.1,1.1,0.1,2.4-0.1,3.6c0,0.1,0,0.2,0,0.3v-0.2C958.1,465.2,957,467.5,953.9,467.5z"/>
		</g>
		<g>
			<g>
				<circle class="st0" cx="972.7" cy="218.5" r="4.3"/>
			</g>
			<g>
				<circle class="st0" cx="1040.7" cy="218.5" r="4.3"/>
			</g>
		</g>
		<g>
			<g>
				<g>
					<circle class="st0" cx="950.2" cy="447.9" r="3.5"/>
					<circle class="st0" cx="1063.6" cy="447.9" r="3.5"/>
				</g>
			</g>
			<circle class="st0" cx="927.5" cy="249.5" r="3.5"/>
			<circle class="st0" cx="1086.2" cy="249.5" r="3.5"/>
		</g>
		<g>
			<g>
				<g>
					<circle class="st2" cx="899.3" cy="235.6" r="4.3"/>
					<circle class="st2" cx="1114.2" cy="235.6" r="4.3"/>
				</g>
			</g>
			<g>
				<circle class="st2" cx="1084.2" cy="451.3" r="4.3"/>
				<circle class="st2" cx="929.2" cy="451.3" r="4.3"/>
			</g>
		</g>
	</g>
</g>
<g>
	<circle class="st0" cx="258.7" cy="622.2" r="8.5"/>
	<path class="st0" d="M325.4,576.9v8.5h-26.7v-8.5H272v8.5h0h-26.7h0v-8.5h-26.7v8.5h-26.7v-8.5h-26.7v8.5c0,3.8,3.4,11.9,10.4,16.6
		c4.1,2.6,15.5,2.5,22.3,2.8c14.2,0,27.2,13.5,35.5,22.4c2.4,2.5,4.3,4.9,5.7,7.1c3.3,4.7,10.1,11.2,17.5,11.1
		c0.7,0,1.4,0.1,2.1,0.1s1.4-0.1,2.1-0.1c6.4,0.1,13.1-6.6,16.5-11.1c1.3-2.2,3.3-4.7,5.7-7.1c8.2-9,21.3-22.4,35.5-22.4
		c6.7-0.2,19.1-0.1,23.3-2.8c7.1-4.7,10.4-12.8,10.4-16.6v-8.5H325.4z"/>
</g>
<g>
	<path class="st0" d="M1250.3,356.5c15.6-7.4,38.3-36.4,56.8-74.3c8.8-18,15.3-35.4,19.4-50.6c1.8-6.8,2.8-13.6,5.3-20.1
		c1.1-2.9,1.5-6.1,1.5-9.3c0-2.9-0.3-5.6-1.2-8.2c-2.3-6.8-3.5-13.7-5.4-20.7c-4.1-15.2-10.7-32.8-19.5-50.8
		c-18.7-38.3-41.6-67.5-57.3-74.5c-5-2.9-10.8-4.6-17-4.6c-17.7,0-32.3,13.6-33.7,31h-0.1c0,0-1,17.2-0.1,31
		c8.6,56.6,5.7,158.6,0.1,195.3c-0.7,9.8,0,18.9,0,26.1c0,18.8,15.4,34.7,34.2,34.5C1239.5,361.1,1245.3,359.4,1250.3,356.5z"/>
	<g>
		<g>
			<g>
				<g>
					<path class="st0" d="M1239.4,311.2L1239.4,311.2c8.9,2.9,13.8,12.6,10.8,21.5v0c-2.9,8.9-12.6,13.8-21.5,10.8v0
						c-8.9-2.9-13.8-12.6-10.8-21.5v0C1220.8,313.1,1230.5,308.3,1239.4,311.2z"/>
					<g>
						<g>
							
								<ellipse transform="matrix(0.3125 -0.9499 0.9499 0.3125 594.9272 1333.2815)" class="st0" cx="1218.5" cy="255.7" rx="2.8" ry="2.8"/>
							
								<ellipse transform="matrix(0.3125 -0.9499 0.9499 0.3125 569.3532 1340.5533)" class="st0" cx="1210.8" cy="276.9" rx="2.8" ry="2.8"/>
							<g>
								
									<ellipse transform="matrix(0.3125 -0.9499 0.9499 0.3125 620.4901 1326.0029)" class="st0" cx="1226.3" cy="234.4" rx="2.8" ry="2.8"/>
							</g>
						</g>
						<g>
							
								<ellipse transform="matrix(0.3125 -0.9499 0.9499 0.3125 619.9075 1419.6553)" class="st0" cx="1290.7" cy="281.6" rx="2.8" ry="2.8"/>
							
								<ellipse transform="matrix(0.3125 -0.9499 0.9499 0.3125 594.3447 1426.9338)" class="st0" cx="1282.9" cy="302.9" rx="2.8" ry="2.8"/>
							
								<ellipse transform="matrix(0.3125 -0.9499 0.9499 0.3125 645.4704 1412.3767)" class="st0" cx="1298.4" cy="260.3" rx="2.8" ry="2.8"/>
						</g>
						<path class="st0" d="M1294.1,250.2l-18.1-6.6c-0.4-0.2-0.7-0.5-0.8-1l4-9.3c1.4-3.3-0.1-7.2-3.5-8.6l-3.5-1.5
							c-3.3-1.4-7.2,0.1-8.6,3.5l-4,9.5c-0.7,0.6-1.6,0.9-2.5,0.5l-20.4-7.4l-23.7,65l57.4,20.9L1294.1,250.2z"/>
					</g>
				</g>
				
					<ellipse transform="matrix(0.3401 -0.9404 0.9404 0.3401 624.5515 1370.8501)" class="st0" cx="1289" cy="240.4" rx="2.8" ry="2.8"/>
				
					<ellipse transform="matrix(0.3401 -0.9404 0.9404 0.3401 610.9124 1320.5625)" class="st0" cx="1246.4" cy="225" rx="2.8" ry="2.8"/>
			</g>
			<g>
				<g>
					<path class="st0" d="M1238.8,93.3L1238.8,93.3c8.9-2.9,13.8-12.6,10.9-21.5v0c-2.9-8.9-12.6-13.8-21.5-10.9v0
						c-8.9,2.9-13.8,12.6-10.9,21.5v0C1220.3,91.3,1229.9,96.2,1238.8,93.3z"/>
					<g>
						<g>
							
								<ellipse transform="matrix(0.95 -0.3124 0.3124 0.95 14.457 387.9211)" class="st0" cx="1218" cy="148.8" rx="2.8" ry="2.8"/>
							
								<ellipse transform="matrix(0.95 -0.3124 0.3124 0.95 20.7253 384.4464)" class="st0" cx="1210.2" cy="127.5" rx="2.8" ry="2.8"/>
						</g>
						<g>
							
								<ellipse transform="matrix(0.95 -0.3124 0.3124 0.95 26.1661 409.1657)" class="st0" cx="1290.1" cy="122.9" rx="2.8" ry="2.8"/>
							
								<ellipse transform="matrix(0.95 -0.3124 0.3124 0.95 32.4318 405.6785)" class="st0" cx="1282.4" cy="101.6" rx="2.8" ry="2.8"/>
							
								<ellipse transform="matrix(0.95 -0.3124 0.3124 0.95 19.9005 412.653)" class="st0" cx="1297.9" cy="144.2" rx="2.8" ry="2.8"/>
						</g>
						<path class="st0" d="M1272.8,182.6l3.5-1.5c3.3-1.4,4.9-5.3,3.5-8.6l-4-9.4c-0.5-1.1,0-2.4,1.1-2.8c0,0,0,0,0,0l16.7-6.1
							l-23.7-65l-57.4,20.9l23.7,65l20-7.3c1.6-0.6,3.3,0.2,3.9,1.7c0.2,0.5,0.5,1,0.7,1.4l3.4,8.1
							C1265.6,182.5,1269.5,184,1272.8,182.6z"/>
						<g>
							
								<ellipse transform="matrix(0.95 -0.3124 0.3124 0.95 8.1914 391.4084)" class="st0" cx="1225.7" cy="170.1" rx="2.8" ry="2.8"/>
						</g>
					</g>
				</g>
				
					<ellipse transform="matrix(0.9404 -0.34 0.34 0.9404 20.9805 447.8954)" class="st0" cx="1288.5" cy="164.1" rx="2.8" ry="2.8"/>
				
					<ellipse transform="matrix(0.9404 -0.34 0.34 0.9404 13.1955 434.3115)" class="st0" cx="1245.8" cy="179.5" rx="2.8" ry="2.8"/>
			</g>
		</g>
		<circle class="st0" cx="1306" cy="202.2" r="17"/>
	</g>
	<circle class="st0" cx="1250.2" cy="203.5" r="4.3"/>
	<circle class="st0" cx="1217.5" cy="203.5" r="4.3"/>
</g>
<g>
	<g>
		<path class="st0" d="M1150.5,1052.6l-71.4-24.8c-5.9-2.1-10.1,5.8-5.2,9.6c12.8,9.8,29.4,20,48.2,29.2c18,8.8,35.4,15.3,50.7,19.4
			c6.8,1.8,13.6,2.8,20.1,5.3c2.9,1.1,6.1,1.5,9.3,1.5c2.9,0,5.6-0.3,8.2-1.2c6.8-2.3,13.7-3.5,20.7-5.4
			c15.2-4.1,32.8-10.7,50.8-19.5c19.8-9.6,37.2-20.4,50.3-30.8c4.9-3.9,0.7-11.6-5.2-9.6l-73.7,25.5c-2,0.7-4.2-0.4-4.9-2.3
			l-18.3-50.5c-0.7-2,0.3-4.2,2.3-5l67.1-24.8c5.8-2.1,4.2-11.6-1.9-10.7c-49.4,7.2-144.8,7.2-192.8,0.1c-6.1-0.9-7.7,8.5-1.9,10.7
			l68.4,25.3c2,0.7,3,3,2.3,5l-18.3,50.5C1154.8,1052.3,1152.6,1053.3,1150.5,1052.6z"/>
	</g>
	<circle class="st0" cx="1200.9" cy="1009.7" r="4.3"/>
	<circle class="st0" cx="1200.9" cy="977.1" r="4.3"/>
	<g>
		<g>
			
				<ellipse transform="matrix(0.3125 -0.9499 0.9499 0.3125 -139.3273 1763.6252)" class="st0" cx="1148.7" cy="978.1" rx="2.8" ry="2.8"/>
			
				<ellipse transform="matrix(0.3125 -0.9499 0.9499 0.3125 -146.6139 1738.0491)" class="st0" cx="1127.4" cy="970.3" rx="2.8" ry="2.8"/>
			
				<ellipse transform="matrix(0.3125 -0.9499 0.9499 0.3125 -132.0486 1789.1881)" class="st0" cx="1170" cy="985.8" rx="2.8" ry="2.8"/>
			
				<ellipse transform="matrix(0.3125 -0.9499 0.9499 0.3125 -225.701 1788.6055)" class="st0" cx="1122.8" cy="1050.2" rx="2.8" ry="2.8"/>
			
				<ellipse transform="matrix(0.3125 -0.9499 0.9499 0.3125 -232.9796 1763.0426)" class="st0" cx="1101.5" cy="1042.5" rx="2.8" ry="2.8"/>
			
				<ellipse transform="matrix(0.3125 -0.9499 0.9499 0.3125 -218.4224 1814.1683)" class="st0" cx="1144.1" cy="1058" rx="2.8" ry="2.8"/>
			
				<ellipse transform="matrix(0.3401 -0.9404 0.9404 0.3401 -218.0082 1786.4955)" class="st0" cx="1163.9" cy="1048.6" rx="2.8" ry="2.8"/>
			
				<ellipse transform="matrix(0.3401 -0.9404 0.9404 0.3401 -167.7206 1772.8564)" class="st0" cx="1179.4" cy="1005.9" rx="2.8" ry="2.8"/>
		</g>
		<g>
			
				<ellipse transform="matrix(0.95 -0.3124 0.3124 0.95 -242.5275 441.1129)" class="st0" cx="1255.5" cy="977.5" rx="2.8" ry="2.8"/>
			
				<ellipse transform="matrix(0.95 -0.3124 0.3124 0.95 -239.0457 447.3944)" class="st0" cx="1276.8" cy="969.8" rx="2.8" ry="2.8"/>
			
				<ellipse transform="matrix(0.95 -0.3124 0.3124 0.95 -263.7721 452.822)" class="st0" cx="1281.4" cy="1049.7" rx="2.8" ry="2.8"/>
			
				<ellipse transform="matrix(0.95 -0.3124 0.3124 0.95 -260.2849 459.0876)" class="st0" cx="1302.7" cy="1041.9" rx="2.8" ry="2.8"/>
			
				<ellipse transform="matrix(0.95 -0.3124 0.3124 0.95 -267.2593 446.5563)" class="st0" cx="1260.1" cy="1057.4" rx="2.8" ry="2.8"/>
			
				<ellipse transform="matrix(0.95 -0.3124 0.3124 0.95 -246.0147 434.8472)" class="st0" cx="1234.2" cy="985.3" rx="2.8" ry="2.8"/>
			
				<ellipse transform="matrix(0.9404 -0.34 0.34 0.9404 -282.4577 484.1613)" class="st0" cx="1240.3" cy="1048" rx="2.8" ry="2.8"/>
			
				<ellipse transform="matrix(0.9404 -0.34 0.34 0.9404 -268.8738 476.3763)" class="st0" cx="1224.8" cy="1005.4" rx="2.8" ry="2.8"/>
		</g>
		<circle class="st0" cx="1202.2" cy="1065.5" r="17"/>
	</g>
</g>
<g>
	<path class="st0" d="M935.3,648.4H822.1c-3.7,0-6.7,3-6.7,6.7v16c0,6.8-5.6,12.4-12.4,12.4h-23.6c-4.9,0-8.8,3.9-8.8,8.8v15.9
		c0,4.9,3.9,8.8,8.8,8.8H803c6.8,0,12.4,5.6,12.4,12.4v16.1c0,2.7,2.2,5,5,5h76.5c0-25.5,20.6-46.1,46.1-46.1v-48.3
		C943,651.9,939.5,648.4,935.3,648.4z"/>
	<circle class="st0" cx="780.2" cy="699.5" r="3.5"/>
	<g>
		<circle class="st0" cx="824.6" cy="659.1" r="3.5"/>
		<circle class="st0" cx="824.6" cy="739.8" r="3.5"/>
	</g>
	<rect x="833.6" y="683.5" class="st0" width="18.2" height="8.5"/>
	<rect x="870.1" y="683.5" class="st0" width="18.2" height="8.5"/>
	<rect x="906.5" y="683.5" class="st0" width="18.2" height="8.5"/>
</g>
<g>
	<path class="st0" d="M943.3,536.4H830.1c-3.7,0-6.7,3-6.7,6.7v16c0,6.8-5.6,12.4-12.4,12.4h-23.6c-4.9,0-8.8,3.9-8.8,8.8v15.9
		c0,4.9,3.9,8.8,8.8,8.8H811c6.8,0,12.4,5.6,12.4,12.4v16.1c0,2.7,2.2,5,5,5h76.5c0-25.5,20.6-46.1,46.1-46.1v-48.3
		C951,539.9,947.5,536.4,943.3,536.4z"/>
	<circle class="st0" cx="788.2" cy="587.5" r="3.5"/>
	<g>
		<circle class="st0" cx="832.6" cy="547.1" r="3.5"/>
		<circle class="st0" cx="832.6" cy="627.8" r="3.5"/>
	</g>
	<rect x="841.6" y="571.5" class="st0" width="18.2" height="8.5"/>
	<rect x="878.1" y="571.5" class="st0" width="18.2" height="8.5"/>
	<rect x="914.5" y="571.5" class="st0" width="18.2" height="8.5"/>
</g>
<g>
	<circle class="st0" cx="128.3" cy="998" r="8.5"/>
	<path class="st0" d="M61.5,1042.4v-8.5h26.7v8.5h26.7v-8.5h0h26.7h0v8.5h26.7v-8.5H195v8.5h26.7v-8.5c0-3.8-3.4-11.9-10.4-16.6
		c-4.1-2.6-15.5-2.5-22.3-2.8c-14.2,0-27.2-13.5-35.5-22.4c-2.4-2.5-4.3-4.9-5.7-7.1c-3.3-4.7-10.1-11.2-17.5-11.1
		c-0.7,0-1.4-0.1-2.1-0.1s-1.4,0.1-2.1,0.1c-6.4-0.1-13.1,6.6-16.5,11.1c-1.3,2.2-3.3,4.7-5.7,7.1c-8.2,9-21.3,22.4-35.5,22.4
		c-6.7,0.2-19.1,0.1-23.3,2.8c-7.1,4.7-10.4,12.8-10.4,16.6v8.5H61.5z"/>
</g>
<g>
	<circle class="st0" cx="263.7" cy="1020.2" r="8.5"/>
	<path class="st0" d="M330.4,974.8v8.5h-26.7v-8.5H277v8.5h0h-26.7h0v-8.5h-26.7v8.5h-26.7v-8.5h-26.7v8.5c0,3.8,3.4,11.9,10.4,16.6
		c4.1,2.6,15.5,2.5,22.3,2.8c14.2,0,27.2,13.5,35.5,22.4c2.4,2.5,4.3,4.9,5.7,7.1c3.3,4.7,10.1,11.2,17.5,11.1
		c0.7,0,1.4,0.1,2.1,0.1s1.4-0.1,2.1-0.1c6.4,0.1,13.1-6.6,16.5-11.1c1.3-2.2,3.3-4.7,5.7-7.1c8.2-9,21.3-22.4,35.5-22.4
		c6.7-0.2,19.1-0.1,23.3-2.8c7.1-4.7,10.4-12.8,10.4-16.6v-8.5H330.4z"/>
</g>
<g>
	<circle class="st0" cx="324.5" cy="716.2" r="17"/>
	<circle class="st0" cx="324.5" cy="716.2" r="4.3"/>
</g>
<g>
	<g>
		<polygon class="st0" points="339.6,491.8 348.1,491.8 348.1,465.4 348.1,438.7 339.6,438.7 		"/>
		<rect x="339.6" y="91.5" class="st0" width="8.5" height="54.1"/>
	</g>
	<g>
		<polygon class="st0" points="154.5,491.8 163,491.8 163,465.4 163,438.7 154.5,438.7 		"/>
		<rect x="154.5" y="91.4" class="st0" width="8.5" height="54.1"/>
	</g>
	<g>
		
			<rect x="313.3" y="56.3" transform="matrix(-1.836970e-16 1 -1 -1.836970e-16 378.98 -255.9731)" class="st0" width="8.4" height="10.3"/>
		
			<rect x="271.7" y="48.9" transform="matrix(-1.836970e-16 1 -1 -1.836970e-16 337.4359 -214.4347)" class="st0" width="8.4" height="25.2"/>
		
			<rect x="222.6" y="48.9" transform="matrix(-1.836970e-16 1 -1 -1.836970e-16 288.3096 -165.3127)" class="st0" width="8.4" height="25.2"/>
		
			<rect x="181.1" y="56.3" transform="matrix(-1.836970e-16 1 -1 -1.836970e-16 246.7725 -123.7673)" class="st0" width="8.4" height="10.3"/>
	</g>
	<path class="st0" d="M342.9,530.4l118.7-32.7l0.8-138.7V310h5.3V306h8.5v-8.5h-8.5V286h8.5v-8.5h-8.5v-3.9h-5.3l-0.3-193.6
		l-88.5-28c-20.9-2.4-42.4-5.7-63.5-5.7H190.9c-21.1,0-41.7,3.2-62.6,5.7l-88.9,28l-0.3,113.7v81h-4.6v3.9H26v8.5h8.5v11.5H26v8.5
		h8.5v3.9h4.6l0.4,186.7l120.9,32.7H342.9z"/>
	<g>
		<g>
			<g>
				<g>
					
						<ellipse transform="matrix(0.9873 -0.1589 0.1589 0.9873 -76.0457 66.4053)" class="st0" cx="377.3" cy="508.9" rx="2.8" ry="2.8"/>
					
						<ellipse transform="matrix(0.9873 -0.1589 0.1589 0.9873 -76.7417 63.5527)" class="st0" cx="359.2" cy="511.8" rx="2.8" ry="2.8"/>
				</g>
			</g>
			<g>
				<g>
					
						<ellipse transform="matrix(0.1589 -0.9873 0.9873 0.1589 -396.2861 552.6014)" class="st0" cx="126.2" cy="508.9" rx="2.8" ry="2.8"/>
					
						<ellipse transform="matrix(0.1589 -0.9873 0.9873 0.1589 -383.8744 573.0236)" class="st0" cx="144.4" cy="511.8" rx="2.8" ry="2.8"/>
				</g>
			</g>
		</g>
		<g>
			<g>
				<g>
					
						<ellipse transform="matrix(0.1589 -0.9873 0.9873 0.1589 252.7149 431.2134)" class="st0" cx="379.4" cy="67.3" rx="2.8" ry="2.8"/>
					
						<ellipse transform="matrix(0.1589 -0.9873 0.9873 0.1589 240.3032 410.7912)" class="st0" cx="361.2" cy="64.4" rx="2.8" ry="2.8"/>
				</g>
			</g>
			<g>
				<g>
					
						<ellipse transform="matrix(0.9873 -0.1589 0.1589 0.9873 -9.1305 20.3632)" class="st0" cx="122.8" cy="67.3" rx="2.8" ry="2.8"/>
					
						<ellipse transform="matrix(0.9873 -0.1589 0.1589 0.9873 -8.4345 23.2158)" class="st0" cx="141" cy="64.4" rx="2.8" ry="2.8"/>
				</g>
			</g>
		</g>
	</g>
	<g>
		<circle class="st0" cx="353.5" cy="289.8" r="4.3"/>
		<circle class="st0" cx="148.1" cy="294.1" r="4.3"/>
	</g>
	<path class="st0" d="M331.6,89.1v236.5c0,3.1-2.5,5.7-5.7,5.7H176.6c-3.1,0-5.7-2.5-5.7-5.7V89.1c0-6.1,4.9-11,11-11h138.8
		C326.7,78.1,331.6,83,331.6,89.1z"/>
	<path class="st0" d="M292.3,414.9v75.9c0,6.6-5.4,12-12,12h-58c-6.6,0-12-5.4-12-12v-75.9c0-6.6,5.4-12,12-12h58
		C286.9,402.9,292.3,408.3,292.3,414.9z"/>
	<g>
		<circle class="st0" cx="378" cy="144.9" r="4.3"/>
		<circle class="st0" cx="377.4" cy="102.2" r="4.3"/>
		<circle class="st0" cx="438.6" cy="102.2" r="4.3"/>
		<circle class="st0" cx="438.6" cy="145.4" r="4.3"/>
	</g>
	<g>
		<ellipse class="st0" cx="403" cy="433.1" rx="10.3" ry="25.9"/>
		<ellipse class="st0" cx="407.2" cy="169.1" rx="17.9" ry="14.2"/>
	</g>
	<g>
		<ellipse class="st0" cx="99.1" cy="435.8" rx="10.3" ry="25.9"/>
		<ellipse class="st0" cx="93.1" cy="165.1" rx="18.9" ry="14.2"/>
	</g>
	<g>
		<g>
			<g>
				<g>
					<g>
						<circle class="st0" cx="334.9" cy="516.8" r="4.3"/>
						<circle class="st0" cx="167.7" cy="516.8" r="4.3"/>
						<circle class="st0" cx="336.9" cy="68.9" r="4.3"/>
						<circle class="st0" cx="165.7" cy="68.9" r="4.3"/>
					</g>
				</g>
			</g>
		</g>
	</g>
	<g>
		<g>
			
				<rect x="375.9" y="207.1" transform="matrix(4.772100e-11 -1 1 4.772100e-11 177.8569 600.5527)" class="st0" width="26.7" height="8.5"/>
			
				<rect x="375.9" y="313.7" transform="matrix(4.765261e-11 -1 1 4.765261e-11 71.2669 707.1427)" class="st0" width="26.7" height="8.5"/>
			
				<rect x="375.9" y="260.3" transform="matrix(4.782314e-11 -1 1 4.782314e-11 124.6692 653.7404)" class="st0" width="26.7" height="8.5"/>
			
				<rect x="375.9" y="367.1" transform="matrix(4.782314e-11 -1 1 4.782314e-11 17.8645 760.545)" class="st0" width="26.7" height="8.5"/>
		</g>
		<g>
			
				<rect x="395.7" y="207.1" transform="matrix(4.785689e-11 -1 1 4.785689e-11 197.6697 620.3655)" class="st0" width="26.7" height="8.5"/>
			
				<rect x="395.7" y="313.7" transform="matrix(4.768636e-11 -1 1 4.768636e-11 91.0797 726.9555)" class="st0" width="26.7" height="8.5"/>
			
				<rect x="395.7" y="260.3" transform="matrix(4.782314e-11 -1 1 4.782314e-11 144.482 673.5532)" class="st0" width="26.7" height="8.5"/>
			
				<rect x="395.7" y="367.1" transform="matrix(4.778939e-11 -1 1 4.778939e-11 37.6773 780.3578)" class="st0" width="26.7" height="8.5"/>
		</g>
		<g>
			
				<rect x="415.5" y="207.1" transform="matrix(4.768636e-11 -1 1 4.768636e-11 217.4825 640.1783)" class="st0" width="26.7" height="8.5"/>
			
				<rect x="415.5" y="313.7" transform="matrix(4.768636e-11 -1 1 4.768636e-11 110.8925 746.7683)" class="st0" width="26.7" height="8.5"/>
			
				<rect x="415.5" y="260.3" transform="matrix(4.782314e-11 -1 1 4.782314e-11 164.2948 693.366)" class="st0" width="26.7" height="8.5"/>
			
				<rect x="415.5" y="367.1" transform="matrix(4.782314e-11 -1 1 4.782314e-11 57.4901 800.1707)" class="st0" width="26.7" height="8.5"/>
		</g>
		<g>
			
				<rect x="435.3" y="207.1" transform="matrix(4.772100e-11 -1 1 4.772100e-11 237.2953 659.9911)" class="st0" width="26.7" height="8.5"/>
			
				<rect x="435.3" y="313.7" transform="matrix(4.768636e-11 -1 1 4.768636e-11 130.7053 766.5811)" class="st0" width="26.7" height="8.5"/>
			
				<rect x="435.3" y="260.3" transform="matrix(4.775475e-11 -1 1 4.775475e-11 184.1076 713.1788)" class="st0" width="26.7" height="8.5"/>
			
				<rect x="435.3" y="367.1" transform="matrix(4.782314e-11 -1 1 4.782314e-11 77.3029 819.9835)" class="st0" width="26.7" height="8.5"/>
		</g>
		<g>
			
				<rect x="356" y="206.9" transform="matrix(4.772100e-11 -1 1 4.772100e-11 158.197 580.587)" class="st0" width="26.7" height="8.5"/>
			
				<rect x="356" y="313.5" transform="matrix(4.768636e-11 -1 1 4.768636e-11 51.607 687.1771)" class="st0" width="26.7" height="8.5"/>
			
				<rect x="356" y="260.1" transform="matrix(4.775475e-11 -1 1 4.775475e-11 105.0093 633.7747)" class="st0" width="26.7" height="8.5"/>
			
				<rect x="356" y="366.9" transform="matrix(4.782314e-11 -1 1 4.782314e-11 -1.7954 740.5794)" class="st0" width="26.7" height="8.5"/>
		</g>
	</g>
	<g>
		<g>
			
				<rect x="99.5" y="368.5" transform="matrix(-4.768648e-11 1 -1 -4.768648e-11 485.6319 259.9026)" class="st0" width="26.7" height="8.5"/>
			
				<rect x="99.5" y="261.9" transform="matrix(-4.768648e-11 1 -1 -4.768648e-11 379.0418 153.3126)" class="st0" width="26.7" height="8.5"/>
			
				<rect x="99.5" y="315.3" transform="matrix(-4.782326e-11 1 -1 -4.782326e-11 432.4442 206.7149)" class="st0" width="26.7" height="8.5"/>
			
				<rect x="99.5" y="208.5" transform="matrix(-4.782326e-11 1 -1 -4.782326e-11 325.6395 99.9103)" class="st0" width="26.7" height="8.5"/>
		</g>
		<g>
			
				<rect x="79.7" y="368.5" transform="matrix(-4.782326e-11 1 -1 -4.782326e-11 465.8191 279.7154)" class="st0" width="26.7" height="8.5"/>
			
				<rect x="79.7" y="261.9" transform="matrix(-4.772112e-11 1 -1 -4.772112e-11 359.229 173.1254)" class="st0" width="26.7" height="8.5"/>
			
				<rect x="79.7" y="315.3" transform="matrix(-4.795915e-11 1 -1 -4.795915e-11 412.6314 226.5277)" class="st0" width="26.7" height="8.5"/>
			
				<rect x="79.7" y="208.5" transform="matrix(-4.782326e-11 1 -1 -4.782326e-11 305.8267 119.7231)" class="st0" width="26.7" height="8.5"/>
		</g>
		<g>
			
				<rect x="59.9" y="368.5" transform="matrix(-4.768648e-11 1 -1 -4.768648e-11 446.0063 299.5282)" class="st0" width="26.7" height="8.5"/>
			
				<rect x="59.9" y="261.9" transform="matrix(-4.768648e-11 1 -1 -4.768648e-11 339.4163 192.9382)" class="st0" width="26.7" height="8.5"/>
			
				<rect x="59.9" y="315.3" transform="matrix(-4.782326e-11 1 -1 -4.782326e-11 392.8186 246.3405)" class="st0" width="26.7" height="8.5"/>
			
				<rect x="59.9" y="208.5" transform="matrix(-4.785701e-11 1 -1 -4.785701e-11 286.0139 139.5359)" class="st0" width="26.7" height="8.5"/>
		</g>
		<g>
			
				<rect x="40.1" y="368.5" transform="matrix(-4.768648e-11 1 -1 -4.768648e-11 426.1935 319.341)" class="st0" width="26.7" height="8.5"/>
			
				<rect x="40.1" y="261.9" transform="matrix(-4.768648e-11 1 -1 -4.768648e-11 319.6035 212.751)" class="st0" width="26.7" height="8.5"/>
			
				<rect x="40.1" y="315.3" transform="matrix(-4.782326e-11 1 -1 -4.782326e-11 373.0058 266.1533)" class="st0" width="26.7" height="8.5"/>
			
				<rect x="40.1" y="208.5" transform="matrix(-4.782326e-11 1 -1 -4.782326e-11 266.2011 159.3486)" class="st0" width="26.7" height="8.5"/>
		</g>
		<g>
			
				<rect x="119.3" y="368.7" transform="matrix(-4.768648e-11 1 -1 -4.768648e-11 505.5975 240.2427)" class="st0" width="26.7" height="8.5"/>
			
				<rect x="119.3" y="262.1" transform="matrix(-4.768648e-11 1 -1 -4.768648e-11 399.0075 133.6527)" class="st0" width="26.7" height="8.5"/>
			
				<rect x="119.3" y="315.5" transform="matrix(-4.785701e-11 1 -1 -4.785701e-11 452.4098 187.055)" class="st0" width="26.7" height="8.5"/>
			
				<rect x="119.3" y="208.7" transform="matrix(-4.795915e-11 1 -1 -4.795915e-11 345.6052 80.2504)" class="st0" width="26.7" height="8.5"/>
		</g>
	</g>
	<g>
		<g>
			<g>
				<circle class="st2" cx="358.2" cy="181.3" r="4.3"/>
				<circle class="st2" cx="143.3" cy="181.3" r="4.3"/>
			</g>
		</g>
		<g>
			<circle class="st2" cx="173.3" cy="397" r="4.3"/>
			<circle class="st2" cx="328.3" cy="397" r="4.3"/>
		</g>
	</g>
	<g>
		<circle class="st0" cx="404.8" cy="74.8" r="4.3"/>
		<circle class="st0" cx="99.8" cy="72.8" r="4.3"/>
		<circle class="st0" cx="404.8" cy="504.8" r="4.3"/>
		<circle class="st0" cx="99.8" cy="502.8" r="4.3"/>
	</g>
</g>
<g>
	<path class="st0" d="M1085.3,744.3L1085.3,744.3c0-4.7-3.8-8.5-8.5-8.5l0,0c-4.7,0-8.5,3.8-8.5,8.5l0,0c0,4.7,3.8,8.5,8.5,8.5l0,0
		C1081.5,752.8,1085.3,749,1085.3,744.3z"/>
	<path class="st0" d="M1076.8,713.2L1076.8,713.2c-17.1,0-31.2,14-31.2,31.2v0c0,17.1,14,31.2,31.2,31.2l0,0
		c17.1,0,31.2-14,31.2-31.2v0C1108,727.2,1094,713.2,1076.8,713.2z"/>
	<circle class="st0" cx="1076.8" cy="767" r="2.8"/>
	<circle class="st0" cx="1076.5" cy="721.7" r="2.8"/>
	<circle class="st0" cx="1099.5" cy="744.3" r="2.8"/>
	<circle class="st0" cx="1054.1" cy="744.3" r="2.8"/>
</g>
<g>
	<path class="st0" d="M259.6,443.8L259.6,443.8c0-4.7-3.8-8.5-8.5-8.5h0c-4.7,0-8.5,3.8-8.5,8.5l0,0c0,4.7,3.8,8.5,8.5,8.5h0
		C255.8,452.3,259.6,448.5,259.6,443.8z"/>
	<path class="st0" d="M251.1,412.7L251.1,412.7c-17.1,0-31.2,14-31.2,31.2v0c0,17.1,14,31.2,31.2,31.2h0c17.1,0,31.2-14,31.2-31.2v0
		C282.3,426.7,268.3,412.7,251.1,412.7z"/>
	<circle class="st0" cx="251.1" cy="466.5" r="2.8"/>
	<circle class="st0" cx="250.8" cy="421.2" r="2.8"/>
	<circle class="st0" cx="273.8" cy="443.8" r="2.8"/>
	<circle class="st0" cx="228.5" cy="443.8" r="2.8"/>
</g>
<g>
	<path class="st0" d="M1073.5,81.7L1073.5,81.7c4.7,0,8.5-3.8,8.5-8.5v0c0-4.7-3.8-8.5-8.5-8.5l0,0c-4.7,0-8.5,3.8-8.5,8.5v0
		C1065,77.9,1068.8,81.7,1073.5,81.7z"/>
	<path class="st0" d="M1104.6,73.2L1104.6,73.2c0-17.1-14-31.2-31.2-31.2h0c-17.1,0-31.2,14-31.2,31.2v0c0,17.1,14,31.2,31.2,31.2h0
		C1090.6,104.4,1104.6,90.3,1104.6,73.2z"/>
	<circle class="st0" cx="1050.8" cy="73.2" r="2.8"/>
	<circle class="st0" cx="1096.1" cy="72.9" r="2.8"/>
	<circle class="st0" cx="1073.5" cy="95.9" r="2.8"/>
	<circle class="st0" cx="1073.5" cy="50.5" r="2.8"/>
</g>
<g>
	<path class="st0" d="M1073.8,152.8L1073.8,152.8c4.7,0,8.5-3.8,8.5-8.5v0c0-4.7-3.8-8.5-8.5-8.5l0,0c-4.7,0-8.5,3.8-8.5,8.5v0
		C1065.3,149,1069.1,152.8,1073.8,152.8z"/>
	<path class="st0" d="M1105,144.3L1105,144.3c0-17.1-14-31.2-31.2-31.2h0c-17.1,0-31.2,14-31.2,31.2v0c0,17.1,14,31.2,31.2,31.2h0
		C1090.9,175.4,1105,161.4,1105,144.3z"/>
	<circle class="st0" cx="1051.1" cy="144.3" r="2.8"/>
	<circle class="st0" cx="1096.5" cy="144" r="2.8"/>
	<circle class="st0" cx="1073.8" cy="166.9" r="2.8"/>
	<circle class="st0" cx="1073.8" cy="121.6" r="2.8"/>
</g>
<g>
	<path class="st0" d="M1141.6,153.5L1141.6,153.5c4.7,0,8.5-3.8,8.5-8.5v0c0-4.7-3.8-8.5-8.5-8.5l0,0c-4.7,0-8.5,3.8-8.5,8.5v0
		C1133.1,149.7,1136.9,153.5,1141.6,153.5z"/>
	<path class="st0" d="M1172.8,145L1172.8,145c0-17.1-14-31.2-31.2-31.2h0c-17.1,0-31.2,14-31.2,31.2v0c0,17.1,14,31.2,31.2,31.2h0
		C1158.7,176.1,1172.8,162.1,1172.8,145z"/>
	<circle class="st0" cx="1118.9" cy="145" r="2.8"/>
	<circle class="st0" cx="1164.3" cy="144.7" r="2.8"/>
	<circle class="st0" cx="1141.6" cy="167.6" r="2.8"/>
	<circle class="st0" cx="1141.6" cy="122.3" r="2.8"/>
</g>
<g>
	<path class="st0" d="M1008.1,475L1008.1,475c4.7,0,8.5-3.8,8.5-8.5v0c0-4.7-3.8-8.5-8.5-8.5h0c-4.7,0-8.5,3.8-8.5,8.5v0
		C999.6,471.2,1003.4,475,1008.1,475z"/>
	<path class="st0" d="M1039.3,466.5L1039.3,466.5c0-17.1-14-31.2-31.2-31.2h0c-17.1,0-31.2,14-31.2,31.2v0c0,17.1,14,31.2,31.2,31.2
		h0C1025.3,497.7,1039.3,483.7,1039.3,466.5z"/>
	<circle class="st0" cx="985.5" cy="466.5" r="2.8"/>
	<circle class="st0" cx="1030.8" cy="466.2" r="2.8"/>
	<circle class="st0" cx="1008.1" cy="489.2" r="2.8"/>
	<circle class="st0" cx="1008.1" cy="443.8" r="2.8"/>
</g>
<g>
	<path class="st0" d="M1156.9,73.8L1156.9,73.8c0-4.7-3.8-8.5-8.5-8.5l0,0c-4.7,0-8.5,3.8-8.5,8.5v0c0,4.7,3.8,8.5,8.5,8.5l0,0
		C1153.1,82.3,1156.9,78.5,1156.9,73.8z"/>
	<path class="st0" d="M1148.4,42.6L1148.4,42.6c-17.1,0-31.2,14-31.2,31.2v0c0,17.1,14,31.2,31.2,31.2l0,0c17.1,0,31.2-14,31.2-31.2
		v0C1179.6,56.7,1165.5,42.6,1148.4,42.6z"/>
	<circle class="st0" cx="1148.4" cy="96.5" r="2.8"/>
	<circle class="st0" cx="1148.1" cy="51.1" r="2.8"/>
	<circle class="st0" cx="1171.1" cy="73.8" r="2.8"/>
	<circle class="st0" cx="1125.7" cy="73.8" r="2.8"/>
</g>
<g>
	<path class="st0" d="M777.1,765h113.2c3.7,0,6.7,3,6.7,6.7v16c0,6.8,5.6,12.4,12.4,12.4H933c4.9,0,8.8,3.9,8.8,8.8v15.9
		c0,4.9-3.9,8.8-8.8,8.8h-23.6c-6.8,0-12.4,5.6-12.4,12.4v16.1c0,2.7-2.2,5-5,5h-76.5c0-25.5-20.6-46.1-46.1-46.1v-48.3
		C769.5,768.4,772.9,765,777.1,765z"/>
	<circle class="st0" cx="932.2" cy="816" r="3.5"/>
	<g>
		<circle class="st0" cx="887.8" cy="775.6" r="3.5"/>
		<circle class="st0" cx="887.8" cy="856.4" r="3.5"/>
	</g>
	
		<rect x="860.6" y="800" transform="matrix(-1 -4.481938e-11 4.481938e-11 -1 1739.3597 1608.5815)" class="st0" width="18.2" height="8.5"/>
	
		<rect x="824.1" y="800" transform="matrix(-1 -4.491886e-11 4.491886e-11 -1 1666.4689 1608.5815)" class="st0" width="18.2" height="8.5"/>
	
		<rect x="787.7" y="800" transform="matrix(-1 -4.481938e-11 4.481938e-11 -1 1593.578 1608.5815)" class="st0" width="18.2" height="8.5"/>
</g>
<g>
	<path class="st0" d="M780.1,881h113.2c3.7,0,6.7,3,6.7,6.7v16c0,6.8,5.6,12.4,12.4,12.4H936c4.9,0,8.8,3.9,8.8,8.8v15.9
		c0,4.9-3.9,8.8-8.8,8.8h-23.6c-6.8,0-12.4,5.6-12.4,12.4v16.1c0,2.7-2.2,5-5,5h-76.5c0-25.5-20.6-46.1-46.1-46.1v-48.3
		C772.5,884.4,775.9,881,780.1,881z"/>
	<circle class="st0" cx="935.2" cy="932" r="3.5"/>
	<g>
		<circle class="st0" cx="890.8" cy="891.6" r="3.5"/>
		<circle class="st0" cx="890.8" cy="972.4" r="3.5"/>
	</g>
	
		<rect x="863.6" y="916" transform="matrix(-1 -4.481938e-11 4.481938e-11 -1 1745.3597 1840.5815)" class="st0" width="18.2" height="8.5"/>
	
		<rect x="827.1" y="916" transform="matrix(-1 -4.491886e-11 4.491886e-11 -1 1672.4689 1840.5815)" class="st0" width="18.2" height="8.5"/>
	
		<rect x="790.7" y="916" transform="matrix(-1 -4.481938e-11 4.481938e-11 -1 1599.578 1840.5815)" class="st0" width="18.2" height="8.5"/>
</g>
<g>
	
		<rect x="1047.8" y="808.7" transform="matrix(-1 -1.224647e-16 1.224647e-16 -1 2104.0366 1804.1002)" class="st0" width="8.5" height="186.7"/>
	
		<rect x="1028" y="808.7" transform="matrix(-1 -1.224647e-16 1.224647e-16 -1 2064.4111 1804.1002)" class="st0" width="8.5" height="186.7"/>
	
		<rect x="1008.1" y="808.7" transform="matrix(-1 -1.224647e-16 1.224647e-16 -1 2024.7855 1804.1002)" class="st0" width="8.5" height="186.7"/>
	
		<rect x="988.3" y="808.7" transform="matrix(-1 -1.224647e-16 1.224647e-16 -1 1985.1599 1804.1002)" class="st0" width="8.5" height="186.7"/>
	
		<rect x="968.5" y="808.6" transform="matrix(-1 -1.224647e-16 1.224647e-16 -1 1945.5343 1803.7946)" class="st0" width="8.5" height="186.7"/>
	<path class="st0" d="M1146,1020.5v-29.6h-37.1c-16,0-29-13-29-29V839.4c0-16,13-29,29-29h37.1v-29.6l-198.3-0.1v240.1L1146,1020.5z
		"/>
</g>
<g>
	<path class="st0" d="M225.6,119L225.6,119c0-4.7-3.8-8.5-8.5-8.5h0c-4.7,0-8.5,3.8-8.5,8.5v0c0,4.7,3.8,8.5,8.5,8.5h0
		C221.8,127.5,225.6,123.7,225.6,119z"/>
	<path class="st0" d="M217.1,87.8L217.1,87.8c-17.1,0-31.2,14-31.2,31.2v0c0,17.1,14,31.2,31.2,31.2h0c17.1,0,31.2-14,31.2-31.2v0
		C248.3,101.8,234.3,87.8,217.1,87.8z"/>
	<circle class="st0" cx="217.1" cy="141.7" r="2.8"/>
	<circle class="st0" cx="216.8" cy="96.3" r="2.8"/>
	<circle class="st0" cx="239.8" cy="119" r="2.8"/>
	<circle class="st0" cx="194.5" cy="119" r="2.8"/>
</g>
<g>
	<path class="st0" d="M293.9,118.5L293.9,118.5c0-4.7-3.8-8.5-8.5-8.5h0c-4.7,0-8.5,3.8-8.5,8.5v0c0,4.7,3.8,8.5,8.5,8.5h0
		C290.1,127,293.9,123.2,293.9,118.5z"/>
	<path class="st0" d="M285.4,87.3L285.4,87.3c-17.1,0-31.2,14-31.2,31.2v0c0,17.1,14,31.2,31.2,31.2h0c17.1,0,31.2-14,31.2-31.2v0
		C316.6,101.4,302.5,87.3,285.4,87.3z"/>
	<circle class="st0" cx="285.4" cy="141.2" r="2.8"/>
	<circle class="st0" cx="285.1" cy="95.8" r="2.8"/>
	<circle class="st0" cx="308.1" cy="118.5" r="2.8"/>
	<circle class="st0" cx="262.7" cy="118.5" r="2.8"/>
</g>
<g>
	<path class="st0" d="M225.6,189L225.6,189c0-4.7-3.8-8.5-8.5-8.5h0c-4.7,0-8.5,3.8-8.5,8.5v0c0,4.7,3.8,8.5,8.5,8.5h0
		C221.8,197.5,225.6,193.7,225.6,189z"/>
	<path class="st0" d="M217.1,157.8L217.1,157.8c-17.1,0-31.2,14-31.2,31.2v0c0,17.1,14,31.2,31.2,31.2h0c17.1,0,31.2-14,31.2-31.2v0
		C248.3,171.8,234.3,157.8,217.1,157.8z"/>
	<circle class="st0" cx="217.1" cy="211.7" r="2.8"/>
	<circle class="st0" cx="216.8" cy="166.3" r="2.8"/>
	<circle class="st0" cx="239.8" cy="189" r="2.8"/>
	<circle class="st0" cx="194.5" cy="189" r="2.8"/>
</g>
<g>
	<path class="st0" d="M293.9,188.5L293.9,188.5c0-4.7-3.8-8.5-8.5-8.5h0c-4.7,0-8.5,3.8-8.5,8.5v0c0,4.7,3.8,8.5,8.5,8.5h0
		C290.1,197,293.9,193.2,293.9,188.5z"/>
	<path class="st0" d="M285.4,157.3L285.4,157.3c-17.1,0-31.2,14-31.2,31.2v0c0,17.1,14,31.2,31.2,31.2h0c17.1,0,31.2-14,31.2-31.2v0
		C316.6,171.4,302.5,157.3,285.4,157.3z"/>
	<circle class="st0" cx="285.4" cy="211.2" r="2.8"/>
	<circle class="st0" cx="285.1" cy="165.8" r="2.8"/>
	<circle class="st0" cx="308.1" cy="188.5" r="2.8"/>
	<circle class="st0" cx="262.7" cy="188.5" r="2.8"/>
</g>
<g>
	<path class="st0" d="M225.6,259L225.6,259c0-4.7-3.8-8.5-8.5-8.5h0c-4.7,0-8.5,3.8-8.5,8.5v0c0,4.7,3.8,8.5,8.5,8.5h0
		C221.8,267.5,225.6,263.7,225.6,259z"/>
	<path class="st0" d="M217.1,227.8L217.1,227.8c-17.1,0-31.2,14-31.2,31.2v0c0,17.1,14,31.2,31.2,31.2h0c17.1,0,31.2-14,31.2-31.2v0
		C248.3,241.8,234.3,227.8,217.1,227.8z"/>
	<circle class="st0" cx="217.1" cy="281.7" r="2.8"/>
	<circle class="st0" cx="216.8" cy="236.3" r="2.8"/>
	<circle class="st0" cx="239.8" cy="259" r="2.8"/>
	<circle class="st0" cx="194.5" cy="259" r="2.8"/>
</g>
<g>
	<path class="st0" d="M293.9,258.5L293.9,258.5c0-4.7-3.8-8.5-8.5-8.5h0c-4.7,0-8.5,3.8-8.5,8.5v0c0,4.7,3.8,8.5,8.5,8.5h0
		C290.1,267,293.9,263.2,293.9,258.5z"/>
	<path class="st0" d="M285.4,227.3L285.4,227.3c-17.1,0-31.2,14-31.2,31.2v0c0,17.1,14,31.2,31.2,31.2h0c17.1,0,31.2-14,31.2-31.2v0
		C316.6,241.4,302.5,227.3,285.4,227.3z"/>
	<circle class="st0" cx="285.4" cy="281.2" r="2.8"/>
	<circle class="st0" cx="285.1" cy="235.8" r="2.8"/>
	<circle class="st0" cx="308.1" cy="258.5" r="2.8"/>
	<circle class="st0" cx="262.7" cy="258.5" r="2.8"/>
</g>
<path class="st0" d="M877.4,212.3h-56.7h-0.1V204h-16.9v8.2h-0.1H697.3c-2.4,0-4.4,2-4.4,4.4v0c0,2.4-2,4.4-4.4,4.4H679h-0.2h-9.4
	c-2.4,0-4.4-2-4.4-4.4v0c0-2.4-2-4.4-4.4-4.4H554.2h-0.1V204h-16.9v8.2h-0.1h-56.7l0.1,52.5v8.5h56.5v-8.5h0.1h56.5h0.1v8.5h56.5
	v-8.5h0.1h56.5h0.1v8.5h56.5v-8.5h0.1h56.5h0.1v8.5h56.5v-8.5L877.4,212.3z"/>
<path class="st0" d="M879.5,464.6h-56.7h-0.1v-8.2h-16.9v8.2h-0.1H699.4c-2.4,0-4.4,2-4.4,4.4v0c0,2.4-2,4.4-4.4,4.4h-9.4h-0.2h-9.4
	c-2.4,0-4.4-2-4.4-4.4v0c0-2.4-2-4.4-4.4-4.4H556.3h-0.1v-8.2h-16.9v8.2h-0.1h-56.7l0.1,52.5v8.5h56.5v-8.5h0.1h56.5h0.1v8.5h56.5
	v-8.5h0.1h56.5h0.1v8.5H766v-8.5h0.1h56.5h0.1v8.5h56.5v-8.5L879.5,464.6z"/>
<g>
	<g>
		<g>
			<path class="st2" d="M1007.7,661.2v-57c0-1.7-1.4-3.1-3.1-3.1h-14.8c-1.7,0-3.1,1.4-3.1,3.1v57c0,1.6,1.3,2.9,2.9,2.9h15.2
				C1006.4,664.1,1007.7,662.8,1007.7,661.2z"/>
			<path class="st2" d="M1146.4,690.6v-3.4c0-1.6-1.3-2.8-2.8-2.8h-3.4c-1.6,0-2.8,1.3-2.8,2.8v3.4c0,1.6,1.3,2.8,2.8,2.8h3.4
				C1145.2,693.4,1146.4,692.1,1146.4,690.6z"/>
			<path class="st0" d="M1022.3,771.2l-54.8-7.3c-6.6,0-12-5.4-12-12l-0.8-24.3h8.8v-18h-8.8v-18.2h8.8v-4.5v-13.8h-8.8v-18.2h8.8
				v-18.2h-8.8v-18.2h8.8v-63.3h-8.8c0-9,0-18.6,0.4-21.4c0.7-5.7,5.3-10.8,11-11c13.1-0.4,29-10.5,63.2-10.5c2.5,0,5.1,0,7.7,0
				c3.9,0,7.6,1.6,10.3,4.3c7.2,7.1,17,11.5,27.9,11.5c11.1,0,21.1-4.5,28.3-11.9c2.5-2.5,5.9-3.9,9.4-3.9c3.2,0,6.3,0,9.3,0
				c33.7,0.1,49,10.1,62.1,10.5c5.7,0.2,10.3,5.3,11,11c0.4,2.8,0.1,12.4,0.1,21.4h-8.5l-0.2,63.3h8.5v18.2h-8.5l0,18.2h8.6v18.2
				h-8.6l0,18.2h8.6v18.2h-8.7l0,18h9l0,24.3c0,6.6-5.4,12-12,12l-55.4,6.3c-2.5,0-4.5-2-4.5-4.5v-5c0-11.6-4.4-22.3-11.6-30.3
				c-11.5-12.8-18.3-29.2-18.3-46.4v-1.2c0-1-0.8-1.9-1.9-1.9h-33c-1.4,0-2.6,1.2-2.6,2.6v0.2c0,18-9.3,35.3-20.2,49.7
				c-5.3,7.1-8.5,13.5-9.1,29.5c0.1,1.1,0.1,2.4-0.1,3.6c0,0.1,0,0.2,0,0.3v-0.2C1026.5,768.9,1025.4,771.2,1022.3,771.2z"/>
		</g>
		<g>
			<g>
				<circle class="st0" cx="1041.2" cy="522.2" r="4.3"/>
			</g>
			<g>
				<circle class="st0" cx="1109.2" cy="522.2" r="4.3"/>
			</g>
		</g>
		<g>
			<g>
				<g>
					<circle class="st0" cx="1018.6" cy="751.6" r="3.5"/>
					<circle class="st0" cx="1132" cy="751.6" r="3.5"/>
				</g>
			</g>
			<circle class="st0" cx="995.9" cy="553.1" r="3.5"/>
			<circle class="st0" cx="1154.6" cy="553.1" r="3.5"/>
		</g>
		<g>
			<g>
				<g>
					<circle class="st2" cx="967.7" cy="539.3" r="4.3"/>
					<circle class="st2" cx="1182.6" cy="539.3" r="4.3"/>
				</g>
			</g>
			<g>
				<circle class="st2" cx="1152.7" cy="755" r="4.3"/>
				<circle class="st2" cx="997.7" cy="755" r="4.3"/>
			</g>
		</g>
	</g>
</g>
<g>
	<polygon class="st0" points="532.6,318.5 825.7,318.5 825.7,309.9 879.8,309.9 879.8,457.6 826.2,457.6 826.2,449.1 799.5,449.1 
		799.5,457.6 772.8,457.6 772.8,449.1 746.6,449.1 746.6,457.6 719.9,457.6 719.9,449.1 693.2,449.1 693.2,457.6 666.5,457.6 
		666.5,449.1 639.8,449.1 639.8,457.6 613.1,457.6 613.1,449.1 586.5,449.1 586.5,457.6 559.8,457.6 559.8,449 533.1,449 
		533.1,457.6 479.5,457.6 479.5,309.9 532.6,309.9 	"/>
	<path class="st0" d="M513.5,367.5h9.6c6.5,0,11.8-5.3,11.8-11.8v-9.6c0-6.5-5.3-11.8-11.8-11.8h-9.6c-6.5,0-11.8,5.3-11.8,11.8v9.6
		C501.8,362.3,507,367.5,513.5,367.5z"/>
	<g>
		
			<rect x="808.4" y="378.9" transform="matrix(4.252538e-13 1 -1 4.252538e-13 1204.9581 -420.4513)" class="st0" width="8.6" height="26.7"/>
		
			<rect x="755.3" y="379.1" transform="matrix(2.120910e-13 1 -1 2.120910e-13 1151.8002 -367.2933)" class="st0" width="8.6" height="26.2"/>
		
			<rect x="702.1" y="378.9" transform="matrix(2.120910e-13 1 -1 2.120910e-13 1098.6421 -314.1353)" class="st0" width="8.6" height="26.7"/>
		
			<rect x="648.7" y="378.9" transform="matrix(2.120910e-13 1 -1 2.120910e-13 1045.2399 -260.7331)" class="st0" width="8.6" height="26.7"/>
		
			<rect x="595.4" y="378.9" transform="matrix(2.120910e-13 1 -1 2.120910e-13 991.8824 -207.3756)" class="st0" width="8.6" height="26.6"/>
		
			<rect x="542" y="378.9" transform="matrix(2.120910e-13 1 -1 2.120910e-13 938.525 -154.0181)" class="st0" width="8.6" height="26.7"/>
	</g>
</g>
<rect x="22.9" y="27.2" class="st0" width="1332.3" height="1077.2"/>
</svg>
