<?xml version="1.0" encoding="utf-8"?>
<!-- Generator: Adobe Illustrator 21.0.0, SVG Export Plug-In . SVG Version: 6.00 Build 0)  -->
<svg version="1.1" id="Layer_1" xmlns="http://www.w3.org/2000/svg" xmlns:xlink="http://www.w3.org/1999/xlink" x="0px" y="0px"
	 viewBox="0 0 1700.8 1133.9" style="enable-background:new 0 0 1700.8 1133.9;" xml:space="preserve">
<style type="text/css">
	.st0{fill:none;stroke:#ED2224;stroke-width:0.5669;stroke-miterlimit:10;}
	.st1{fill:none;stroke:#ED1C24;stroke-width:0.5669;stroke-miterlimit:10;}
	.st2{fill:none;stroke:#EE3034;stroke-width:0.5669;stroke-miterlimit:10;}
	.st3{fill:#FFFFFF;stroke:#ED1C24;stroke-miterlimit:10;}
</style>
<g>
	<g>
		<g>
			<g>
				<g>
					<ellipse class="st0" cx="749.4" cy="729.4" rx="16.4" ry="16.9"/>
					<ellipse class="st0" cx="720.2" cy="681.2" rx="4.1" ry="4.3"/>
					<ellipse class="st0" cx="720.5" cy="777.4" rx="4.1" ry="4.3"/>
				</g>
			</g>
		</g>
		<g>
			<g>
				<path class="st0" d="M677.8,883.2L677.8,883.2c8.9,2.9,13.8,12.6,10.8,21.5v0c-2.9,8.9-12.6,13.8-21.5,10.8v0
					c-8.9-2.9-13.8-12.6-10.8-21.5l0,0C659.2,885.2,668.9,880.3,677.8,883.2z"/>
				<g>
					<g>
						
							<ellipse transform="matrix(0.3124 -0.9499 0.9499 0.3124 -331.3128 1193.6724)" class="st0" cx="658.9" cy="825.7" rx="2.8" ry="2.8"/>
						
							<ellipse transform="matrix(0.3124 -0.9499 0.9499 0.3124 -356.8797 1200.9424)" class="st0" cx="651.2" cy="847" rx="2.8" ry="2.8"/>
						
							<ellipse transform="matrix(0.3124 -0.9499 0.9499 0.3124 -382.4392 1208.2335)" class="st0" cx="643.4" cy="868.3" rx="2.8" ry="2.8"/>
					</g>
					<g>
						
							<ellipse transform="matrix(0.3124 -0.9499 0.9499 0.3124 -306.3259 1280.0471)" class="st0" cx="731.1" cy="851.6" rx="2.8" ry="2.8"/>
						
							<ellipse transform="matrix(0.3124 -0.9499 0.9499 0.3124 -331.889 1287.3278)" class="st0" cx="723.3" cy="872.9" rx="2.8" ry="2.8"/>
						
							<ellipse transform="matrix(0.3124 -0.9499 0.9499 0.3124 -357.4522 1294.6083)" class="st0" cx="715.6" cy="894.2" rx="2.8" ry="2.8"/>
						
							<ellipse transform="matrix(0.3124 -0.9499 0.9499 0.3124 -280.7627 1272.7666)" class="st0" cx="738.8" cy="830.3" rx="2.8" ry="2.8"/>
					</g>
					
						<rect x="663.4" y="807.7" transform="matrix(0.9397 0.342 -0.342 0.9397 329.9367 -186.5436)" class="st0" width="61.1" height="69.2"/>
				</g>
			</g>
			
				<ellipse transform="matrix(0.3401 -0.9404 0.9404 0.3401 -280.7763 1220.8221)" class="st0" cx="729.4" cy="810.5" rx="2.8" ry="2.8"/>
			
				<ellipse transform="matrix(0.3401 -0.9404 0.9404 0.3401 -294.4193 1170.5338)" class="st0" cx="686.8" cy="795" rx="2.8" ry="2.8"/>
		</g>
		<g>
			<g>
				<path class="st0" d="M677.2,575.4L677.2,575.4c8.9-2.9,13.8-12.6,10.8-21.5v0c-2.9-8.9-12.6-13.8-21.5-10.8v0
					c-8.9,2.9-13.8,12.6-10.8,21.5l0,0C658.7,573.4,668.3,578.3,677.2,575.4z"/>
				<g>
					<g>
						
							<ellipse transform="matrix(0.9499 -0.3124 0.3124 0.9499 -164.7745 237.3708)" class="st0" cx="658.4" cy="632.9" rx="2.8" ry="2.8"/>
						
							<ellipse transform="matrix(0.9499 -0.3124 0.3124 0.9499 -158.5122 233.8911)" class="st0" cx="650.6" cy="611.6" rx="2.8" ry="2.8"/>
						
							<ellipse transform="matrix(0.9499 -0.3124 0.3124 0.9499 -152.2419 230.3945)" class="st0" cx="642.9" cy="590.3" rx="2.8" ry="2.8"/>
					</g>
					<g>
						
							<ellipse transform="matrix(0.9499 -0.3124 0.3124 0.9499 -153.0623 258.6176)" class="st0" cx="730.5" cy="607" rx="2.8" ry="2.8"/>
						
							<ellipse transform="matrix(0.9499 -0.3124 0.3124 0.9499 -146.796 255.1294)" class="st0" cx="722.8" cy="585.7" rx="2.8" ry="2.8"/>
						
							<ellipse transform="matrix(0.9499 -0.3124 0.3124 0.9499 -140.5297 251.6413)" class="st0" cx="715" cy="564.4" rx="2.8" ry="2.8"/>
						
							<ellipse transform="matrix(0.9499 -0.3124 0.3124 0.9499 -159.3286 262.1058)" class="st0" cx="738.3" cy="628.3" rx="2.8" ry="2.8"/>
					</g>
					
						<rect x="662.8" y="581.7" transform="matrix(0.9397 -0.342 0.342 0.9397 -168.966 274.3184)" class="st0" width="61.1" height="69.2"/>
				</g>
			</g>
			
				<ellipse transform="matrix(0.9404 -0.3401 0.3401 0.9404 -176.9671 286.4979)" class="st0" cx="728.9" cy="648.1" rx="2.8" ry="2.8"/>
			
				<ellipse transform="matrix(0.9404 -0.3401 0.3401 0.9404 -184.7542 272.9127)" class="st0" cx="686.2" cy="663.6" rx="2.8" ry="2.8"/>
		</g>
	</g>
	<path class="st0" d="M720.1,914c0,0,50.2-128,53.8-179.4c0-0.4,0.1-0.8,0.1-1.2c0.1-1.4,0.1-2.8,0.1-4c0-0.1,0-0.1,0-0.2v0v0
		c0-0.1,0-0.1,0-0.2c0-1.3,0-2.6-0.1-4c0-0.4-0.1-0.8-0.1-1.2c-3.6-51.3-53.8-179.4-53.8-179.4c-7.3-19.9-25.9-32.4-46-32.6
		c-6.7-0.1-13.5,1.2-20.1,4c-24.4,10.3-36,38.4-26.9,63.4l34.9,79.3c9.6,24.2,15.3,47.7,15.9,70.8c-0.6,23.2-6.3,46.6-15.9,70.8
		l-34.9,79.3c-9.1,24.9,2.5,53,26.9,63.4c6.6,2.8,13.4,4.1,20.1,4C694.1,946.4,712.8,933.9,720.1,914z"/>
</g>
<g>
	<g>
		<g>
			<g>
				<g>
					<ellipse class="st0" cx="865.9" cy="729.4" rx="16.4" ry="16.9"/>
					<ellipse class="st0" cx="836.8" cy="681.2" rx="4.1" ry="4.3"/>
					<ellipse class="st0" cx="837.1" cy="777.4" rx="4.1" ry="4.3"/>
				</g>
			</g>
		</g>
	</g>
	<path class="st0" d="M836.6,914c0,0,50.2-128,53.8-179.4c0-0.4,0.1-0.8,0.1-1.2c0.1-1.4,0.1-2.8,0.1-4c0-0.1,0-0.1,0-0.2v0v0
		c0-0.1,0-0.1,0-0.2c0-1.3,0-2.6-0.1-4c0-0.4-0.1-0.8-0.1-1.2c-3.6-51.3-53.8-179.4-53.8-179.4c-7.3-19.9-25.9-32.4-46-32.6
		c-6.7-0.1-13.5,1.2-20.1,4c-24.4,10.3-36,38.4-26.9,63.4l34.9,79.3c9.6,24.2,15.3,47.7,15.9,70.8c-0.6,23.2-6.3,46.6-15.9,70.8
		l-34.9,79.3c-9.1,24.9,2.5,53,26.9,63.4c6.6,2.8,13.4,4.1,20.1,4C810.7,946.4,829.4,933.9,836.6,914z"/>
	<g>
		
			<ellipse transform="matrix(0.3403 -0.9403 0.9403 0.3403 -216.6321 1352.2556)" class="st0" cx="855.4" cy="830.5" rx="2.8" ry="2.8"/>
		
			<ellipse transform="matrix(0.3403 -0.9403 0.9403 0.3403 -241.8073 1359.076)" class="st0" cx="847.7" cy="851.9" rx="2.8" ry="2.8"/>
		
			<ellipse transform="matrix(0.3403 -0.9403 0.9403 0.3403 -266.9825 1365.8965)" class="st0" cx="839.9" cy="873.2" rx="2.8" ry="2.8"/>
		
			<ellipse transform="matrix(0.3403 -0.9403 0.9403 0.3403 -264.816 1274.226)" class="st0" cx="775.7" cy="825.8" rx="2.8" ry="2.8"/>
		
			<ellipse transform="matrix(0.3403 -0.9403 0.9403 0.3403 -289.9912 1281.0464)" class="st0" cx="768" cy="847.2" rx="2.8" ry="2.8"/>
		
			<ellipse transform="matrix(0.3403 -0.9403 0.9403 0.3403 -314.9866 1287.7166)" class="st0" cx="760.2" cy="868.3" rx="2.8" ry="2.8"/>
		
			<ellipse transform="matrix(0.3401 -0.9404 0.9404 0.3401 -203.8895 1330.5281)" class="st0" cx="846.1" cy="810.5" rx="2.8" ry="2.8"/>
		
			<ellipse transform="matrix(0.3401 -0.9404 0.9404 0.3401 -217.5325 1280.2396)" class="st0" cx="803.4" cy="795.1" rx="2.8" ry="2.8"/>
		<path class="st0" d="M779.7,929.9L779.7,929.9c16.1,5.8,33.8-2.6,39.4-18.7l32-91l-57.8-20.9l-32.2,91.5
			C755.5,906.7,763.8,924.1,779.7,929.9z"/>
		
			<ellipse transform="matrix(0.3403 -0.9403 0.9403 0.3403 -292.1577 1372.7168)" class="st0" cx="832.2" cy="894.6" rx="2.8" ry="2.8"/>
	</g>
	<g>
		
			<ellipse transform="matrix(0.9403 -0.3403 0.3403 0.9403 -162.7556 328.3919)" class="st0" cx="854.9" cy="628.2" rx="2.8" ry="2.8"/>
		
			<ellipse transform="matrix(0.9403 -0.3403 0.3403 0.9403 -155.951 324.4883)" class="st0" cx="847.1" cy="606.9" rx="2.8" ry="2.8"/>
		
			<ellipse transform="matrix(0.9403 -0.3403 0.3403 0.9403 -149.1464 320.5847)" class="st0" cx="839.4" cy="585.5" rx="2.8" ry="2.8"/>
		
			<ellipse transform="matrix(0.9403 -0.3403 0.3403 0.9403 -162.2984 297.646)" class="st0" cx="767.4" cy="611.5" rx="2.8" ry="2.8"/>
		
			<ellipse transform="matrix(0.9403 -0.3403 0.3403 0.9403 -155.564 293.7487)" class="st0" cx="759.7" cy="590.4" rx="2.8" ry="2.8"/>
		
			<ellipse transform="matrix(0.9404 -0.3401 0.3401 0.9404 -170.0376 326.1652)" class="st0" cx="845.5" cy="648.2" rx="2.8" ry="2.8"/>
		
			<ellipse transform="matrix(0.9404 -0.3401 0.3401 0.9404 -177.8246 312.58)" class="st0" cx="802.9" cy="663.6" rx="2.8" ry="2.8"/>
		<path class="st0" d="M779.1,528.9L779.1,528.9c16.1-5.8,33.8,2.6,39.4,18.7l32,91l-57.8,20.9l-32.2-91.5
			C755,552,763.3,534.6,779.1,528.9z"/>
		
			<ellipse transform="matrix(0.9403 -0.3403 0.3403 0.9403 -142.3418 316.6812)" class="st0" cx="831.7" cy="564.2" rx="2.8" ry="2.8"/>
	</g>
</g>
<path class="st0" d="M953.6,494.2v-26.7h-8.1l0-26.7h8.1V414h-8.1l-0.2-293.6h8.3V93.7h-8.3l0-26.7h8.3V40.3h-10.2v0H818.7V67h8.2
	v26.7h-8.2v26.7h8.2v26.7h-8.2v26.7h8.2v26.6h-8.2v26.7h8.2v26.7h-8.2v26.7h8.2v26.7h-8.2v26.7h8.2v26.2h-8.2v26.7h8.2v26.7h-8.2
	v26.7h8.2v26.7h-8.2v26.7l122.7,0.5l2.1,0v0H953.6z M883.9,93.5V66.8h9.1v26.7H883.9z M883.9,147v-26.7h9.1V147H883.9z M883.9,200.3
	v-26.6h9.1v26.6H883.9z M883.9,253.7V227h9.1v26.7H883.9z M883.9,307.1v-26.7h9.1v26.7H883.9z M883.9,360v-26.2h9.1V360H883.9z
	 M883.9,413.4v-26.7h9.1v26.7H883.9z M883.9,466.8v-26.7h9.1v26.7H883.9z"/>
<path class="st0" d="M1112.4,494.2v-26.7h-8.1l0-26.7h8.1V414h-8.1l-0.2-293.6h8.3V93.7h-8.3l0-26.7h8.3V40.3h-10.2v0H977.4V67h8.2
	v26.7h-8.2v26.7h8.2v26.7h-8.2v26.7h8.2v26.6h-8.2v26.7h8.2v26.7h-8.2v26.7h8.2v26.7h-8.2v26.7h8.2v26.2h-8.2v26.7h8.2v26.7h-8.2
	v26.7h8.2v26.7h-8.2v26.7l122.7,0.5l2.1,0v0H1112.4z M1042.7,93.5V66.8h9.1v26.7H1042.7z M1042.7,147v-26.7h9.1V147H1042.7z
	 M1042.7,200.3v-26.6h9.1v26.6H1042.7z M1042.7,253.7V227h9.1v26.7H1042.7z M1042.7,307.1v-26.7h9.1v26.7H1042.7z M1042.7,360v-26.2
	h9.1V360H1042.7z M1042.7,413.4v-26.7h9.1v26.7H1042.7z M1042.7,466.8v-26.7h9.1v26.7H1042.7z"/>
<path class="st0" d="M784.8,42.4h-24.2V51h-24.4v-8.6h-24.6V51h-24.6v-8.6h-24.6V51H638v-8.6h-24.5v9L613,173.8h24.6v-8.6h24.6v8.6
	h24.6v-8.6h24.6v8.6h24.6v-8.6h24.4v8.6h24.6V63L784.8,42.4z M662.1,107.8h-24.6v-8.6h24.6V107.8z M711.3,107.8h-24.6v-8.3h24.6
	V107.8z M760.5,107.8h-24.7v-8.6h24.7V107.8z M661.5,78.9h2.4c1,0,1.9,0.8,1.9,1.9V90c0,0.5,0.4,0.9,0.9,0.9h62.6
	c0.5,0,0.9-0.4,0.9-0.9v-9.2c0-1.1,0.9-2,2-2h2.3c1.5,0,2.9-1.1,3-2.7c0.1-1.6-1.2-3-2.8-3h-2.6c-1,0-1.8-0.8-1.8-1.8V62
	c0-0.5-0.4-0.9-0.9-0.9h-62.6c-0.5,0-0.9,0.4-0.9,0.9v9.4c0,1-0.8,1.8-1.8,1.8h-2.6c-1.6,0-2.9,1.4-2.8,3
	C658.6,77.7,660,78.9,661.5,78.9z"/>
<g>
	
		<rect x="1034.8" y="999.5" transform="matrix(6.123234e-17 -1 1 6.123234e-17 70.4936 2129.4915)" class="st0" width="130.4" height="60.1"/>
	<g>
		<circle class="st0" cx="1100" cy="1063.2" r="22.7"/>
		<circle class="st0" cx="1100" cy="995.2" r="22.7"/>
		<circle class="st0" cx="1075.9" cy="970.3" r="2.8"/>
		<circle class="st0" cx="1123.9" cy="970.3" r="2.8"/>
		<circle class="st0" cx="1075.9" cy="1088.3" r="2.8"/>
		<circle class="st0" cx="1123.9" cy="1088.3" r="2.8"/>
	</g>
</g>
<g>
	<g>
		<g>
			<g>
				
					<rect x="464" y="168.7" transform="matrix(-1.836970e-16 1 -1 -1.836970e-16 650.403 -286.3845)" class="st1" width="8.7" height="26.7"/>
				
					<rect x="517.4" y="168.7" transform="matrix(-1.836970e-16 1 -1 -1.836970e-16 703.7994 -339.7632)" class="st1" width="8.7" height="26.7"/>
			</g>
			<g>
				
					<rect x="91.1" y="168.3" transform="matrix(-1.836970e-16 1 -1 -1.836970e-16 276.8107 86.5461)" class="st1" width="8.1" height="26.7"/>
				<polygon class="st1" points="135.4,185.4 135.2,177.7 161.9,177.7 161.9,185.7 				"/>
			</g>
			<g>
				
					<rect x="463.8" y="383.6" transform="matrix(-1.836970e-16 1 -1 -1.836970e-16 865.3245 -71.3707)" class="st1" width="9.1" height="26.7"/>
				
					<rect x="517.2" y="383.6" transform="matrix(-1.836970e-16 1 -1 -1.836970e-16 918.6902 -124.7366)" class="st1" width="9.1" height="26.7"/>
			</g>
			<g>
				
					<rect x="91" y="384.1" transform="matrix(-1.836970e-16 1 -1 -1.836970e-16 492.5531 302.2884)" class="st1" width="8.2" height="26.7"/>
				
					<rect x="144.4" y="384.1" transform="matrix(-1.836970e-16 1 -1 -1.836970e-16 545.9528 248.8887)" class="st1" width="8.2" height="26.7"/>
			</g>
		</g>
		<g>
			<path class="st1" d="M91.4,372.4h169c8,0,14.6-4.6,14.6-10.2l0.4-144.1c0-5.6-6.5-10.2-14.6-10.2h-169c-8,0-14.6,4.6-14.6,10.2
				l-0.4,144.1C76.8,367.8,83.4,372.4,91.4,372.4z"/>
			<path class="st1" d="M557.8,326.3v-24.6h15c1.6,0,3-1.3,3-3v-18.6c0-1.6-1.3-3-3-3h-15v-24.6h15c1.6,0,3-1.3,3-3V42.5l-14.6,0
				l0-8.5h-57.2v8.5h-56.7V34h-56.7v8.5H334V34h-56.6v8.5h-13.7V49h-28v-6.6h-15.1V34H164v8.5h-56.7V34H51.1l0,8.4l-13.8,0v489.9
				l14.1,0l0,8.5h56.7v-8.5h56.7v8.5h56.6v-8.5h56.7v8.5h56.7v-8.5h17.7v-5.8h28v5.8h11v8.5h56.6v-8.5h56.7v8.5h56.7l0-8.5l14.3,0
				v-203c0-1.6-1.3-3-3-3H557.8z"/>
			<g>
				<circle class="st1" cx="553" cy="190.9" r="4.3"/>
				<circle class="st1" cx="553.1" cy="388.1" r="4.3"/>
				<circle class="st1" cx="63" cy="190.9" r="4.3"/>
				<circle class="st1" cx="63.1" cy="388.1" r="4.3"/>
			</g>
		</g>
		<g>
			
				<rect x="463.9" y="433.1" transform="matrix(6.123234e-17 -1 1 6.123234e-17 39.5194 962.2234)" class="st1" width="74" height="56.5"/>
			<circle class="st1" cx="522.7" cy="491.5" r="4.3"/>
			<circle class="st1" cx="480" cy="492.1" r="4.3"/>
			<circle class="st1" cx="480" cy="430.9" r="4.3"/>
			<circle class="st1" cx="523.2" cy="430.9" r="4.3"/>
		</g>
		<g>
			
				<rect x="41.4" y="211.3" transform="matrix(-1.836970e-16 1 -1 -1.836970e-16 269.1003 161.8437)" class="st1" width="24.5" height="8.4"/>
			
				<rect x="41.3" y="260.4" transform="matrix(-1.836970e-16 1 -1 -1.836970e-16 318.197 210.9405)" class="st1" width="24.6" height="8.4"/>
			
				<rect x="41.3" y="309.5" transform="matrix(-1.836970e-16 1 -1 -1.836970e-16 367.3211 260.0646)" class="st1" width="24.6" height="8.4"/>
			
				<rect x="41.3" y="358.5" transform="matrix(-1.836970e-16 1 -1 -1.836970e-16 416.3069 309.0503)" class="st1" width="24.6" height="8.4"/>
		</g>
		<g>
			<g>
				
					<rect x="213.2" y="112.7" transform="matrix(-1 -4.768686e-11 4.768686e-11 -1 453.1342 233.8475)" class="st1" width="26.7" height="8.5"/>
				
					<rect x="319.8" y="112.7" transform="matrix(-1 -4.768686e-11 4.768686e-11 -1 666.3143 233.8475)" class="st1" width="26.7" height="8.5"/>
				
					<rect x="266.4" y="112.7" transform="matrix(-1 -4.782320e-11 4.782320e-11 -1 559.5096 233.8475)" class="st1" width="26.7" height="8.5"/>
				
					<rect x="373.2" y="112.7" transform="matrix(-1 -4.782320e-11 4.782320e-11 -1 773.119 233.8475)" class="st1" width="26.7" height="8.5"/>
			</g>
			<g>
				
					<rect x="213.2" y="93.5" transform="matrix(-1 -4.775481e-11 4.775481e-11 -1 453.1342 195.5877)" class="st1" width="26.7" height="8.5"/>
				
					<rect x="319.8" y="93.5" transform="matrix(-1 -4.768686e-11 4.768686e-11 -1 666.3143 195.5877)" class="st1" width="26.7" height="8.5"/>
				
					<rect x="266.4" y="93.5" transform="matrix(-1 -4.775481e-11 4.775481e-11 -1 559.5096 195.5877)" class="st1" width="26.7" height="8.5"/>
				
					<rect x="373.2" y="93.5" transform="matrix(-1 -4.782320e-11 4.782320e-11 -1 773.119 195.5877)" class="st1" width="26.7" height="8.5"/>
			</g>
			<g>
				
					<rect x="213.2" y="74.4" transform="matrix(-1 -4.761892e-11 4.761892e-11 -1 453.1342 157.3279)" class="st1" width="26.7" height="8.5"/>
				
					<rect x="319.8" y="74.4" transform="matrix(-1 -4.768686e-11 4.768686e-11 -1 666.3143 157.3279)" class="st1" width="26.7" height="8.5"/>
				
					<rect x="266.4" y="74.4" transform="matrix(-1 -4.775481e-11 4.775481e-11 -1 559.5096 157.3279)" class="st1" width="26.7" height="8.5"/>
				
					<rect x="373.2" y="74.4" transform="matrix(-1 -4.782320e-11 4.782320e-11 -1 773.119 157.3279)" class="st1" width="26.7" height="8.5"/>
			</g>
		</g>
		<g>
			<g>
				
					<rect x="213.2" y="491.8" transform="matrix(-1 -4.772106e-11 4.772106e-11 -1 453.1342 992.1098)" class="st1" width="26.7" height="8.5"/>
				
					<rect x="319.8" y="491.8" transform="matrix(-1 -4.765267e-11 4.765267e-11 -1 666.3143 992.1098)" class="st1" width="26.7" height="8.5"/>
				
					<rect x="266.4" y="491.8" transform="matrix(-1 -4.775481e-11 4.775481e-11 -1 559.5096 992.1098)" class="st1" width="26.7" height="8.5"/>
				
					<rect x="373.2" y="491.8" transform="matrix(-1 -4.782320e-11 4.782320e-11 -1 773.119 992.1098)" class="st1" width="26.7" height="8.5"/>
			</g>
			<g>
				
					<rect x="213.2" y="472.7" transform="matrix(-1 -4.768686e-11 4.768686e-11 -1 453.1342 953.85)" class="st1" width="26.7" height="8.5"/>
				
					<rect x="319.8" y="472.7" transform="matrix(-1 -4.768686e-11 4.768686e-11 -1 666.3143 953.85)" class="st1" width="26.7" height="8.5"/>
				
					<rect x="266.4" y="472.7" transform="matrix(-1 -4.775481e-11 4.775481e-11 -1 559.5096 953.85)" class="st1" width="26.7" height="8.5"/>
				
					<rect x="373.2" y="472.7" transform="matrix(-1 -4.782320e-11 4.782320e-11 -1 773.119 953.85)" class="st1" width="26.7" height="8.5"/>
			</g>
			<g>
				
					<rect x="213.2" y="453.5" transform="matrix(-1 -4.768686e-11 4.768686e-11 -1 453.1342 915.5901)" class="st1" width="26.7" height="8.5"/>
				
					<rect x="319.8" y="453.5" transform="matrix(-1 -4.768686e-11 4.768686e-11 -1 666.3143 915.5901)" class="st1" width="26.7" height="8.5"/>
				
					<rect x="266.4" y="453.5" transform="matrix(-1 -4.775481e-11 4.775481e-11 -1 559.5096 915.5901)" class="st1" width="26.7" height="8.5"/>
				
					<rect x="373.2" y="453.5" transform="matrix(-1 -4.782320e-11 4.782320e-11 -1 773.119 915.5901)" class="st1" width="26.7" height="8.5"/>
			</g>
		</g>
	</g>
	<g>
		
			<rect x="213.2" y="413.2" transform="matrix(-1 -4.768686e-11 4.768686e-11 -1 453.1342 834.9725)" class="st1" width="26.7" height="8.5"/>
		
			<rect x="319.8" y="413.2" transform="matrix(-1 -4.768686e-11 4.768686e-11 -1 666.3143 834.9725)" class="st1" width="26.7" height="8.5"/>
		
			<rect x="266.4" y="413.2" transform="matrix(-1 -4.775481e-11 4.775481e-11 -1 559.5096 834.9725)" class="st1" width="26.7" height="8.5"/>
		
			<rect x="373.2" y="413.2" transform="matrix(-1 -4.782320e-11 4.782320e-11 -1 773.119 834.9725)" class="st1" width="26.7" height="8.5"/>
	</g>
	<g>
		
			<rect x="213.2" y="152.9" transform="matrix(-1 -4.768686e-11 4.768686e-11 -1 453.1342 314.2957)" class="st1" width="26.7" height="8.5"/>
		
			<rect x="319.8" y="152.9" transform="matrix(-1 -4.768686e-11 4.768686e-11 -1 666.3143 314.2957)" class="st1" width="26.7" height="8.5"/>
		
			<rect x="266.4" y="152.9" transform="matrix(-1 -4.775481e-11 4.775481e-11 -1 559.5096 314.2957)" class="st1" width="26.7" height="8.5"/>
		
			<rect x="373.2" y="152.9" transform="matrix(-1 -4.782320e-11 4.782320e-11 -1 773.119 314.2957)" class="st1" width="26.7" height="8.5"/>
	</g>
	<path class="st1" d="M508.4,317.1V266c0-7.4,6-13.4,13.4-13.4l0,0c7.4,0,13.4,6,13.4,13.4v51.1c0,7.4-6,13.4-13.4,13.4l0,0
		C514.4,330.4,508.4,324.5,508.4,317.1z"/>
	<g>
		<circle class="st1" cx="300.8" cy="238.6" r="4.3"/>
		<circle class="st1" cx="300.8" cy="356" r="4.3"/>
	</g>
	<g>
		<circle class="st1" cx="455" cy="218.6" r="4.3"/>
		<circle class="st1" cx="455" cy="376" r="4.3"/>
	</g>
</g>
<g>
	<circle class="st0" cx="699.6" cy="379.9" r="8.5"/>
	<path class="st0" d="M766.3,337.6v8.5h-26.7v-8.5h-26.7v8.5h0h-26.7h0v-8.5h-26.7v8.5h-26.7v-8.5h-26.7v8.5
		c0,3.8,3.4,10.9,10.4,15.6c4.1,2.6,9.5,4.5,16.3,4.8c14.2,0,27.2,9.5,35.5,18.4c2.4,2.5,4.3,4.9,5.7,7.1
		c5.5,8.3,13.1,15.4,23.5,16.1c0.7,0.1,1.4,0.1,2.1,0.1s1.4,0,2.1-0.1c10.4-0.8,18-7.9,23.5-16.1c1.3-2.2,3.3-4.7,5.7-7.1
		c8.2-9,21.3-18.4,35.5-18.4c6.7-0.2,12.1-2.1,16.3-4.8c7.1-4.7,10.4-11.8,10.4-15.6v-8.5H766.3z"/>
</g>
<g>
	<circle class="st0" cx="699.6" cy="469.9" r="8.5"/>
	<path class="st0" d="M766.3,427.6v8.5h-26.7v-8.5h-26.7v8.5h0h-26.7h0v-8.5h-26.7v8.5h-26.7v-8.5h-26.7v8.5
		c0,3.8,3.4,10.9,10.4,15.6c4.1,2.6,9.5,4.5,16.3,4.8c14.2,0,27.2,9.5,35.5,18.4c2.4,2.5,4.3,4.9,5.7,7.1
		c5.5,8.3,13.1,15.4,23.5,16.1c0.7,0.1,1.4,0.1,2.1,0.1s1.4,0,2.1-0.1c10.4-0.8,18-7.9,23.5-16.1c1.3-2.2,3.3-4.7,5.7-7.1
		c8.2-9,21.3-18.4,35.5-18.4c6.7-0.2,12.1-2.1,16.3-4.8c7.1-4.7,10.4-11.8,10.4-15.6v-8.5H766.3z"/>
</g>
<polygon class="st1" points="868.9,1053.9 868.9,1062.4 812.2,1062.4 812.2,1053.9 755.5,1053.9 755.5,1062.4 698.8,1062.4 
	698.8,1053.9 642.1,1053.9 642.1,1062.4 585.4,1062.4 585.4,1053.9 528.7,1053.9 528.7,1062.4 472,1062.4 472,1053.9 469.3,1053.9 
	469.3,1045.4 460.8,1045.4 460.8,1036.9 469.3,1036.9 469.3,1028.4 460.8,1028.4 460.8,1019.9 469.3,1019.9 469.3,1011.4 
	869,1011.4 "/>
<path class="st0" d="M759.3,280.3v-8.5h23.5v-49.5h-23.5v-8.5h23.5v-12.9l-0.2-9.3l-46.3,0.2v-8.6h-24.6v8.6h-24.6v-8.6h-24.6v8.6
	l-47.3-0.2l0.3,0.7l-0.1,21.5h23.3v8.5h-23.4l-0.3,92.4h22.6v-10.6h24.6v10.6h24.6v-10.6h24.6v10.6h24.6v-10.6h24.4v10.6h22.6v-34.4
	H759.3z M638.7,280.3h-23.5v-8.5h23.5V280.3z"/>
<g>
	<g>
		<g>
			<g>
				<path class="st1" d="M1364.9,63.8V42.3c0-5.6-4.5-10.1-10.1-10.1l-17.9,0v8.9h-22.6v-8.9h-24.4v8.8h-24.6v-8.8h-24.6v8.8h-24.6
					v-8.8h-24.6v8.8h-22.6v-8.8h-17.8c-5.6,0-10.1,4.5-10.1,10.1v21.4h8.7v26.7h-8.7v26.7h8.7v26.7h-8.7v26.7h8.7v26.7h-8.7v26.6
					h8.7v26.7h-8.7v26.7h8.7V304h-8.7v26.7h8.7v26.7h-8.7v26.2h8.1v26.7h-8.1V437l8.1,0l-0.1,26.7h-8v26.7l8.1,0v26.7l-8.1,0v22.2
					c0,5.6,4.5,10.1,10.1,10.1h15.6v-8.4h24.6v8.4h24.6v-8.4h24.6v8.4h24.6v-8.4h24.6v8.4h24.4v-8.4h24.6v8.4l16.1,0
					c5.6,0,10.1-4.5,10.1-10.1v-22.2h-8.1v-26.7h8.1v-26.7h-8.1V437h8.1v-26.7h-8.1v-26.7h8.1v-26.2h-8.6v-26.7h8.6V304h-9.1v-26.7
					h9.1v-26.7h-9.1v-26.7h9.1v-26.6h-9.1v-26.7h9.1v-26.7h-9.1v-26.7h9.1V90.5h-9.1V63.8H1364.9z"/>
			</g>
		</g>
		<g>
			<circle class="st1" cx="1154.4" cy="45.8" r="4.3"/>
			<circle class="st1" cx="1351.7" cy="45.8" r="4.3"/>
			<circle class="st1" cx="1154.4" cy="535.8" r="4.3"/>
			<circle class="st1" cx="1351.7" cy="535.8" r="4.3"/>
		</g>
		<g>
			<g>
				<g>
					<rect x="1322.5" y="59.1" class="st1" width="8.5" height="56.7"/>
					<rect x="1322.5" y="172.4" class="st1" width="8.5" height="56.7"/>
					<rect x="1322.5" y="285.8" class="st1" width="8.5" height="56.7"/>
					<rect x="1322.5" y="399.2" class="st1" width="8.5" height="56.7"/>
					<rect x="1175.1" y="59.1" class="st1" width="8.5" height="56.7"/>
					<rect x="1175.1" y="172.4" class="st1" width="8.5" height="56.7"/>
					<rect x="1175.1" y="285.8" class="st1" width="8.5" height="56.7"/>
					<rect x="1175.1" y="399.2" class="st1" width="8.5" height="56.7"/>
				</g>
				
					<rect x="1248.8" y="434.2" transform="matrix(-1.836970e-16 1 -1 -1.836970e-16 1715.6033 -790.4917)" class="st1" width="8.5" height="56.7"/>
			</g>
		</g>
		<g>
			
				<rect x="1193.5" y="473.3" transform="matrix(-1 -1.224647e-16 1.224647e-16 -1 2506.095 1006.1378)" class="st1" width="119.1" height="59.5"/>
			<circle class="st1" cx="1294.1" cy="524.6" r="4.3"/>
			<circle class="st1" cx="1211.9" cy="481.4" r="4.3"/>
		</g>
		<g>
			<circle class="st1" cx="1274.8" cy="511" r="4.3"/>
			<circle class="st1" cx="1231.6" cy="511" r="4.3"/>
		</g>
	</g>
</g>
<polygon class="st1" points="460.9,997.3 460.9,1005.8 517.6,1005.8 517.6,997.3 574.3,997.3 574.3,1005.8 631,1005.8 631,997.3 
	687.7,997.3 687.7,1005.8 744.4,1005.8 744.4,997.3 801.1,997.3 801.1,1005.8 857.8,1005.8 857.8,997.3 860.5,997.3 860.5,988.8 
	869,988.8 869,980.3 860.5,980.3 860.5,971.8 869,971.8 869,963.3 860.5,963.3 860.5,954.8 460.8,954.8 "/>
<g>
	<polygon class="st1" points="460.8,1077.7 469.3,1077.7 469.3,1086.2 460.8,1086.2 460.8,1094.7 469.3,1094.7 469.3,1103.2 
		460.8,1103.2 460.8,1111.7 469.3,1111.7 510.4,1111.7 510.4,1120.2 567.1,1120.2 567.1,1111.7 608.2,1111.7 616.7,1111.7 
		616.7,1103.2 608.2,1103.2 608.2,1094.7 616.7,1094.7 616.7,1086.2 608.2,1086.2 608.2,1077.7 616.7,1077.7 616.7,1069.2 
		608.2,1069.2 469.3,1069.2 460.8,1069.2 	"/>
	<path class="st0" d="M534.5,1085.4v9.8c0,3.2-2.6,5.8-5.8,5.8H495c-3.2,0-5.8-2.6-5.8-5.8v-9.8c0-3.2,2.6-5.8,5.8-5.8h33.8
		C531.9,1079.6,534.5,1082.2,534.5,1085.4z"/>
</g>
<g>
	<path class="st1" d="M609.5,600.1c0-0.2,0-0.4,0-0.6c0-0.8-0.1-1.5-0.2-2.3c0-0.1,0-0.1,0-0.2c-0.1-0.8-0.2-1.6-0.3-2.4
		c0-0.2-0.1-0.4-0.1-0.6c-0.1-0.7-0.3-1.4-0.4-2.1c0-0.1,0-0.2-0.1-0.3c-0.2-0.8-0.4-1.6-0.6-2.3c0-0.2-0.1-0.3-0.1-0.5
		c-0.2-0.7-0.4-1.4-0.6-2c0-0.1-0.1-0.2-0.1-0.3c-0.3-0.8-0.5-1.5-0.8-2.3c-0.1-0.2-0.2-0.4-0.2-0.6c-0.2-0.6-0.5-1.2-0.8-1.9
		c0-0.1-0.1-0.2-0.1-0.3c-0.3-0.7-0.7-1.4-1.1-2.2c0-0.1-0.1-0.2-0.1-0.3c-0.4-0.7-0.7-1.4-1.1-2c-0.1-0.1-0.1-0.2-0.2-0.3
		c-0.4-0.7-0.8-1.4-1.3-2c-0.1-0.1-0.1-0.2-0.2-0.2c-0.4-0.6-0.8-1.1-1.2-1.7c-0.1-0.2-0.2-0.3-0.3-0.5c-0.5-0.6-1-1.3-1.5-1.9
		c-0.1-0.1-0.1-0.1-0.2-0.2c-0.4-0.5-0.9-1-1.3-1.5c-0.2-0.2-0.3-0.3-0.5-0.5c-0.5-0.6-1.1-1.1-1.6-1.7c-0.1-0.1-0.2-0.2-0.3-0.2
		c-0.5-0.5-1-1-1.6-1.5c0,0-0.1-0.1-0.1-0.1c-0.3-0.3-0.6-0.7-1-1c-0.2-0.2-0.5-0.5-0.7-0.7c-0.3-0.3-0.6-0.5-0.9-0.8
		c-0.1-0.1-0.2-0.1-0.2-0.2c-0.1-0.1-0.2-0.2-0.3-0.3c-0.3-0.3-0.6-0.5-1-0.8c-0.1-0.1-0.2-0.1-0.2-0.2c-0.2-0.1-0.4-0.3-0.5-0.4
		c0,0-0.1-0.1-0.1-0.1c-0.1-0.1-0.3-0.2-0.4-0.3c-0.1-0.1-0.2-0.1-0.3-0.2c-0.1-0.1-0.2-0.2-0.3-0.2c-0.1-0.1-0.2-0.2-0.4-0.2
		c-0.2-0.1-0.4-0.2-0.6-0.4c-0.1,0-0.1-0.1-0.2-0.1c-0.2-0.1-0.4-0.3-0.7-0.4c0,0-0.1,0-0.1-0.1c-0.1-0.1-0.3-0.1-0.4-0.2
		c-0.1-0.1-0.3-0.1-0.4-0.2c-0.1,0-0.1-0.1-0.2-0.1c-0.2-0.1-0.4-0.2-0.6-0.3c-0.1-0.1-0.3-0.1-0.4-0.2c-0.2-0.1-0.3-0.1-0.5-0.2
		c-0.2-0.1-0.4-0.2-0.5-0.2c-0.1-0.1-0.3-0.1-0.4-0.2c-0.2-0.1-0.3-0.1-0.5-0.2c-0.2-0.1-0.3-0.1-0.5-0.2c-0.2-0.1-0.3-0.1-0.5-0.2
		c-0.2-0.1-0.4-0.1-0.5-0.2c-0.2-0.1-0.4-0.2-0.6-0.2c-0.1,0-0.3-0.1-0.4-0.1c-0.2-0.1-0.4-0.1-0.7-0.2c-0.1,0-0.3-0.1-0.4-0.1
		c-0.2-0.1-0.3-0.1-0.5-0.2c-0.2-0.1-0.4-0.1-0.6-0.2c-0.2-0.1-0.4-0.1-0.6-0.2c-0.2-0.1-0.4-0.1-0.6-0.2c-0.2-0.1-0.4-0.1-0.6-0.2
		c-0.2-0.1-0.4-0.1-0.6-0.2c-0.2,0-0.4-0.1-0.6-0.1c-0.2-0.1-0.5-0.1-0.7-0.2c-0.2,0-0.5-0.1-0.7-0.1c-0.2,0-0.4-0.1-0.6-0.1
		c-0.2,0-0.4-0.1-0.7-0.1c-0.2,0-0.5-0.1-0.7-0.1c-0.2,0-0.4-0.1-0.6-0.1c-0.3,0-0.5-0.1-0.8-0.1c-0.2,0-0.4-0.1-0.6-0.1
		c-0.3,0-0.6-0.1-0.8-0.1c-0.2,0-0.5-0.1-0.7-0.1c-0.3,0-0.6-0.1-0.8-0.1c-0.2,0-0.5,0-0.7-0.1c-0.3,0-0.6-0.1-0.9-0.1
		c-0.3,0-0.6,0-0.9-0.1c-0.3,0-0.5,0-0.8-0.1c-0.3,0-0.7,0-1-0.1c-0.2,0-0.5,0-0.7,0c-0.3,0-0.7,0-1,0c-0.3,0-0.5,0-0.8,0
		c-0.3,0-0.6,0-0.9,0c-0.3,0-0.6,0-0.9,0c-0.3,0-0.5,0-0.8,0c-0.4,0-0.7,0-1.1,0c-0.3,0-0.6,0-0.9,0c-0.4,0-0.7,0-1.1,0
		c-0.3,0-0.6,0-1,0c-0.4,0-0.7,0-1.1,0c-0.3,0-0.6,0-0.9,0c-0.4,0-0.8,0-1.2,0c-0.3,0-0.6,0-0.9,0c-0.4,0-0.8,0-1.2,0.1
		c-0.3,0-0.6,0-1,0.1c-0.4,0-0.8,0-1.3,0.1c-0.3,0-0.7,0.1-1,0.1c-0.4,0-0.8,0.1-1.2,0.1c-0.4,0-0.8,0.1-1.2,0.1
		c-0.4,0-0.8,0.1-1.2,0.1c-0.4,0-0.8,0.1-1.2,0.1c-0.4,0-0.8,0.1-1.2,0.1c-0.4,0-0.8,0.1-1.2,0.1c-0.4,0-0.9,0.1-1.3,0.1
		c-0.4,0.1-0.9,0.1-1.3,0.2c-0.4,0.1-0.8,0.1-1.2,0.2c-0.5,0.1-1,0.1-1.5,0.2c-0.4,0.1-0.8,0.1-1.2,0.2c-0.5,0.1-1,0.1-1.5,0.2
		c-0.4,0.1-0.8,0.1-1.3,0.2c-0.5,0.1-0.9,0.1-1.4,0.2c-0.5,0.1-0.9,0.1-1.4,0.2c-0.4,0.1-0.8,0.1-1.3,0.2c-0.5,0.1-1.1,0.2-1.6,0.3
		c-0.5,0.1-0.9,0.2-1.4,0.2c-0.5,0.1-1.1,0.2-1.6,0.3c-0.5,0.1-1,0.2-1.5,0.3c-0.5,0.1-1.1,0.2-1.6,0.3c-0.4,0.1-0.9,0.2-1.3,0.3
		c-0.6,0.1-1.2,0.2-1.8,0.4c-0.4,0.1-0.8,0.2-1.3,0.3c-0.7,0.1-1.3,0.3-2,0.4c-0.4,0.1-0.9,0.2-1.3,0.3c-0.7,0.1-1.3,0.3-2,0.4
		c-0.5,0.1-1,0.2-1.5,0.3c-0.6,0.1-1.2,0.3-1.9,0.4c-0.6,0.1-1.2,0.3-1.8,0.4c-0.6,0.1-1.2,0.3-1.7,0.4c-0.6,0.1-1.2,0.3-1.8,0.4
		c-0.6,0.1-1.2,0.3-1.9,0.4c-0.6,0.1-1.2,0.3-1.7,0.4c-0.7,0.2-1.3,0.3-2,0.5c-0.5,0.1-1.1,0.3-1.7,0.4c-0.7,0.2-1.4,0.3-2.1,0.5
		c-0.5,0.1-1,0.3-1.6,0.4c-0.8,0.2-1.5,0.4-2.3,0.6c-0.5,0.1-1.1,0.3-1.6,0.4c-0.8,0.2-1.5,0.4-2.3,0.6c-0.6,0.2-1.2,0.3-1.9,0.5
		c-0.7,0.2-1.5,0.4-2.2,0.6c-0.6,0.2-1.2,0.3-1.8,0.5c-0.8,0.2-1.5,0.4-2.3,0.6c0,0,0,0,0,0c0,0,0,0-0.1,0
		c-35.7,9.9-85.3,33.7-122.4,33.7h-41.2c-37.1,0-86.6-23.8-122.4-33.7c0,0,0,0-0.1,0c0,0,0,0,0,0c-0.8-0.2-1.6-0.4-2.3-0.6
		c-0.6-0.2-1.2-0.3-1.8-0.5c-0.8-0.2-1.5-0.4-2.3-0.6c-0.6-0.2-1.2-0.3-1.8-0.5c-0.8-0.2-1.6-0.4-2.4-0.6c-0.5-0.1-1.1-0.3-1.6-0.4
		c-0.8-0.2-1.6-0.4-2.3-0.6c-0.5-0.1-1-0.3-1.6-0.4c-0.7-0.2-1.4-0.4-2.1-0.5c-0.6-0.1-1.1-0.3-1.7-0.4c-0.7-0.2-1.3-0.3-2-0.5
		c-0.6-0.1-1.2-0.3-1.7-0.4c-0.6-0.1-1.2-0.3-1.8-0.4c-0.6-0.1-1.2-0.3-1.8-0.4c-0.6-0.1-1.1-0.3-1.7-0.4c-0.6-0.1-1.2-0.3-1.8-0.4
		c-0.6-0.1-1.2-0.3-1.9-0.4c-0.5-0.1-1-0.2-1.5-0.3c-0.7-0.1-1.4-0.3-2-0.4c-0.4-0.1-0.9-0.2-1.3-0.3c-0.7-0.1-1.4-0.3-2-0.4
		c-0.4-0.1-0.8-0.2-1.2-0.2c-0.6-0.1-1.2-0.2-1.9-0.4c-0.4-0.1-0.9-0.2-1.3-0.2c-0.6-0.1-1.1-0.2-1.6-0.3c-0.5-0.1-1-0.2-1.4-0.3
		c-0.6-0.1-1.1-0.2-1.6-0.3c-0.5-0.1-0.9-0.2-1.4-0.2c-0.6-0.1-1.1-0.2-1.6-0.3c-0.4-0.1-0.8-0.1-1.3-0.2c-0.5-0.1-1-0.1-1.4-0.2
		c-0.5-0.1-0.9-0.1-1.4-0.2c-0.4-0.1-0.9-0.1-1.3-0.2c-0.5-0.1-1-0.1-1.4-0.2c-0.4-0.1-0.8-0.1-1.2-0.2c-0.5-0.1-1-0.1-1.4-0.2
		c-0.4-0.1-0.8-0.1-1.2-0.1c-0.5-0.1-0.9-0.1-1.4-0.2c-0.5-0.1-0.9-0.1-1.3-0.1c-0.4,0-0.8-0.1-1.2-0.1c-0.4,0-0.8-0.1-1.2-0.1
		c-0.4,0-0.8-0.1-1.2-0.1c-0.4,0-0.8-0.1-1.2-0.1c-0.4,0-0.8-0.1-1.2-0.1c-0.4,0-0.8-0.1-1.2-0.1c-0.3,0-0.7-0.1-1-0.1
		c-0.4,0-0.9-0.1-1.3-0.1c-0.3,0-0.6,0-0.9-0.1c-0.4,0-0.8,0-1.2-0.1c-0.3,0-0.6,0-0.9,0c-0.4,0-0.8,0-1.2,0c-0.3,0-0.6,0-0.9,0
		c-0.4,0-0.7,0-1.1,0c-0.3,0-0.6,0-1,0c-0.4,0-0.7,0-1.1,0c-0.3,0-0.6,0-0.9,0c-0.4,0-0.7,0-1.1,0c-0.3,0-0.6,0-0.8,0
		c-0.3,0-0.6,0-0.9,0c-0.3,0-0.6,0-0.9,0c-0.3,0-0.5,0-0.8,0c-0.3,0-0.7,0-1,0c-0.2,0-0.5,0-0.7,0c-0.3,0-0.7,0-1,0.1
		c-0.3,0-0.5,0-0.8,0.1c-0.3,0-0.6,0-0.9,0.1c-0.3,0-0.6,0.1-0.9,0.1c-0.2,0-0.5,0-0.7,0.1c-0.3,0-0.6,0.1-0.8,0.1
		c-0.2,0-0.5,0.1-0.7,0.1c-0.3,0-0.6,0.1-0.8,0.1c-0.2,0-0.4,0.1-0.6,0.1c-0.3,0-0.5,0.1-0.8,0.1c-0.2,0-0.4,0.1-0.6,0.1
		c-0.2,0-0.5,0.1-0.7,0.1c-0.2,0-0.5,0.1-0.7,0.1c-0.2,0-0.4,0.1-0.6,0.1c-0.2,0-0.5,0.1-0.7,0.1c-0.2,0-0.5,0.1-0.7,0.2
		c-0.2,0-0.4,0.1-0.6,0.1c-0.2,0-0.4,0.1-0.6,0.2c-0.2,0.1-0.4,0.1-0.6,0.2c-0.2,0.1-0.4,0.1-0.6,0.2c-0.2,0.1-0.4,0.1-0.6,0.2
		c-0.2,0.1-0.4,0.1-0.6,0.2c-0.2,0.1-0.3,0.1-0.5,0.2c-0.1,0-0.3,0.1-0.4,0.1c-0.2,0.1-0.4,0.1-0.7,0.2c-0.1,0-0.3,0.1-0.4,0.1
		c-0.2,0.1-0.4,0.2-0.6,0.2c-0.2,0.1-0.4,0.1-0.5,0.2c-0.2,0.1-0.3,0.1-0.5,0.2c-0.2,0.1-0.3,0.1-0.5,0.2c-0.2,0.1-0.3,0.1-0.5,0.2
		c-0.1,0.1-0.3,0.1-0.4,0.2c-0.2,0.1-0.4,0.2-0.5,0.2c-0.2,0.1-0.3,0.1-0.5,0.2c-0.1,0.1-0.3,0.1-0.4,0.2c-0.2,0.1-0.4,0.2-0.6,0.3
		c-0.1,0-0.1,0.1-0.2,0.1c-0.1,0.1-0.3,0.1-0.4,0.2c-0.1,0.1-0.3,0.1-0.4,0.2c0,0-0.1,0-0.1,0.1c-0.2,0.1-0.4,0.3-0.7,0.4
		c-0.1,0-0.1,0.1-0.2,0.1c-0.2,0.1-0.4,0.2-0.6,0.4c-0.1,0.1-0.2,0.2-0.4,0.2c-0.1,0.1-0.2,0.2-0.3,0.2c-0.1,0.1-0.2,0.1-0.3,0.2
		c-0.1,0.1-0.3,0.2-0.4,0.3c0,0-0.1,0.1-0.1,0.1c-0.2,0.1-0.4,0.3-0.5,0.4c-0.1,0.1-0.2,0.1-0.2,0.2c-0.3,0.3-0.7,0.5-1,0.8
		c-0.1,0.1-0.2,0.2-0.3,0.3c-0.1,0.1-0.2,0.1-0.2,0.2c-0.3,0.3-0.6,0.5-0.9,0.8c-0.2,0.2-0.5,0.5-0.7,0.7c-0.3,0.3-0.6,0.7-1,1
		c0,0-0.1,0.1-0.1,0.1c-0.5,0.5-1.1,1-1.6,1.5c-0.1,0.1-0.2,0.2-0.3,0.2c-0.5,0.5-1.1,1.1-1.6,1.7c-0.2,0.2-0.3,0.3-0.5,0.5
		c-0.4,0.5-0.9,1-1.3,1.5c-0.1,0.1-0.1,0.1-0.2,0.2c-0.5,0.6-1,1.2-1.5,1.9c-0.1,0.2-0.2,0.3-0.3,0.5c-0.4,0.5-0.8,1.1-1.2,1.7
		c-0.1,0.1-0.1,0.2-0.2,0.2c-0.4,0.7-0.9,1.3-1.3,2c-0.1,0.1-0.1,0.2-0.2,0.3c-0.4,0.7-0.8,1.3-1.1,2c0,0.1-0.1,0.2-0.1,0.3
		c-0.4,0.7-0.7,1.4-1.1,2.2c0,0.1-0.1,0.2-0.1,0.3c-0.3,0.6-0.6,1.2-0.8,1.9c-0.1,0.2-0.2,0.4-0.2,0.6c-0.3,0.7-0.6,1.5-0.8,2.3
		c0,0.1-0.1,0.2-0.1,0.3c-0.2,0.7-0.4,1.3-0.6,2c0,0.2-0.1,0.3-0.1,0.5c-0.2,0.8-0.4,1.6-0.6,2.3c0,0.1,0,0.2-0.1,0.3
		c-0.2,0.7-0.3,1.4-0.4,2.1c0,0.2-0.1,0.4-0.1,0.6c-0.1,0.8-0.2,1.6-0.3,2.4c0,0.1,0,0.1,0,0.2c-0.1,0.8-0.1,1.5-0.2,2.3
		c0,0.2,0,0.4,0,0.6c0,0.8-0.1,1.7-0.1,2.5c0,28,22.7,50.7,50.7,50.7c9.4,0,18.2-2.6,25.8-7c1.1-0.6,2.2-1.2,3.3-1.8
		s2.2-1.1,3.4-1.5c0.8-0.3,1.5-0.6,2.3-0.8c1.1-0.3,2.2-0.6,3.3-0.9c4.8-1.2,9.8-1.9,15-2.3c3.1-0.2,6.2-0.3,9.4-0.3
		c24.9,0,47.2,10.7,62.7,27.7c9.3,10.2,14.9,23.1,16.5,36.8c0,0,0,0.1,0,0.1h0c0,12.4,39.5,22.4,88.3,22.4c0.4,0,0.8,0,1.2,0h0
		c0.4,0,0.8,0,1.2,0c48.8,0,88.3-10,88.3-22.4h0c0,0,0-0.1,0-0.1c1.6-13.7,7.2-26.6,16.5-36.8c15.5-17,37.9-27.7,62.7-27.7
		c8.5,0,16.7,0.6,24.4,2.5c1.1,0.3,2.2,0.6,3.3,0.9c0.8,0.2,1.6,0.5,2.3,0.8c1.1,0.5,2.3,1,3.4,1.5c1.1,0.6,2.2,1.2,3.3,1.8
		c7.5,4.5,16.3,7,25.8,7c28,0.1,50.7-22.7,50.7-50.7C609.6,601.8,609.5,601,609.5,600.1z"/>
	
		<ellipse transform="matrix(4.612097e-03 -1 1 4.612097e-03 -254.9262 1021.8627)" class="st0" cx="385.8" cy="639" rx="12.8" ry="12.8"/>
	<g>
		<rect x="72.9" y="611.3" class="st1" width="56.7" height="8.5"/>
		<rect x="186" y="611.3" class="st1" width="56.7" height="8.5"/>
		<rect x="299.3" y="611.3" class="st1" width="56.7" height="8.5"/>
		<rect x="412.7" y="611.3" class="st1" width="56.7" height="8.5"/>
		<rect x="526.1" y="611.3" class="st1" width="56.7" height="8.5"/>
	</g>
	<circle class="st1" cx="327.8" cy="654.2" r="16.9"/>
</g>
<g>
	<path class="st1" d="M610.2,897.3c0,0.2,0,0.4,0,0.6c0,0.8-0.1,1.5-0.2,2.3c0,0.1,0,0.1,0,0.2c-0.1,0.8-0.2,1.6-0.3,2.4
		c0,0.2-0.1,0.4-0.1,0.6c-0.1,0.7-0.3,1.4-0.4,2.1c0,0.1,0,0.2-0.1,0.3c-0.2,0.8-0.4,1.6-0.6,2.3c0,0.2-0.1,0.3-0.1,0.5
		c-0.2,0.7-0.4,1.4-0.6,2c0,0.1-0.1,0.2-0.1,0.3c-0.3,0.8-0.5,1.5-0.8,2.3c-0.1,0.2-0.2,0.4-0.2,0.6c-0.2,0.6-0.5,1.2-0.8,1.9
		c0,0.1-0.1,0.2-0.1,0.3c-0.3,0.7-0.7,1.4-1.1,2.2c0,0.1-0.1,0.2-0.1,0.3c-0.4,0.7-0.7,1.4-1.1,2c-0.1,0.1-0.1,0.2-0.2,0.3
		c-0.4,0.7-0.8,1.4-1.3,2c-0.1,0.1-0.1,0.2-0.2,0.2c-0.4,0.6-0.8,1.1-1.2,1.7c-0.1,0.2-0.2,0.3-0.3,0.5c-0.5,0.6-1,1.3-1.5,1.9
		c-0.1,0.1-0.1,0.1-0.2,0.2c-0.4,0.5-0.9,1-1.3,1.5c-0.2,0.2-0.3,0.3-0.5,0.5c-0.5,0.6-1.1,1.1-1.6,1.7c-0.1,0.1-0.2,0.2-0.3,0.2
		c-0.5,0.5-1,1-1.6,1.5c0,0-0.1,0.1-0.1,0.1c-0.3,0.3-0.6,0.7-1,1c-0.2,0.2-0.5,0.5-0.7,0.7c-0.3,0.3-0.6,0.5-0.9,0.8
		c-0.1,0.1-0.2,0.1-0.2,0.2c-0.1,0.1-0.2,0.2-0.3,0.3c-0.3,0.3-0.6,0.5-1,0.8c-0.1,0.1-0.2,0.1-0.2,0.2c-0.2,0.1-0.4,0.3-0.5,0.4
		c0,0-0.1,0.1-0.1,0.1c-0.1,0.1-0.3,0.2-0.4,0.3c-0.1,0.1-0.2,0.1-0.3,0.2c-0.1,0.1-0.2,0.2-0.3,0.2c-0.1,0.1-0.2,0.2-0.4,0.2
		c-0.2,0.1-0.4,0.2-0.6,0.4c-0.1,0-0.1,0.1-0.2,0.1c-0.2,0.1-0.4,0.3-0.7,0.4c0,0-0.1,0-0.1,0.1c-0.1,0.1-0.3,0.1-0.4,0.2
		c-0.1,0.1-0.3,0.1-0.4,0.2c-0.1,0-0.1,0.1-0.2,0.1c-0.2,0.1-0.4,0.2-0.6,0.3c-0.1,0.1-0.3,0.1-0.4,0.2c-0.2,0.1-0.3,0.1-0.5,0.2
		c-0.2,0.1-0.4,0.2-0.5,0.2c-0.1,0.1-0.3,0.1-0.4,0.2c-0.2,0.1-0.3,0.1-0.5,0.2c-0.2,0.1-0.3,0.1-0.5,0.2c-0.2,0.1-0.3,0.1-0.5,0.2
		c-0.2,0.1-0.4,0.1-0.5,0.2c-0.2,0.1-0.4,0.2-0.6,0.2c-0.1,0-0.3,0.1-0.4,0.1c-0.2,0.1-0.4,0.1-0.7,0.2c-0.1,0-0.3,0.1-0.4,0.1
		c-0.2,0.1-0.3,0.1-0.5,0.2c-0.2,0.1-0.4,0.1-0.6,0.2c-0.2,0.1-0.4,0.1-0.6,0.2c-0.2,0.1-0.4,0.1-0.6,0.2c-0.2,0.1-0.4,0.1-0.6,0.2
		c-0.2,0.1-0.4,0.1-0.6,0.2c-0.2,0-0.4,0.1-0.6,0.1c-0.2,0.1-0.5,0.1-0.7,0.2c-0.2,0-0.5,0.1-0.7,0.1c-0.2,0-0.4,0.1-0.6,0.1
		c-0.2,0-0.4,0.1-0.7,0.1c-0.2,0-0.5,0.1-0.7,0.1c-0.2,0-0.4,0.1-0.6,0.1c-0.3,0-0.5,0.1-0.8,0.1c-0.2,0-0.4,0.1-0.6,0.1
		c-0.3,0-0.6,0.1-0.8,0.1c-0.2,0-0.5,0.1-0.7,0.1c-0.3,0-0.6,0.1-0.8,0.1c-0.2,0-0.5,0-0.7,0.1c-0.3,0-0.6,0.1-0.9,0.1
		c-0.3,0-0.6,0-0.9,0.1c-0.3,0-0.5,0-0.8,0.1c-0.3,0-0.7,0-1,0.1c-0.2,0-0.5,0-0.7,0c-0.3,0-0.7,0-1,0c-0.3,0-0.5,0-0.8,0
		c-0.3,0-0.6,0-0.9,0c-0.3,0-0.6,0-0.9,0c-0.3,0-0.5,0-0.8,0c-0.4,0-0.7,0-1.1,0c-0.3,0-0.6,0-0.9,0c-0.4,0-0.7,0-1.1,0
		c-0.3,0-0.6,0-1,0c-0.4,0-0.7,0-1.1,0c-0.3,0-0.6,0-0.9,0c-0.4,0-0.8,0-1.2,0c-0.3,0-0.6,0-0.9,0c-0.4,0-0.8,0-1.2-0.1
		c-0.3,0-0.6,0-1-0.1c-0.4,0-0.8,0-1.3-0.1c-0.3,0-0.7-0.1-1-0.1c-0.4,0-0.8-0.1-1.2-0.1c-0.4,0-0.8-0.1-1.2-0.1
		c-0.4,0-0.8-0.1-1.2-0.1c-0.4,0-0.8-0.1-1.2-0.1c-0.4,0-0.8-0.1-1.2-0.1c-0.4,0-0.8-0.1-1.2-0.1c-0.4,0-0.9-0.1-1.3-0.1
		c-0.4-0.1-0.9-0.1-1.3-0.2c-0.4-0.1-0.8-0.1-1.2-0.2c-0.5-0.1-1-0.1-1.5-0.2c-0.4-0.1-0.8-0.1-1.2-0.2c-0.5-0.1-1-0.1-1.5-0.2
		c-0.4-0.1-0.8-0.1-1.3-0.2c-0.5-0.1-0.9-0.1-1.4-0.2c-0.5-0.1-0.9-0.1-1.4-0.2c-0.4-0.1-0.8-0.1-1.3-0.2c-0.5-0.1-1.1-0.2-1.6-0.3
		c-0.5-0.1-0.9-0.2-1.4-0.2c-0.5-0.1-1.1-0.2-1.6-0.3c-0.5-0.1-1-0.2-1.5-0.3c-0.5-0.1-1.1-0.2-1.6-0.3c-0.4-0.1-0.9-0.2-1.3-0.3
		c-0.6-0.1-1.2-0.2-1.8-0.4c-0.4-0.1-0.8-0.2-1.3-0.3c-0.7-0.1-1.3-0.3-2-0.4c-0.4-0.1-0.9-0.2-1.3-0.3c-0.7-0.1-1.3-0.3-2-0.4
		c-0.5-0.1-1-0.2-1.5-0.3c-0.6-0.1-1.2-0.3-1.9-0.4c-0.6-0.1-1.2-0.3-1.8-0.4c-0.6-0.1-1.2-0.3-1.7-0.4c-0.6-0.1-1.2-0.3-1.8-0.4
		c-0.6-0.1-1.2-0.3-1.9-0.4c-0.6-0.1-1.2-0.3-1.7-0.4c-0.7-0.2-1.3-0.3-2-0.5c-0.5-0.1-1.1-0.3-1.7-0.4c-0.7-0.2-1.4-0.3-2.1-0.5
		c-0.5-0.1-1-0.3-1.6-0.4c-0.8-0.2-1.5-0.4-2.3-0.6c-0.5-0.1-1.1-0.3-1.6-0.4c-0.8-0.2-1.5-0.4-2.3-0.6c-0.6-0.2-1.2-0.3-1.9-0.5
		c-0.7-0.2-1.5-0.4-2.2-0.6c-0.6-0.2-1.2-0.3-1.8-0.5c-0.8-0.2-1.5-0.4-2.3-0.6c0,0,0,0,0,0c0,0,0,0-0.1,0
		c-35.7-9.9-85.3-33.7-122.4-33.7H308c-37.1,0-86.6,23.8-122.4,33.7c0,0,0,0-0.1,0c0,0,0,0,0,0c-0.8,0.2-1.6,0.4-2.3,0.6
		c-0.6,0.2-1.2,0.3-1.8,0.5c-0.8,0.2-1.5,0.4-2.3,0.6c-0.6,0.2-1.2,0.3-1.8,0.5c-0.8,0.2-1.6,0.4-2.4,0.6c-0.5,0.1-1.1,0.3-1.6,0.4
		c-0.8,0.2-1.6,0.4-2.3,0.6c-0.5,0.1-1,0.3-1.6,0.4c-0.7,0.2-1.4,0.4-2.1,0.5c-0.6,0.1-1.1,0.3-1.7,0.4c-0.7,0.2-1.3,0.3-2,0.5
		c-0.6,0.1-1.2,0.3-1.7,0.4c-0.6,0.1-1.2,0.3-1.8,0.4c-0.6,0.1-1.2,0.3-1.8,0.4c-0.6,0.1-1.1,0.3-1.7,0.4c-0.6,0.1-1.2,0.3-1.8,0.4
		c-0.6,0.1-1.2,0.3-1.9,0.4c-0.5,0.1-1,0.2-1.5,0.3c-0.7,0.1-1.4,0.3-2,0.4c-0.4,0.1-0.9,0.2-1.3,0.3c-0.7,0.1-1.4,0.3-2,0.4
		c-0.4,0.1-0.8,0.2-1.2,0.2c-0.6,0.1-1.2,0.2-1.9,0.4c-0.4,0.1-0.9,0.2-1.3,0.2c-0.6,0.1-1.1,0.2-1.6,0.3c-0.5,0.1-1,0.2-1.4,0.3
		c-0.6,0.1-1.1,0.2-1.6,0.3c-0.5,0.1-0.9,0.2-1.4,0.2c-0.6,0.1-1.1,0.2-1.6,0.3c-0.4,0.1-0.8,0.1-1.3,0.2c-0.5,0.1-1,0.1-1.4,0.2
		c-0.5,0.1-0.9,0.1-1.4,0.2c-0.4,0.1-0.9,0.1-1.3,0.2c-0.5,0.1-1,0.1-1.4,0.2c-0.4,0.1-0.8,0.1-1.2,0.2c-0.5,0.1-1,0.1-1.4,0.2
		c-0.4,0.1-0.8,0.1-1.2,0.1c-0.5,0.1-0.9,0.1-1.4,0.2c-0.5,0.1-0.9,0.1-1.3,0.1c-0.4,0-0.8,0.1-1.2,0.1c-0.4,0-0.8,0.1-1.2,0.1
		c-0.4,0-0.8,0.1-1.2,0.1c-0.4,0-0.8,0.1-1.2,0.1c-0.4,0-0.8,0.1-1.2,0.1c-0.4,0-0.8,0.1-1.2,0.1c-0.3,0-0.7,0.1-1,0.1
		c-0.4,0-0.9,0.1-1.3,0.1c-0.3,0-0.6,0-0.9,0.1c-0.4,0-0.8,0-1.2,0.1c-0.3,0-0.6,0-0.9,0c-0.4,0-0.8,0-1.2,0c-0.3,0-0.6,0-0.9,0
		c-0.4,0-0.7,0-1.1,0c-0.3,0-0.6,0-1,0c-0.4,0-0.7,0-1.1,0c-0.3,0-0.6,0-0.9,0c-0.4,0-0.7,0-1.1,0c-0.3,0-0.6,0-0.8,0
		c-0.3,0-0.6,0-0.9,0c-0.3,0-0.6,0-0.9,0c-0.3,0-0.5,0-0.8,0c-0.3,0-0.7,0-1,0c-0.2,0-0.5,0-0.7,0c-0.3,0-0.7,0-1-0.1
		c-0.3,0-0.5,0-0.8-0.1c-0.3,0-0.6,0-0.9-0.1c-0.3,0-0.6-0.1-0.9-0.1c-0.2,0-0.5,0-0.7-0.1c-0.3,0-0.6-0.1-0.8-0.1
		c-0.2,0-0.5-0.1-0.7-0.1c-0.3,0-0.6-0.1-0.8-0.1c-0.2,0-0.4-0.1-0.6-0.1c-0.3,0-0.5-0.1-0.8-0.1c-0.2,0-0.4-0.1-0.6-0.1
		c-0.2,0-0.5-0.1-0.7-0.1c-0.2,0-0.5-0.1-0.7-0.1c-0.2,0-0.4-0.1-0.6-0.1c-0.2,0-0.5-0.1-0.7-0.1c-0.2,0-0.5-0.1-0.7-0.2
		c-0.2,0-0.4-0.1-0.6-0.1c-0.2,0-0.4-0.1-0.6-0.2c-0.2-0.1-0.4-0.1-0.6-0.2c-0.2-0.1-0.4-0.1-0.6-0.2c-0.2-0.1-0.4-0.1-0.6-0.2
		c-0.2-0.1-0.4-0.1-0.6-0.2c-0.2-0.1-0.3-0.1-0.5-0.2c-0.1,0-0.3-0.1-0.4-0.1c-0.2-0.1-0.4-0.1-0.7-0.2c-0.1,0-0.3-0.1-0.4-0.1
		c-0.2-0.1-0.4-0.2-0.6-0.2c-0.2-0.1-0.4-0.1-0.5-0.2c-0.2-0.1-0.3-0.1-0.5-0.2c-0.2-0.1-0.3-0.1-0.5-0.2c-0.2-0.1-0.3-0.1-0.5-0.2
		c-0.1-0.1-0.3-0.1-0.4-0.2c-0.2-0.1-0.4-0.2-0.5-0.2c-0.2-0.1-0.3-0.1-0.5-0.2c-0.1-0.1-0.3-0.1-0.4-0.2c-0.2-0.1-0.4-0.2-0.6-0.3
		c-0.1,0-0.1-0.1-0.2-0.1c-0.1-0.1-0.3-0.1-0.4-0.2c-0.1-0.1-0.3-0.1-0.4-0.2c0,0-0.1,0-0.1-0.1c-0.2-0.1-0.4-0.3-0.7-0.4
		c-0.1,0-0.1-0.1-0.2-0.1c-0.2-0.1-0.4-0.2-0.6-0.4c-0.1-0.1-0.2-0.2-0.4-0.2c-0.1-0.1-0.2-0.2-0.3-0.2c-0.1-0.1-0.2-0.1-0.3-0.2
		c-0.1-0.1-0.3-0.2-0.4-0.3c0,0-0.1-0.1-0.1-0.1c-0.2-0.1-0.4-0.3-0.5-0.4c-0.1-0.1-0.2-0.1-0.2-0.2c-0.3-0.3-0.7-0.5-1-0.8
		c-0.1-0.1-0.2-0.2-0.3-0.3c-0.1-0.1-0.2-0.1-0.2-0.2c-0.3-0.3-0.6-0.5-0.9-0.8c-0.2-0.2-0.5-0.5-0.7-0.7c-0.3-0.3-0.6-0.7-1-1
		c0,0-0.1-0.1-0.1-0.1c-0.5-0.5-1.1-1-1.6-1.5c-0.1-0.1-0.2-0.2-0.3-0.2c-0.5-0.5-1.1-1.1-1.6-1.7c-0.2-0.2-0.3-0.3-0.5-0.5
		c-0.4-0.5-0.9-1-1.3-1.5c-0.1-0.1-0.1-0.1-0.2-0.2c-0.5-0.6-1-1.2-1.5-1.9c-0.1-0.2-0.2-0.3-0.3-0.5c-0.4-0.5-0.8-1.1-1.2-1.7
		c-0.1-0.1-0.1-0.2-0.2-0.2c-0.4-0.7-0.9-1.3-1.3-2c-0.1-0.1-0.1-0.2-0.2-0.3c-0.4-0.7-0.8-1.3-1.1-2c0-0.1-0.1-0.2-0.1-0.3
		c-0.4-0.7-0.7-1.4-1.1-2.2c0-0.1-0.1-0.2-0.1-0.3c-0.3-0.6-0.6-1.2-0.8-1.9c-0.1-0.2-0.2-0.4-0.2-0.6c-0.3-0.7-0.6-1.5-0.8-2.3
		c0-0.1-0.1-0.2-0.1-0.3c-0.2-0.7-0.4-1.3-0.6-2c0-0.2-0.1-0.3-0.1-0.5c-0.2-0.8-0.4-1.6-0.6-2.3c0-0.1,0-0.2-0.1-0.3
		c-0.2-0.7-0.3-1.4-0.4-2.1c0-0.2-0.1-0.4-0.1-0.6c-0.1-0.8-0.2-1.6-0.3-2.4c0-0.1,0-0.1,0-0.2c-0.1-0.8-0.1-1.5-0.2-2.3
		c0-0.2,0-0.4,0-0.6c0-0.8-0.1-1.7-0.1-2.5c0-28,22.7-50.7,50.7-50.7c9.4,0,18.2,2.6,25.8,7c1.1,0.6,2.2,1.2,3.3,1.8
		s2.2,1.1,3.4,1.5c0.8,0.3,1.5,0.6,2.3,0.8c1.1,0.3,2.2,0.6,3.3,0.9c4.8,1.2,9.8,1.9,15,2.3c3.1,0.2,6.2,0.3,9.4,0.3
		c24.9,0,47.2-10.7,62.7-27.7c9.3-10.2,14.9-23.1,16.5-36.8c0,0,0-0.1,0-0.1h0c0-12.4,39.5-22.4,88.3-22.4c0.4,0,0.8,0,1.2,0h0
		c0.4,0,0.8,0,1.2,0c48.8,0,88.3,10,88.3,22.4h0c0,0,0,0.1,0,0.1c1.6,13.7,7.2,26.6,16.5,36.8c15.5,17,37.9,27.7,62.7,27.7
		c8.5,0,16.7-0.6,24.4-2.5c1.1-0.3,2.2-0.6,3.3-0.9c0.8-0.2,1.6-0.5,2.3-0.8c1.1-0.5,2.3-1,3.4-1.5c1.1-0.6,2.2-1.2,3.3-1.8
		c7.5-4.5,16.3-7,25.8-7c28-0.1,50.7,22.7,50.7,50.7C610.3,895.6,610.3,896.4,610.2,897.3z"/>
	
		<ellipse transform="matrix(1 -4.612097e-03 4.612097e-03 1 -3.9549 1.7921)" class="st0" cx="386.6" cy="858.4" rx="12.8" ry="12.8"/>
	<g>
		<rect x="73.6" y="877.6" class="st1" width="56.7" height="8.5"/>
		<rect x="186.8" y="877.6" class="st1" width="56.7" height="8.5"/>
		<rect x="300.1" y="877.6" class="st1" width="56.7" height="8.5"/>
		<rect x="413.4" y="877.6" class="st1" width="56.7" height="8.5"/>
		<rect x="526.8" y="877.6" class="st1" width="56.7" height="8.5"/>
	</g>
	<circle class="st1" cx="328.6" cy="843.2" r="16.9"/>
</g>
<g>
	<g>
		<g>
			<g>
				<g>
					<path class="st1" d="M1368.2,626v-21.4c0-5.6-4.5-10.1-10.1-10.1l-15.9,0v8.9l-171.8,0v-8.8h-15.8c-5.6,0-10.1,4.5-10.1,10.1
						V626h8.7v26.7h-8.7v26.7h8.7v26.7h-8.7v26.7h8.7v26.7h-8.7v26.6h8.7v26.7h-8.7v26.7h8.7v26.7h-8.7v26.7h8.7v26.7h-8.7v26.2h8.1
						v26.7h-8.1v26.7l8.1,0l-0.1,26.7h-8v26.7l8.1,0v26.7l-8.1,0v22.2c0,5.6,4.5,10.1,10.1,10.1h15.6v-8.4h24.6v8.4h24.6v-8.4h24.6
						v8.4h24.6v-8.4h24.6v8.4h24.4v-8.4h24.6v8.4l16.1,0c5.6,0,10.1-4.5,10.1-10.1v-22.2h-8.1v-26.7h8.1v-26.7h-8.1v-26.7h8.1v-26.7
						h-8.1v-26.7h8.1v-26.2h-8.6v-26.7h8.6v-26.7h-9.1v-26.7h9.1v-26.7h-9.1v-26.7h9.1v-26.6h-9.1v-26.7h9.1v-26.7h-9.1v-26.7h9.1
						v-26.7h-9.1V626H1368.2z"/>
				</g>
			</g>
			<g>
				<circle class="st1" cx="1157.8" cy="608.1" r="4.3"/>
				<circle class="st1" cx="1355" cy="608" r="4.3"/>
				<circle class="st1" cx="1157.8" cy="1098.1" r="4.3"/>
				<circle class="st1" cx="1355" cy="1098" r="4.3"/>
			</g>
		</g>
	</g>
	<g>
		<path class="st0" d="M1297.6,1052.6h-86.4c-6.9,0-12.5-5.6-12.5-12.5v-32.3c0-6.9,5.6-12.5,12.5-12.5h86.4
			c6.9,0,12.5,5.6,12.5,12.5v32.3C1310.1,1047,1304.5,1052.6,1297.6,1052.6z"/>
		<g>
			<g>
				<g>
					<circle class="st2" cx="1315.8" cy="1065.2" r="5.7"/>
					<circle class="st0" cx="1187.8" cy="877.8" r="5.7"/>
					<circle class="st0" cx="1197" cy="1065.2" r="5.7"/>
					<circle class="st0" cx="1325" cy="877.8" r="5.7"/>
				</g>
			</g>
		</g>
		<g>
			<path class="st0" d="M1244.3,673.1v-10.5c0-3.8,3.1-6.9,6.9-6.9h10.5c3.8,0,6.9,3.1,6.9,6.9v10.5c0,3.8-3.1,6.9-6.9,6.9h-10.5
				C1247.4,680,1244.3,676.9,1244.3,673.1z"/>
			<path class="st0" d="M1244.3,786.3v-10.5c0-3.8,3.1-6.9,6.9-6.9h10.5c3.8,0,6.9,3.1,6.9,6.9v10.5c0,3.8-3.1,6.9-6.9,6.9h-10.5
				C1247.4,793.1,1244.3,790.1,1244.3,786.3z"/>
		</g>
	</g>
</g>
<g>
	<path class="st1" d="M634.1,729.5L634.1,729.5c0-5.2-4.2-9.4-9.4-9.4h-13.3v0h-20c-3.5,0-6.4,2.9-6.4,6.4v34.5
		c0,0.8,0.6,1.4,1.4,1.4h8h23.1v-4.9l9.2-0.1l7.6-9.2l-0.1-4.6c0-0.8-0.7-1.5-1.5-1.5h-18.7c-0.8,0-1.5-0.7-1.5-1.5V732
		c0-0.8,0.7-1.5,1.5-1.5H633C633.6,730.5,634.1,730.1,634.1,729.5z"/>
	<polygon class="st1" points="603.5,738.4 594.8,738.4 590.5,745.9 594.8,753.4 603.5,753.4 607.8,745.9 	"/>
</g>
<g>
	<path class="st1" d="M452.8,757.8L452.8,757.8c0,5.2,4.2,9.4,9.4,9.4h13.3v0h20c3.5,0,6.4-2.9,6.4-6.4v-34.5c0-0.8-0.6-1.4-1.4-1.4
		h-8h-23.1v4.9l-9.2,0.1l-7.6,9.2l0.1,4.6c0,0.8,0.7,1.5,1.5,1.5h18.7c0.8,0,1.5,0.7,1.5,1.5v8.5c0,0.8-0.7,1.5-1.5,1.5h-19.1
		C453.2,756.7,452.8,757.2,452.8,757.8z"/>
	<polygon class="st1" points="483.4,748.9 492.1,748.9 496.4,741.4 492.1,733.9 483.4,733.9 479.1,741.4 	"/>
</g>
<g>
	<path class="st1" d="M212.9,736.4L212.9,736.4c0-5.2-4.2-9.4-9.4-9.4h-13.3v0h-20c-3.5,0-6.4,2.9-6.4,6.4l0,34.5
		c0,0.8,0.6,1.4,1.4,1.4h8h23.1v-4.9l9.2-0.1l7.6-9.2l-0.1-4.6c0-0.8-0.7-1.5-1.5-1.5h-18.7c-0.8,0-1.5-0.7-1.5-1.5v-8.5
		c0-0.8,0.7-1.5,1.5-1.5h19.1C212.5,737.5,212.9,737,212.9,736.4z"/>
	<polygon class="st1" points="182.3,745.3 173.6,745.3 169.3,752.8 173.6,760.3 182.3,760.3 186.6,752.8 	"/>
</g>
<g>
	<path class="st1" d="M21.5,765.1L21.5,765.1c0,5.2,4.2,9.4,9.4,9.4h13.3v0h20c3.5,0,6.4-2.9,6.4-6.4l0-34.5c0-0.8-0.6-1.4-1.4-1.4
		h-8H38.2v4.9l-9.2,0.1l-7.6,9.2l0.1,4.6c0,0.8,0.7,1.5,1.5,1.5h18.7c0.8,0,1.5,0.7,1.5,1.5v8.5c0,0.8-0.7,1.5-1.5,1.5H22.6
		C22,764,21.5,764.5,21.5,765.1z"/>
	<polygon class="st1" points="52.1,756.2 60.8,756.2 65.1,748.7 60.8,741.2 52.1,741.2 47.8,748.7 	"/>
</g>
<g>
	<g>
		<g>
			<g>
				<g>
					<ellipse class="st0" cx="982.8" cy="729.4" rx="16.4" ry="16.9"/>
					<ellipse class="st0" cx="953.7" cy="681.2" rx="4.1" ry="4.3"/>
					<ellipse class="st0" cx="954" cy="777.4" rx="4.1" ry="4.3"/>
				</g>
			</g>
		</g>
		<g>
			<g>
				<path class="st0" d="M911.2,883.2L911.2,883.2c8.9,2.9,13.8,12.6,10.8,21.5v0c-2.9,8.9-12.6,13.8-21.5,10.8l0,0
					c-8.9-2.9-13.8-12.6-10.8-21.5v0C892.7,885.2,902.4,880.3,911.2,883.2z"/>
				<g>
					<g>
						
							<ellipse transform="matrix(0.3124 -0.9499 0.9499 0.3124 -170.7821 1415.4587)" class="st0" cx="892.4" cy="825.7" rx="2.8" ry="2.8"/>
						
							<ellipse transform="matrix(0.3124 -0.9499 0.9499 0.3124 -196.3513 1422.728)" class="st0" cx="884.6" cy="847" rx="2.8" ry="2.8"/>
						
							<ellipse transform="matrix(0.3124 -0.9499 0.9499 0.3124 -221.9085 1430.0199)" class="st0" cx="876.9" cy="868.3" rx="2.8" ry="2.8"/>
					</g>
					<g>
						
							<ellipse transform="matrix(0.3124 -0.9499 0.9499 0.3124 -145.7951 1501.8335)" class="st0" cx="964.6" cy="851.6" rx="2.8" ry="2.8"/>
						
							<ellipse transform="matrix(0.3124 -0.9499 0.9499 0.3124 -171.3583 1509.1141)" class="st0" cx="956.8" cy="872.9" rx="2.8" ry="2.8"/>
						
							<ellipse transform="matrix(0.3124 -0.9499 0.9499 0.3124 -196.9215 1516.3947)" class="st0" cx="949.1" cy="894.2" rx="2.8" ry="2.8"/>
						
							<ellipse transform="matrix(0.3124 -0.9499 0.9499 0.3124 -120.2319 1494.553)" class="st0" cx="972.3" cy="830.3" rx="2.8" ry="2.8"/>
					</g>
					
						<rect x="896.8" y="807.7" transform="matrix(0.9397 0.342 -0.342 0.9397 344.0168 -266.3963)" class="st0" width="61.1" height="69.2"/>
				</g>
			</g>
			
				<ellipse transform="matrix(0.3401 -0.9404 0.9404 0.3401 -126.6992 1440.381)" class="st0" cx="962.9" cy="810.5" rx="2.8" ry="2.8"/>
			
				<ellipse transform="matrix(0.3401 -0.9404 0.9404 0.3401 -140.3421 1390.0925)" class="st0" cx="920.3" cy="795" rx="2.8" ry="2.8"/>
		</g>
		<g>
			<g>
				<path class="st0" d="M910.7,575.4L910.7,575.4c8.9-2.9,13.8-12.6,10.8-21.5v0c-2.9-8.9-12.6-13.8-21.5-10.8v0
					c-8.9,2.9-13.8,12.6-10.8,21.5v0C892.1,573.4,901.8,578.3,910.7,575.4z"/>
				<g>
					<g>
						
							<ellipse transform="matrix(0.9499 -0.3124 0.3124 0.9499 -153.0875 310.3135)" class="st0" cx="891.8" cy="632.9" rx="2.8" ry="2.8"/>
						
							<ellipse transform="matrix(0.9499 -0.3124 0.3124 0.9499 -146.8244 306.8361)" class="st0" cx="884.1" cy="611.6" rx="2.8" ry="2.8"/>
						
							<ellipse transform="matrix(0.9499 -0.3124 0.3124 0.9499 -140.5549 303.3372)" class="st0" cx="876.3" cy="590.3" rx="2.8" ry="2.8"/>
					</g>
					<g>
						
							<ellipse transform="matrix(0.9499 -0.3124 0.3124 0.9499 -141.3752 331.5603)" class="st0" cx="964" cy="607" rx="2.8" ry="2.8"/>
						
							<ellipse transform="matrix(0.9499 -0.3124 0.3124 0.9499 -135.1089 328.0721)" class="st0" cx="956.2" cy="585.7" rx="2.8" ry="2.8"/>
						
							<ellipse transform="matrix(0.9499 -0.3124 0.3124 0.9499 -128.8427 324.584)" class="st0" cx="948.5" cy="564.4" rx="2.8" ry="2.8"/>
						
							<ellipse transform="matrix(0.9499 -0.3124 0.3124 0.9499 -147.6415 335.0485)" class="st0" cx="971.8" cy="628.3" rx="2.8" ry="2.8"/>
					</g>
					
						<rect x="896.3" y="581.7" transform="matrix(0.9397 -0.342 0.342 0.9397 -154.8858 354.171)" class="st0" width="61.1" height="69.2"/>
				</g>
			</g>
			
				<ellipse transform="matrix(0.9404 -0.3401 0.3401 0.9404 -163.0525 365.8941)" class="st0" cx="962.4" cy="648.1" rx="2.8" ry="2.8"/>
			
				<ellipse transform="matrix(0.9404 -0.3401 0.3401 0.9404 -170.8395 352.309)" class="st0" cx="919.7" cy="663.6" rx="2.8" ry="2.8"/>
		</g>
	</g>
	<path class="st0" d="M953.5,914c0,0,50.2-128,53.8-179.4c0-0.4,0.1-0.8,0.1-1.2c0.1-1.4,0.1-2.8,0.1-4c0-0.1,0-0.1,0-0.2v0v0
		c0-0.1,0-0.1,0-0.2c0-1.3,0-2.6-0.1-4c0-0.4-0.1-0.8-0.1-1.2c-3.6-51.3-53.8-179.4-53.8-179.4c-7.3-19.9-25.9-32.4-46-32.6
		c-6.7-0.1-13.5,1.2-20.1,4c-24.4,10.3-36,38.4-26.9,63.4l34.9,79.3c9.6,24.2,15.3,47.7,15.9,70.8c-0.6,23.2-6.3,46.6-15.9,70.8
		l-34.9,79.3c-9.1,24.9,2.5,53,26.9,63.4c6.6,2.8,13.4,4.1,20.1,4C927.6,946.4,946.3,933.9,953.5,914z"/>
</g>
<g>
	<g>
		<g>
			<g>
				<g>
					<ellipse class="st0" cx="1101.4" cy="729.4" rx="16.4" ry="16.9"/>
					<ellipse class="st0" cx="1072.3" cy="681.2" rx="4.1" ry="4.3"/>
					<ellipse class="st0" cx="1072.6" cy="777.4" rx="4.1" ry="4.3"/>
				</g>
			</g>
		</g>
	</g>
	<path class="st0" d="M1072.1,914c0,0,50.2-128,53.8-179.4c0-0.4,0.1-0.8,0.1-1.2c0.1-1.4,0.1-2.8,0.1-4c0-0.1,0-0.1,0-0.2v0v0
		c0-0.1,0-0.1,0-0.2c0-1.3,0-2.6-0.1-4c0-0.4-0.1-0.8-0.1-1.2c-3.6-51.3-53.8-179.4-53.8-179.4c-7.3-19.9-25.9-32.4-46-32.6
		c-6.7-0.1-13.5,1.2-20.1,4c-24.4,10.3-36,38.4-26.9,63.4l34.9,79.3c9.6,24.2,15.3,47.7,15.9,70.8c-0.6,23.2-6.3,46.6-15.9,70.8
		l-34.9,79.3c-9.1,24.9,2.5,53,26.9,63.4c6.6,2.8,13.4,4.1,20.1,4C1046.2,946.4,1064.9,933.9,1072.1,914z"/>
	<g>
		
			<ellipse transform="matrix(0.3403 -0.9403 0.9403 0.3403 -61.2869 1573.6765)" class="st0" cx="1090.9" cy="830.5" rx="2.8" ry="2.8"/>
		
			<ellipse transform="matrix(0.3403 -0.9403 0.9403 0.3403 -86.4621 1580.4969)" class="st0" cx="1083.1" cy="851.9" rx="2.8" ry="2.8"/>
		
			<ellipse transform="matrix(0.3403 -0.9403 0.9403 0.3403 -111.6373 1587.3173)" class="st0" cx="1075.4" cy="873.2" rx="2.8" ry="2.8"/>
		
			<ellipse transform="matrix(0.3403 -0.9403 0.9403 0.3403 -109.4708 1495.6469)" class="st0" cx="1011.2" cy="825.8" rx="2.8" ry="2.8"/>
		
			<ellipse transform="matrix(0.3403 -0.9403 0.9403 0.3403 -134.646 1502.4672)" class="st0" cx="1003.4" cy="847.2" rx="2.8" ry="2.8"/>
		
			<ellipse transform="matrix(0.3403 -0.9403 0.9403 0.3403 -159.6414 1509.1373)" class="st0" cx="995.7" cy="868.3" rx="2.8" ry="2.8"/>
		
			<ellipse transform="matrix(0.3401 -0.9404 0.9404 0.3401 -48.4925 1551.9677)" class="st0" cx="1081.5" cy="810.5" rx="2.8" ry="2.8"/>
		
			<ellipse transform="matrix(0.3401 -0.9404 0.9404 0.3401 -62.1355 1501.6793)" class="st0" cx="1038.9" cy="795.1" rx="2.8" ry="2.8"/>
		<path class="st0" d="M1015.1,929.9L1015.1,929.9c16.1,5.8,33.8-2.6,39.4-18.7l32-91l-57.8-20.9l-32.2,91.5
			C991,906.7,999.3,924.1,1015.1,929.9z"/>
		
			<ellipse transform="matrix(0.3403 -0.9403 0.9403 0.3403 -136.8125 1594.1377)" class="st0" cx="1067.7" cy="894.6" rx="2.8" ry="2.8"/>
	</g>
	<g>
		
			<ellipse transform="matrix(0.9403 -0.3403 0.3403 0.9403 -148.7031 408.5201)" class="st0" cx="1090.3" cy="628.2" rx="2.8" ry="2.8"/>
		
			<ellipse transform="matrix(0.9403 -0.3403 0.3403 0.9403 -141.8985 404.6165)" class="st0" cx="1082.6" cy="606.9" rx="2.8" ry="2.8"/>
		
			<ellipse transform="matrix(0.9403 -0.3403 0.3403 0.9403 -135.0938 400.713)" class="st0" cx="1074.9" cy="585.5" rx="2.8" ry="2.8"/>
		
			<ellipse transform="matrix(0.9403 -0.3403 0.3403 0.9403 -148.2459 377.7742)" class="st0" cx="1002.9" cy="611.5" rx="2.8" ry="2.8"/>
		
			<ellipse transform="matrix(0.9403 -0.3403 0.3403 0.9403 -141.5114 373.8769)" class="st0" cx="995.2" cy="590.4" rx="2.8" ry="2.8"/>
		
			<ellipse transform="matrix(0.9404 -0.3401 0.3401 0.9404 -156.0038 406.2416)" class="st0" cx="1081" cy="648.2" rx="2.8" ry="2.8"/>
		
			<ellipse transform="matrix(0.9404 -0.3401 0.3401 0.9404 -163.7908 392.6565)" class="st0" cx="1038.3" cy="663.6" rx="2.8" ry="2.8"/>
		<path class="st0" d="M1014.6,528.9L1014.6,528.9c16.1-5.8,33.8,2.6,39.4,18.7l32,91l-57.8,20.9l-32.2-91.5
			C990.5,552,998.7,534.6,1014.6,528.9z"/>
		
			<ellipse transform="matrix(0.9403 -0.3403 0.3403 0.9403 -128.2892 396.8094)" class="st0" cx="1067.2" cy="564.2" rx="2.8" ry="2.8"/>
	</g>
</g>
<g>
	<circle class="st0" cx="545" cy="710.1" r="8.5"/>
	<path class="st0" d="M611.7,667.8v8.5H585v-8.5h-26.7v8.5h0h-26.7h0v-8.5h-26.7v8.5h-26.7v-8.5h-26.7v8.5c0,3.8,3.4,10.9,10.4,15.6
		c4.1,2.6,9.5,4.5,16.3,4.8c14.2,0,27.2,9.5,35.5,18.4c2.4,2.5,4.3,4.9,5.7,7.1c5.5,8.3,13.1,15.4,23.5,16.1
		c0.7,0.1,1.4,0.1,2.1,0.1s1.4,0,2.1-0.1c10.4-0.8,18-7.9,23.5-16.1c1.3-2.2,3.3-4.7,5.7-7.1c8.2-9,21.3-18.4,35.5-18.4
		c6.7-0.2,12.1-2.1,16.3-4.8c7.1-4.7,10.4-11.8,10.4-15.6v-8.5H611.7z"/>
</g>
<g>
	<circle class="st0" cx="543.1" cy="782.5" r="8.5"/>
	<path class="st0" d="M609.9,824.9v-8.5h-26.7v8.5h-26.7v-8.5h0h-26.7h0v8.5h-26.7v-8.5h-26.7v8.5h-26.7v-8.5
		c0-3.8,3.4-10.9,10.4-15.6c4.1-2.6,9.5-4.5,16.3-4.8c14.2,0,27.2-9.5,35.5-18.4c2.4-2.5,4.3-4.9,5.7-7.1
		c5.5-8.3,13.1-15.4,23.5-16.1c0.7-0.1,1.4-0.1,2.1-0.1s1.4,0,2.1,0.1c10.4,0.8,18,7.9,23.5,16.1c1.3,2.2,3.3,4.7,5.7,7.1
		c8.2,9,21.3,18.4,35.5,18.4c6.7,0.2,12.1,2.1,16.3,4.8c7.1,4.7,10.4,11.8,10.4,15.6v8.5H609.9z"/>
</g>
<g>
	<circle class="st0" cx="116.5" cy="714.1" r="8.5"/>
	<path class="st0" d="M183.3,671.8v8.5h-26.7v-8.5h-26.7v8.5h0h-26.7h0v-8.5H76.5v8.5H49.8v-8.5H23.1v8.5c0,3.8,3.4,10.9,10.4,15.6
		c4.1,2.6,9.5,4.5,16.3,4.8c14.2,0,27.2,9.5,35.5,18.4c2.4,2.5,4.3,4.9,5.7,7.1c5.5,8.3,13.1,15.4,23.5,16.1
		c0.7,0.1,1.4,0.1,2.1,0.1s1.4,0,2.1-0.1c10.4-0.8,18-7.9,23.5-16.1c1.3-2.2,3.3-4.7,5.7-7.1c8.2-9,21.3-18.4,35.5-18.4
		c6.7-0.2,12.1-2.1,16.3-4.8c7.1-4.7,10.4-11.8,10.4-15.6v-8.5H183.3z"/>
</g>
<g>
	<circle class="st0" cx="116.5" cy="789.7" r="8.5"/>
	<path class="st0" d="M183.3,832.1v-8.5h-26.7v8.5h-26.7v-8.5h0h-26.7h0v8.5H76.5v-8.5H49.8v8.5H23.1v-8.5c0-3.8,3.4-10.9,10.4-15.6
		c4.1-2.6,9.5-4.5,16.3-4.8c14.2,0,27.2-9.5,35.5-18.4c2.4-2.5,4.3-4.9,5.7-7.1c5.5-8.3,13.1-15.4,23.5-16.1
		c0.7-0.1,1.4-0.1,2.1-0.1s1.4,0,2.1,0.1c10.4,0.8,18,7.9,23.5,16.1c1.3,2.2,3.3,4.7,5.7,7.1c8.2,9,21.3,18.4,35.5,18.4
		c6.7,0.2,12.1,2.1,16.3,4.8c7.1,4.7,10.4,11.8,10.4,15.6v8.5H183.3z"/>
</g>
<g>
	<path class="st1" d="M269.1,737.7L269.1,737.7c0-5.2-4.2-9.4-9.4-9.4h-13.3v0h-20c-3.5,0-6.4,2.9-6.4,6.4l0,34.5
		c0,0.8,0.6,1.4,1.4,1.4h8h23.1v-4.9l9.2-0.1l7.6-9.2l-0.1-4.6c0-0.8-0.7-1.5-1.5-1.5h-18.7c-0.8,0-1.5-0.7-1.5-1.5v-8.5
		c0-0.8,0.7-1.5,1.5-1.5H268C268.6,738.8,269.1,738.3,269.1,737.7z"/>
	<polygon class="st1" points="238.5,746.6 229.8,746.6 225.5,754.1 229.8,761.6 238.5,761.6 242.8,754.1 	"/>
</g>
<g>
	<path class="st1" d="M393.9,758.3L393.9,758.3c0,5.2,4.2,9.4,9.4,9.4h13.3v0h20c3.5,0,6.4-2.9,6.4-6.4l0-34.5
		c0-0.8-0.6-1.4-1.4-1.4h-8h-23.1v4.9l-9.2,0.1l-7.6,9.2l0.1,4.6c0,0.8,0.7,1.5,1.5,1.5H414c0.8,0,1.5,0.7,1.5,1.5v8.5
		c0,0.8-0.7,1.5-1.5,1.5h-19.1C394.3,757.3,393.9,757.7,393.9,758.3z"/>
	<polygon class="st1" points="424.5,749.4 433.1,749.4 437.5,741.9 433.1,734.4 424.5,734.4 420.2,741.9 	"/>
</g>
<g>
	<circle class="st0" cx="112.4" cy="1008.3" r="8.5"/>
	<path class="st0" d="M179.2,965.9v8.5h-26.7v-8.5h-26.7v8.5h0H99.1h0v-8.5H72.4v8.5H45.7v-8.5H19v8.5c0,3.8,3.4,10.9,10.4,15.6
		c4.1,2.6,9.5,4.5,16.3,4.8c14.2,0,27.2,9.5,35.5,18.4c2.4,2.5,4.3,4.9,5.7,7.1c5.5,8.3,13.1,15.4,23.5,16.1
		c0.7,0.1,1.4,0.1,2.1,0.1s1.4,0,2.1-0.1c10.4-0.8,18-7.9,23.5-16.1c1.3-2.2,3.3-4.7,5.7-7.1c8.2-9,21.3-18.4,35.5-18.4
		c6.7-0.2,12.1-2.1,16.3-4.8c7.1-4.7,10.4-11.8,10.4-15.6v-8.5H179.2z"/>
</g>
<g>
	<circle class="st0" cx="113.8" cy="1082.4" r="8.5"/>
	<path class="st0" d="M180.6,1040v8.5h-26.7v-8.5h-26.7v8.5h0h-26.7h0v-8.5H73.8v8.5H47.1v-8.5H20.4v8.5c0,3.8,3.4,10.9,10.4,15.6
		c4.1,2.6,9.5,4.5,16.3,4.8c14.2,0,27.2,9.5,35.5,18.4c2.4,2.5,4.3,4.9,5.7,7.1c5.5,8.3,13.1,15.4,23.5,16.1
		c0.7,0.1,1.4,0.1,2.1,0.1s1.4,0,2.1-0.1c10.4-0.8,18-7.9,23.5-16.1c1.3-2.2,3.3-4.7,5.7-7.1c8.2-9,21.3-18.4,35.5-18.4
		c6.7-0.2,12.1-2.1,16.3-4.8c7.1-4.7,10.4-11.8,10.4-15.6v-8.5H180.6z"/>
</g>
<g>
	<path class="st1" d="M695.7,1102.7L695.7,1102.7c0,5.2,4.2,9.4,9.4,9.4h13.3v0h20c3.5,0,6.4-2.9,6.4-6.4l0-34.5
		c0-0.8-0.6-1.4-1.4-1.4h-8h-23.1v4.9l-9.2,0.1l-7.6,9.2l0.1,4.6c0,0.8,0.7,1.5,1.5,1.5h18.7c0.8,0,1.5,0.7,1.5,1.5v8.5
		c0,0.8-0.7,1.5-1.5,1.5h-19.1C696.1,1101.6,695.7,1102.1,695.7,1102.7z"/>
	<polygon class="st1" points="726.3,1093.8 734.9,1093.8 739.3,1086.2 734.9,1078.7 726.3,1078.7 721.9,1086.2 	"/>
</g>
<g>
	<path class="st1" d="M633.8,1102.7L633.8,1102.7c0,5.2,4.2,9.4,9.4,9.4h13.3l0,0h20c3.5,0,6.4-2.9,6.4-6.4l0-34.5
		c0-0.8-0.6-1.4-1.4-1.4h-8h-23.1v4.9l-9.2,0.1l-7.6,9.2l0.1,4.6c0,0.8,0.7,1.5,1.5,1.5H654c0.8,0,1.5,0.7,1.5,1.5v8.5
		c0,0.8-0.7,1.5-1.5,1.5h-19.1C634.3,1101.7,633.8,1102.1,633.8,1102.7z"/>
	<polygon class="st1" points="664.5,1093.8 673.1,1093.8 677.5,1086.3 673.1,1078.8 664.5,1078.8 660.1,1086.3 	"/>
</g>
<g>
	<path class="st1" d="M795.5,1114.9L795.5,1114.9c5.2,0,9.4-4.2,9.4-9.4v-13.3h0v-20c0-3.5-2.9-6.4-6.4-6.4l-34.5,0
		c-0.8,0-1.4,0.6-1.4,1.4v8v23.1h4.9l0.1,9.2l9.2,7.6l4.6-0.1c0.8,0,1.5-0.7,1.5-1.5v-18.7c0-0.8,0.7-1.5,1.5-1.5h8.5
		c0.8,0,1.5,0.7,1.5,1.5v19.1C794.4,1114.5,794.9,1114.9,795.5,1114.9z"/>
	<polygon class="st1" points="786.6,1084.3 786.6,1075.7 779.1,1071.3 771.6,1075.7 771.6,1084.3 779.1,1088.6 	"/>
</g>
<g>
	<path class="st1" d="M866.5,1076.8L866.5,1076.8c0-5.2-4.2-9.4-9.4-9.4h-13.3v0h-20c-3.5,0-6.4,2.9-6.4,6.4v34.5
		c0,0.8,0.6,1.4,1.4,1.4h8h23.1v-4.9l9.2-0.1l7.6-9.2l-0.1-4.6c0-0.8-0.7-1.5-1.5-1.5h-18.7c-0.8,0-1.5-0.7-1.5-1.5v-8.5
		c0-0.8,0.7-1.5,1.5-1.5h19.1C866,1077.9,866.5,1077.4,866.5,1076.8z"/>
	<polygon class="st1" points="835.9,1085.7 827.2,1085.7 822.9,1093.2 827.2,1100.7 835.9,1100.7 840.2,1093.2 	"/>
</g>
<g>
	
		<rect x="119.4" y="225.5" transform="matrix(-1.836970e-16 1 -1 -1.836970e-16 458.2578 118.6898)" class="st1" width="100.8" height="126"/>
	
		<rect x="190.3" y="267.2" transform="matrix(-1.836970e-16 1 -1 -1.836970e-16 500.0578 76.8898)" class="st1" width="42.5" height="42.5"/>
	<g>
		<circle class="st1" cx="224.3" cy="247.4" r="4"/>
		<circle class="st1" cx="224.3" cy="329.5" r="4"/>
	</g>
</g>
<g>
	
		<rect x="919" y="942.9" transform="matrix(-1.836970e-16 1 -1 -1.836970e-16 1975.3519 36.4581)" class="st1" width="100.8" height="126"/>
	
		<rect x="990" y="984.6" transform="matrix(-1.836970e-16 1 -1 -1.836970e-16 2017.152 -5.3419)" class="st1" width="42.5" height="42.5"/>
	<g>
		<circle class="st1" cx="1024" cy="964.9" r="4"/>
		<circle class="st1" cx="1024" cy="1046.9" r="4"/>
	</g>
</g>
<g>
	<polygon class="st1" points="893.4,1077 901.9,1077 901.9,1085.5 893.4,1085.5 893.4,1094 901.9,1094 901.9,1102.5 893.4,1102.5 
		893.4,1111 901.9,1111 943,1111 943,1119.5 999.7,1119.5 999.7,1111 1040.8,1111 1049.3,1111 1049.3,1102.5 1040.8,1102.5 
		1040.8,1094 1049.3,1094 1049.3,1085.5 1040.8,1085.5 1040.8,1077 1049.3,1077 1049.3,1068.5 1040.8,1068.5 901.9,1068.5 
		893.4,1068.5 	"/>
	<path class="st0" d="M967.1,1084.7v9.8c0,3.2-2.6,5.8-5.8,5.8h-33.8c-3.2,0-5.8-2.6-5.8-5.8v-9.8c0-3.2,2.6-5.8,5.8-5.8h33.8
		C964.5,1078.9,967.1,1081.5,967.1,1084.7z"/>
</g>
<g>
	<g>
		<g>
			<g>
				<g>
					<circle class="st1" cx="273.6" cy="965.8" r="4.3"/>
					<circle class="st1" cx="273.6" cy="1083.3" r="4.3"/>
				</g>
				<g>
					<circle class="st1" cx="427.9" cy="945.8" r="4.3"/>
					<circle class="st1" cx="427.9" cy="1103.3" r="4.3"/>
				</g>
				<g>
					<g>
						<g>
							<circle class="st1" cx="434.4" cy="967.9" r="2.8"/>
							<circle class="st1" cx="434.4" cy="1081.2" r="2.8"/>
						</g>
					</g>
					<circle class="st1" cx="236" cy="945.2" r="2.8"/>
					<circle class="st1" cx="236" cy="1103.9" r="2.8"/>
				</g>
			</g>
			<path class="st1" d="M360.2,1087.8h-32.5c-7,0-12.8-5.7-12.8-12.8l0,0c0-7,5.7-12.8,12.8-12.8h32.5c7,0,12.8,5.7,12.8,12.8l0,0
				C373,1082,367.3,1087.8,360.2,1087.8z"/>
		</g>
		<path class="st1" d="M423.6,977.9L423.6,977.9l16.4,0c4.7,0,8.5-3.8,8.5-8.5V948c0-9-7.3-16.3-16.3-16.3H238.1
			c-4,0-7.7,1.4-10.5,3.8c-4.5,3.8-4.7,10.4-1.1,15c1.1,1.4,1.7,3.1,1.7,4.8l-0.4,144.1c0,0.9-0.2,1.7-0.5,2.5
			c-2.5,6.8,1.4,14.4,8.6,15.3c0.7,0.1,1.4,0.1,2.1,0.1h194.1c9,0,16.3-7.3,16.3-16.3v-21.4c0-4.7-3.8-8.5-8.5-8.5h-16.4v0
			c-25.1-0.8-45.1-21.4-45.1-46.6C378.5,999.3,398.6,978.8,423.6,977.9z"/>
	</g>
	<g>
		<circle class="st3" cx="305.9" cy="942.3" r="4.3"/>
		<circle class="st3" cx="366.6" cy="942.3" r="4.3"/>
	</g>
	<g>
		<circle class="st3" cx="305.9" cy="1108.3" r="4.3"/>
		<circle class="st3" cx="366.6" cy="1108.3" r="4.3"/>
	</g>
</g>
</svg>
